<svg width="180" height="180" viewBox="0 0 180 180" fill="none" xmlns="http://www.w3.org/2000/svg">
<rect width="180" height="180" rx="90" fill="#3D5A75" fill-opacity="0.04"/>
<path d="M67.981 62.5713H68.4466C68.947 62.8027 69.1055 63.2101 69.0857 63.7484C69.0609 64.508 69.0808 65.2726 69.0808 66.0322C69.0808 66.1177 69.0857 66.1982 69.0907 66.2787H71.0078C71.0078 65.4185 71.0227 64.5784 71.0029 63.7434C70.988 63.2051 71.1465 62.7977 71.6518 62.5713H72.1175C72.6228 62.7977 72.7863 63.2051 72.7665 63.7434C72.7417 64.3872 72.7615 65.0311 72.7615 65.675C72.7615 65.8762 72.7615 66.0774 72.7615 66.2837H74.6886C74.6886 65.4285 74.7035 64.5885 74.6837 63.7484C74.6688 63.2101 74.8224 62.8027 75.3277 62.5713H75.7933C76.2887 62.7876 76.4671 63.18 76.4473 63.7132C76.4225 64.2715 76.4423 64.8299 76.4423 65.3832V66.2937C76.5463 66.2937 76.6306 66.2937 76.7148 66.2937C77.5421 66.2937 78.3694 66.2937 79.1967 66.2937C79.7466 66.2937 80.1082 66.666 80.1132 67.2244C80.1132 67.994 80.1132 68.7636 80.1132 69.5333C80.1132 69.6892 80.1132 69.8452 80.1132 70.0212H80.3857C81.1436 70.0212 81.9016 70.0413 82.6595 70.0162C83.1896 70.0011 83.571 70.1721 83.7841 70.6802V71.153C83.5562 71.6611 83.1549 71.8221 82.6248 71.802C81.8768 71.7768 81.1238 71.7969 80.3757 71.7969C80.2915 71.7969 80.2123 71.802 80.133 71.807V73.7537C80.9801 73.7537 81.8074 73.7688 82.6298 73.7487C83.1599 73.7336 83.5611 73.8946 83.7841 74.4077V74.8805C83.5611 75.3936 83.1599 75.5596 82.6298 75.5395C81.9957 75.5144 81.3616 75.5345 80.7275 75.5345H80.128V77.4913C80.9702 77.4913 81.7975 77.5064 82.6248 77.4862C83.1549 77.4712 83.5562 77.6271 83.7841 78.1402V78.613C83.571 79.1161 83.1846 79.2972 82.6595 79.2771C82.0551 79.2519 81.4508 79.272 80.8513 79.272H80.1181C80.1181 79.3827 80.1181 79.4682 80.1181 79.5537C80.1181 80.3636 80.1181 81.1735 80.1181 81.9834C80.1181 82.6574 79.7813 83.0045 79.1224 83.0045C78.3199 83.0045 77.5124 83.0045 76.7098 83.0045H76.4473C76.4473 83.1202 76.4473 83.2057 76.4473 83.2913C76.4473 84.1313 76.4473 84.9714 76.4473 85.8115C76.4473 86.1686 76.2986 86.4553 75.9866 86.6264C75.6893 86.7873 75.3921 86.7723 75.1047 86.5912C74.7927 86.39 74.6985 86.073 74.6985 85.7159C74.6985 84.901 74.6985 84.081 74.6985 83.2661C74.6985 83.1856 74.6936 83.1001 74.6886 83.0196H72.7714C72.7714 83.1202 72.7714 83.2007 72.7714 83.2862C72.7714 84.1112 72.7714 84.9362 72.7714 85.7612C72.7714 86.3497 72.3949 86.7421 71.8649 86.732C71.3794 86.722 71.0277 86.3246 71.0227 85.7662C71.0177 84.9312 71.0227 84.1011 71.0227 83.2661C71.0227 83.1856 71.0227 83.1001 71.0227 83.0146H69.0956C69.0956 83.1102 69.0956 83.1957 69.0956 83.2812C69.0956 84.0911 69.1105 84.901 69.0857 85.7109C69.0808 85.9372 69.0164 86.1837 68.9024 86.3749C68.7142 86.6968 68.3129 86.8024 67.9612 86.6918C67.5797 86.566 67.3469 86.2491 67.3469 85.8165C67.3419 84.9664 67.3469 84.1213 67.3469 83.2711C67.3469 83.1856 67.3469 83.1051 67.3469 83.0045C67.2329 83.0045 67.1487 83.0045 67.0645 83.0045C66.252 83.0045 65.4396 83.0045 64.6272 83.0045C64.0327 83.0045 63.676 82.6423 63.676 82.0387C63.676 81.2037 63.676 80.3737 63.676 79.5386C63.676 79.4581 63.676 79.3726 63.676 79.2771C63.5571 79.2771 63.4729 79.2771 63.3887 79.2771C62.5614 79.2771 61.7341 79.2821 60.9067 79.2771C60.342 79.272 59.9556 78.8293 60.0101 78.281C60.0596 77.8183 60.4411 77.5114 60.986 77.5064C61.7885 77.5064 62.596 77.5064 63.3986 77.5064C63.4828 77.5064 63.567 77.5064 63.6562 77.5064V75.5496C63.5571 75.5496 63.4729 75.5496 63.3887 75.5496C62.5762 75.5496 61.7638 75.5496 60.9513 75.5496C60.3717 75.5496 59.9903 75.1673 60.0051 74.624C60.02 74.131 60.4064 73.7789 60.9612 73.7739C61.7836 73.7739 62.601 73.7739 63.4233 73.7739C63.5026 73.7739 63.5868 73.7739 63.6661 73.7739V71.8171C63.567 71.8171 63.4828 71.8171 63.3986 71.8171C62.601 71.8171 61.8034 71.8321 61.0058 71.807C60.7829 71.802 60.5402 71.7366 60.3519 71.6209C60.0349 71.4297 59.9308 71.0223 60.0448 70.6651C60.1637 70.2878 60.4758 70.0514 60.8869 70.0464C61.7291 70.0413 62.5762 70.0464 63.4184 70.0464C63.4977 70.0464 63.5819 70.0464 63.676 70.0464C63.676 69.1107 63.676 68.2053 63.676 67.3048C63.676 66.671 64.0277 66.3189 64.6569 66.3189C65.4693 66.3189 66.2818 66.3189 67.0942 66.3189C67.1735 66.3189 67.2577 66.3189 67.3469 66.3189C67.3469 65.4336 67.3667 64.5834 67.3419 63.7383C67.3271 63.2001 67.4955 62.8127 67.9958 62.5964L67.981 62.5713ZM65.4049 81.2137C65.504 81.2137 65.5783 81.2238 65.6526 81.2238C69.809 81.2238 73.9653 81.2238 78.1167 81.2238C78.305 81.2238 78.3644 81.1785 78.3644 80.9773C78.3595 76.7518 78.3595 72.5213 78.3644 68.2958C78.3644 68.0946 78.305 68.0493 78.1167 68.0493C73.9604 68.0493 69.804 68.0493 65.6526 68.0493C65.5734 68.0493 65.4891 68.0594 65.4049 68.0644V81.2037V81.2137Z" fill="#3D5A75"/>
<path d="M76.4264 74.6653C76.4264 75.8525 76.4264 77.0396 76.4264 78.2268C76.4264 78.9059 76.0796 79.258 75.4158 79.258C73.0577 79.258 70.6947 79.258 68.3366 79.258C67.6877 79.258 67.3359 78.9009 67.3359 78.2369C67.3359 75.8424 67.3359 73.4429 67.3359 71.0485C67.3359 70.3845 67.6877 70.0273 68.3366 70.0273C70.7046 70.0273 73.0726 70.0273 75.4406 70.0273C76.0747 70.0273 76.4264 70.3895 76.4314 71.0384C76.4314 72.2508 76.4314 73.458 76.4314 74.6703L76.4264 74.6653ZM69.0946 71.8131V77.4722H74.6628V71.8131H69.0946Z" fill="#3D5A75"/>
<path d="M78.3295 117.428C77.6008 117.262 76.8369 117.184 76.1433 116.922C73.8693 116.051 72.4645 114.403 71.9377 112.032C71.9113 111.901 71.8674 111.77 71.8147 111.587C71.1914 111.587 70.5592 111.587 69.927 111.587C69.0841 111.587 68.7768 111.273 68.7768 110.445C68.7768 109.931 68.7768 109.425 68.7768 108.911C68.7768 108.876 68.7593 108.85 68.7417 108.771C68.1096 108.71 67.3281 108.789 67.3281 107.821C67.3281 107.272 67.6179 107.115 68.7768 106.975C68.7768 106.653 68.8032 106.313 68.7768 105.982C68.4608 102.006 69.8129 98.5105 71.885 95.2065C73.5181 92.5999 75.6077 90.4728 78.2505 88.8775C78.6193 88.6595 79.0144 88.5201 79.3305 88.8513C79.5236 89.0518 79.6553 89.4093 79.6466 89.6882C79.6378 89.9062 79.3919 90.1503 79.19 90.2985C78.6017 90.7431 77.9959 91.1528 77.3813 91.5538C77.0301 91.7805 76.9511 91.9897 77.153 92.382C77.434 92.9399 77.6623 93.5327 77.8818 94.1168C78.6281 96.1306 77.2145 98.1793 75.0458 98.2229C74.2029 98.2403 73.3688 98.2229 72.5259 98.2316C72.3679 98.2316 72.1308 98.3188 72.0781 98.4408C71.3845 99.792 70.8489 101.204 70.6294 102.712C70.6206 102.8 70.6294 102.878 70.6294 103.044C70.9543 103.044 71.2704 103.044 71.5865 103.044C72.1572 103.061 72.5347 103.419 72.5347 103.907C72.5347 104.395 72.1484 104.744 71.5777 104.761C71.2528 104.761 70.928 104.761 70.5241 104.761V106.941C71.2265 107.124 71.5338 107.403 71.5426 107.856C71.5426 108.318 71.2528 108.597 70.5416 108.78V109.826H71.7884C72.0167 109.172 72.245 108.501 72.482 107.838C72.6664 107.324 73.0352 107.115 73.5883 107.115C76.8808 107.124 80.1734 107.124 83.4659 107.115C84.0102 107.115 84.4053 107.307 84.5897 107.821C84.7917 108.379 84.9409 108.954 85.1516 109.504C85.2043 109.652 85.3887 109.852 85.5116 109.852C90.5865 109.87 95.6614 109.861 100.736 109.852C100.771 109.852 100.798 109.826 100.833 109.817C101.562 105.799 104.907 103.846 107.971 104.055C110.947 104.256 113.661 106.426 114.196 109.835H117.032V108.728C116.602 108.728 116.18 108.728 115.759 108.728C115.118 108.719 114.697 108.362 114.705 107.856C114.705 107.342 115.127 107.019 115.777 107.01C116.189 107.01 116.593 107.01 117.032 107.01V105.485C116.532 105.485 116.022 105.493 115.513 105.485C114.047 105.441 112.8 104.351 112.633 102.991C112.423 101.3 113.257 99.8705 114.749 99.4869C115.32 99.3387 115.935 99.391 116.532 99.3562C116.698 99.3474 116.865 99.3562 117.032 99.3562C117.067 98.467 116.602 97.8742 115.75 97.7347C113.002 97.2814 110.254 96.828 107.497 96.4009C106.97 96.3224 106.636 96.087 106.435 95.5901C105.644 93.6374 104.81 91.702 104.02 89.758C103.52 88.5113 102.598 87.936 101.281 87.9447C96.8555 87.9447 92.4303 87.9447 88.0052 87.9447C85.898 87.9447 83.8522 88.2934 81.8767 89.0344C81.6045 89.139 81.227 89.2 80.9987 89.078C80.7616 88.956 80.5509 88.6072 80.4982 88.3283C80.428 87.9185 80.7177 87.657 81.1128 87.5001C83.2815 86.6458 85.5555 86.2447 87.9086 86.236C92.3864 86.2273 96.8643 86.2273 101.333 86.236C103.361 86.236 104.784 87.1863 105.565 89.0518C106.312 90.8215 107.04 92.5912 107.76 94.3696C107.866 94.6312 107.997 94.7532 108.305 94.7968C110.921 95.2153 113.538 95.6424 116.145 96.0957C117.699 96.366 118.753 97.6562 118.762 99.2341C118.762 101.631 118.762 104.029 118.762 106.426C118.762 106.609 118.762 106.792 118.762 106.975L118.893 106.853L120 107.525V108.239L118.762 108.954C118.762 109.303 118.762 109.826 118.762 110.358C118.762 111.326 118.498 111.587 117.506 111.587C116.4 111.587 115.285 111.587 114.179 111.587C114.126 111.796 114.091 111.962 114.047 112.128C113.397 114.743 111.755 116.425 109.156 117.166C108.665 117.306 108.155 117.349 107.646 117.428H107.339C107.19 117.402 107.04 117.358 106.891 117.341C105.46 117.219 104.213 116.687 103.124 115.763C101.834 114.673 101.096 113.27 100.824 111.605C100.648 111.605 100.499 111.578 100.35 111.578C95.4594 111.578 90.5777 111.578 85.6872 111.578C85.4238 111.578 85.178 111.509 85.099 111.936C84.6336 114.22 83.3342 115.894 81.1567 116.8C80.3665 117.132 79.4797 117.219 78.6368 117.419H78.3295V117.428ZM107.506 105.772C104.758 105.772 102.519 107.961 102.51 110.672C102.51 113.435 104.766 115.702 107.523 115.684C110.254 115.667 112.493 113.435 112.502 110.741C112.502 107.995 110.28 105.781 107.514 105.781L107.506 105.772ZM75.4233 108.85C74.9843 108.85 74.5892 108.824 74.2029 108.867C74.0537 108.885 73.8166 109.05 73.7903 109.181C73.6673 109.774 73.5093 110.384 73.5444 110.977C73.7112 114.124 76.6174 116.016 79.3041 115.615C82.2367 115.17 84.2649 111.962 83.2552 109.181C83.2113 109.05 83.062 108.876 82.9479 108.867C82.5176 108.832 82.0786 108.85 81.6221 108.85C82.4298 110.933 82.0786 112.494 80.6211 113.575C79.348 114.516 77.6008 114.49 76.3189 113.514C74.9317 112.459 74.6068 110.846 75.4146 108.85H75.4233ZM78.5139 112.537C79.55 112.537 80.3929 111.709 80.3841 110.698C80.3753 109.722 79.5324 108.885 78.5403 108.858C77.5218 108.841 76.6789 109.669 76.6701 110.698C76.6701 111.744 77.4691 112.537 78.5139 112.537ZM117.014 101.1C116.892 101.091 116.813 101.074 116.734 101.074C116.303 101.074 115.873 101.056 115.452 101.082C114.802 101.117 114.354 101.597 114.293 102.294C114.231 102.965 114.6 103.637 115.188 103.715C115.785 103.802 116.4 103.732 117.023 103.732V101.1H117.014ZM75.5814 93.062L73.0264 96.5055C73.8956 96.5055 74.5805 96.5578 75.2565 96.4968C76.0555 96.427 76.5472 95.5988 76.2926 94.8404C76.1082 94.2999 75.8711 93.7681 75.5902 93.0707L75.5814 93.062Z" fill="#3D5A75"/>
<path d="M93.0535 98.2318C89.1814 98.2318 85.3094 98.2318 81.4374 98.2318C80.5155 98.2318 80.2521 97.9528 80.2258 97.0549C80.1731 95.3201 80.4014 93.6637 81.4199 92.1991C82.8159 90.2028 84.7475 89.1218 87.1884 89.0956C91.5784 89.0433 95.9597 89.0695 100.35 89.0956C101.754 89.0956 102.764 89.7756 103.309 91.0745C104.116 93.0012 104.915 94.9278 105.706 96.8544C106.057 97.7087 105.679 98.2405 104.731 98.2405C100.841 98.2405 96.9518 98.2405 93.0622 98.2405L93.0535 98.2318ZM86.2665 90.8653C86.2665 91.955 86.2752 92.975 86.2665 93.995C86.2665 94.4657 85.9153 94.8057 85.4763 94.8406C85.0724 94.8667 84.6861 94.5791 84.5983 94.1345C84.5456 93.8729 84.5544 93.594 84.5544 93.3237C84.5544 92.7571 84.5544 92.1991 84.5544 91.5889C83.0178 92.3648 81.7096 94.5268 82.0345 96.4795H84.5192C84.6685 95.6601 84.9231 95.3724 85.4587 95.3898C85.9767 95.3985 86.1874 95.6601 86.3455 96.4708H93.6593V90.8653H86.284H86.2665ZM103.66 96.4882C103.625 96.3749 103.607 96.2964 103.581 96.2267C102.957 94.7185 102.334 93.2191 101.711 91.7109C101.456 91.092 100.982 90.7956 100.306 90.7956C99.4805 90.7956 98.6551 90.7956 97.8386 90.7956C97.0396 90.7956 96.2406 90.7956 95.4241 90.7956V96.497H103.66V96.4882Z" fill="#3D5A75"/>
<path d="M103.908 110.716C103.943 108.022 106.841 106.305 109.203 107.595C109.764 107.9 109.949 108.336 109.721 108.798C109.484 109.286 109.018 109.4 108.404 109.112C107.324 108.597 106.182 109.016 105.77 110.062C105.383 111.056 105.91 112.137 106.946 112.468C108.035 112.817 109.176 112.102 109.317 110.951C109.378 110.454 109.475 109.992 110.072 109.888C110.634 109.792 111.046 110.175 111.055 110.768C111.081 112.459 109.747 113.968 107.973 114.238C106.288 114.499 104.532 113.375 104.057 111.718C103.97 111.396 103.943 111.056 103.891 110.725L103.908 110.716Z" fill="#3D5A75"/>
</svg>
