<svg width="123" height="26" viewBox="0 0 123 26" fill="none" xmlns="http://www.w3.org/2000/svg">
<path d="M0 0.00976562H11.45C19.69 0.00976562 25.34 4.97976 25.34 12.6098C25.34 20.2398 19.69 25.2098 11.45 25.2098H0V0.00976562ZM11.16 20.4098C16.16 20.4098 19.44 17.4198 19.44 12.5998C19.44 7.77977 16.16 4.78976 11.16 4.78976H5.83V20.4098H11.16Z" fill="#3D5A75"/>
<path d="M49.2405 20.52V25.2H29.7305V0H48.7705V4.68H35.5205V10.15H47.2205V14.69H35.5205V20.52H49.2305H49.2405Z" fill="#3D5A75"/>
<path d="M77.7509 0.00976562L66.8409 25.2098H61.0809L50.2109 0.00976562H56.5109L64.1809 18.0098L71.9509 0.00976562H77.7509Z" fill="#3D5A75"/>
<path d="M99.3498 20.52V25.2H79.8398V0H98.8798V4.68H85.6298V10.15H97.3298V14.69H85.6298V20.52H99.3398H99.3498Z" fill="#3D5A75"/>
<path d="M103.998 0.00976562H109.828V20.4598H122.458V25.2098H103.988V0.00976562H103.998Z" fill="#3D5A75"/>
</svg>
