<?xml version="1.0" encoding="UTF-8"?>
<svg id="Layer_1" xmlns="http://www.w3.org/2000/svg" viewBox="0 0 160.47 82.46">
  <defs>
    <style>
      .cls-1 {
        fill: none;
      }

      .cls-2 {
        fill: #fff;
      }
    </style>
  </defs>
  <rect class="cls-1" x=".47" y="16.52" width="160" height="40"/>
  <path class="cls-2" d="M20.59,24.68h11.45c8.24,0,13.89,4.97,13.89,12.6s-5.65,12.6-13.89,12.6h-11.45v-25.2ZM31.75,45.08c5,0,8.28-2.99,8.28-7.81s-3.28-7.81-8.28-7.81h-5.33v15.62h5.33Z"/>
  <path class="cls-2" d="M69.83,45.19v4.68h-19.51v-25.2h19.04v4.68h-13.25v5.47h11.7v4.54h-11.7v5.83h13.71Z"/>
  <path class="cls-2" d="M98.34,24.68l-10.91,25.2h-5.76l-10.87-25.2h6.3l7.67,18,7.77-18h5.8Z"/>
  <path class="cls-2" d="M119.94,45.19v4.68h-19.51v-25.2h19.04v4.68h-13.25v5.47h11.7v4.54h-11.7v5.83h13.71Z"/>
  <path class="cls-2" d="M124.59,24.68h5.83v20.45h12.63v4.75h-18.47v-25.2Z"/>
</svg>