<svg width="60" height="60" viewBox="0 0 60 60" fill="none" xmlns="http://www.w3.org/2000/svg">
<g clip-path="url(#clip0_4334_51752)">
<path d="M8.05344 0H8.52334C9.02823 0.229802 9.18819 0.634453 9.1682 1.16899C9.1432 1.92334 9.1632 2.68269 9.1632 3.43704C9.1632 3.52196 9.1682 3.6019 9.1732 3.68183H11.1078C11.1078 2.82756 11.1228 1.99328 11.1028 1.164C11.0878 0.629457 11.2478 0.224806 11.7576 0H12.2275C12.7374 0.224806 12.9024 0.629457 12.8824 1.164C12.8574 1.80345 12.8774 2.44289 12.8774 3.08234C12.8774 3.28217 12.8774 3.482 12.8774 3.68682H14.822C14.822 2.83755 14.837 2.00327 14.817 1.16899C14.802 0.634453 14.9569 0.229802 15.4668 0H15.9367C16.4366 0.214815 16.6166 0.604479 16.5966 1.13402C16.5716 1.68854 16.5916 2.24307 16.5916 2.79259V3.69681C16.6966 3.69681 16.7816 3.69681 16.8665 3.69681C17.7014 3.69681 18.5362 3.69681 19.371 3.69681C19.9259 3.69681 20.2908 4.06649 20.2958 4.62102C20.2958 5.38536 20.2958 6.1497 20.2958 6.91404C20.2958 7.06891 20.2958 7.22377 20.2958 7.39862H20.5707C21.3356 7.39862 22.1004 7.4186 22.8652 7.39363C23.4001 7.37864 23.785 7.54849 24 8.05306V8.52265C23.77 9.02722 23.3651 9.18708 22.8303 9.1671C22.0754 9.14212 21.3156 9.1621 20.5607 9.1621C20.4758 9.1621 20.3958 9.1671 20.3158 9.17209V11.1054C21.1706 11.1054 22.0054 11.1204 22.8353 11.1004C23.3701 11.0854 23.775 11.2453 24 11.7549V12.2245C23.775 12.734 23.3701 12.8989 22.8353 12.8789C22.1954 12.8539 21.5555 12.8739 20.9157 12.8739H20.3108V14.8172C21.1606 14.8172 21.9954 14.8322 22.8303 14.8122C23.3651 14.7972 23.77 14.9521 24 15.4617V15.9313C23.785 16.4308 23.3951 16.6107 22.8652 16.5907C22.2554 16.5657 21.6455 16.5857 21.0406 16.5857H20.3008C20.3008 16.6956 20.3008 16.7805 20.3008 16.8655C20.3008 17.6698 20.3008 18.4741 20.3008 19.2784C20.3008 19.9478 19.9609 20.2925 19.296 20.2925C18.4862 20.2925 17.6714 20.2925 16.8615 20.2925H16.5966C16.5966 20.4074 16.5966 20.4923 16.5966 20.5773C16.5966 21.4115 16.5966 22.2458 16.5966 23.0801C16.5966 23.4348 16.4466 23.7196 16.1317 23.8894C15.8318 24.0493 15.5318 24.0343 15.2419 23.8544C14.927 23.6546 14.832 23.3399 14.832 22.9852C14.832 22.1759 14.832 21.3616 14.832 20.5523C14.832 20.4724 14.827 20.3874 14.822 20.3075H12.8874C12.8874 20.4074 12.8874 20.4873 12.8874 20.5723C12.8874 21.3916 12.8874 22.2109 12.8874 23.0301C12.8874 23.6146 12.5075 24.0043 11.9726 23.9943C11.4827 23.9843 11.1278 23.5897 11.1228 23.0351C11.1178 22.2059 11.1228 21.3816 11.1228 20.5523C11.1228 20.4724 11.1228 20.3874 11.1228 20.3025H9.1782C9.1782 20.3974 9.1782 20.4823 9.1782 20.5673C9.1782 21.3716 9.19319 22.1759 9.1682 22.9802C9.1632 23.205 9.09821 23.4498 8.98324 23.6396C8.79328 23.9593 8.38837 24.0643 8.03344 23.9544C7.64853 23.8295 7.41358 23.5147 7.41358 23.0851C7.40858 22.2408 7.41358 21.4016 7.41358 20.5573C7.41358 20.4724 7.41358 20.3924 7.41358 20.2925C7.2986 20.2925 7.21362 20.2925 7.12864 20.2925C6.30881 20.2925 5.48899 20.2925 4.66917 20.2925C4.0693 20.2925 3.70938 19.9328 3.70938 19.3333C3.70938 18.504 3.70938 17.6798 3.70938 16.8505C3.70938 16.7705 3.70938 16.6856 3.70938 16.5907C3.5894 16.5907 3.50442 16.5907 3.41944 16.5907C2.58462 16.5907 1.7498 16.5957 0.914978 16.5907C0.3451 16.5857 -0.0448154 16.1461 0.0101727 15.6016C0.0601619 15.1419 0.445079 14.8372 0.99496 14.8322C1.80479 14.8322 2.61961 14.8322 3.42944 14.8322C3.51442 14.8322 3.5994 14.8322 3.68938 14.8322V12.8889C3.5894 12.8889 3.50442 12.8889 3.41944 12.8889C2.59961 12.8889 1.77979 12.8889 0.959968 12.8889C0.375094 12.8889 -0.00982299 12.5092 0.00517378 11.9697C0.0201705 11.4801 0.410086 11.1304 0.969966 11.1254C1.79979 11.1254 2.62461 11.1254 3.45443 11.1254C3.53441 11.1254 3.61939 11.1254 3.69938 11.1254V9.18208C3.5994 9.18208 3.51442 9.18208 3.42944 9.18208C2.62461 9.18208 1.81978 9.19707 1.01496 9.17209C0.790004 9.1671 0.545057 9.10215 0.355098 8.98725C0.0351673 8.79742 -0.0698101 8.39277 0.0451652 8.03807C0.165139 7.66339 0.480071 7.4286 0.894982 7.4236C1.7448 7.4186 2.59961 7.4236 3.44943 7.4236C3.52941 7.4236 3.6144 7.4236 3.70938 7.4236C3.70938 6.4944 3.70938 5.59518 3.70938 4.70095C3.70938 4.07149 4.0643 3.72179 4.69916 3.72179C5.51898 3.72179 6.33881 3.72179 7.15863 3.72179C7.23861 3.72179 7.3236 3.72179 7.41358 3.72179C7.41358 2.84255 7.43357 1.99828 7.40858 1.159C7.39358 0.624462 7.56354 0.239793 8.06844 0.0249785L8.05344 0ZM5.454 18.514C5.55398 18.514 5.62896 18.524 5.70395 18.524C9.89804 18.524 14.0921 18.524 18.2812 18.524C18.4712 18.524 18.5312 18.4791 18.5312 18.2792C18.5262 14.0829 18.5262 9.88148 18.5312 5.6851C18.5312 5.48527 18.4712 5.44031 18.2812 5.44031C14.0871 5.44031 9.89304 5.44031 5.70395 5.44031C5.62396 5.44031 5.53898 5.4503 5.454 5.4553V18.504V18.514Z" fill="black" fill-opacity="0.87"/>
<path d="M16.5768 12.0098C16.5768 13.1888 16.5768 14.3678 16.5768 15.5468C16.5768 16.2212 16.2269 16.5709 15.557 16.5709C13.1776 16.5709 10.7931 16.5709 8.41359 16.5709C7.75873 16.5709 7.40381 16.2162 7.40381 15.5568C7.40381 13.1788 7.40381 10.7959 7.40381 8.41793C7.40381 7.7585 7.75873 7.40381 8.41359 7.40381C10.8031 7.40381 13.1926 7.40381 15.582 7.40381C16.2219 7.40381 16.5768 7.7635 16.5818 8.40794C16.5818 9.61191 16.5818 10.8109 16.5818 12.0148L16.5768 12.0098ZM9.17843 9.17728V14.7974H14.7972V9.17728H9.17843Z" fill="black" fill-opacity="0.87"/>
<path d="M45.8098 50.3957V52.9566H50.973C50.973 52.7401 50.9665 52.516 50.973 52.293C51.0075 51.2565 51.8229 50.4323 52.8593 50.4108C53.7189 50.3936 54.5796 50.4 55.4403 50.4076C56.593 50.4173 57.4085 51.2414 57.4225 52.4007C57.4246 52.5752 57.4225 52.7498 57.4225 52.9879C57.6433 52.9879 57.8512 52.9846 58.0602 52.9879C59.1601 53.0094 60.01 53.8648 60.0025 54.94C59.9949 55.9948 59.1471 56.8351 58.0656 56.8588C57.8663 56.8631 57.6681 56.8588 57.4225 56.8588C57.4225 57.0603 57.4235 57.2305 57.4225 57.4007C57.4128 58.6117 56.6038 59.4326 55.4037 59.4402C54.5969 59.4456 53.7911 59.4456 52.9842 59.4402C51.8025 59.4316 50.9827 58.6138 50.9698 57.4374C50.9676 57.2639 50.9698 57.0905 50.9698 56.8879H45.8249V59.4197H44.5278V62H35.5027V59.4499H34.2057V56.889H29.0285C29.0285 57.1066 29.0349 57.3307 29.0274 57.5537C28.9918 58.5901 28.1764 59.4132 27.139 59.4348C26.2793 59.4531 25.4186 59.4456 24.5579 59.438C23.4074 59.4273 22.5908 58.5998 22.5779 57.4428C22.5758 57.2682 22.5779 57.0948 22.5779 56.8577C22.3549 56.8577 22.147 56.861 21.938 56.8577C20.8414 56.8362 19.9914 55.9797 20.0001 54.9045C20.0087 53.8497 20.8565 53.0105 21.938 52.9889C22.1362 52.9846 22.3355 52.9889 22.579 52.9889C22.579 52.7864 22.579 52.6162 22.579 52.4459C22.5876 51.235 23.3966 50.4151 24.5977 50.4076C25.4046 50.4022 26.2104 50.4022 27.0172 50.4076C28.2001 50.4151 29.0177 51.2307 29.0317 52.4104C29.0338 52.5838 29.0317 52.7573 29.0317 52.9598H34.1766V50.428H36.7641V47.8402H38.0342V33.633H36.7889V31.0592H34.2014V28.48H29.0317C29.0317 28.6588 29.0328 28.8398 29.0317 29.0219C29.0198 30.2059 28.2065 31.0301 27.0323 31.0398C26.2125 31.0463 25.3928 31.0463 24.573 31.0398C23.4171 31.0301 22.5962 30.2081 22.5811 29.0553C22.579 28.87 22.5811 28.6858 22.5811 28.452C21.7474 28.5134 20.9857 28.4229 20.4385 27.742C20.1304 27.3617 19.9828 26.9253 20.0022 26.4351C20.0475 25.2738 20.7972 24.7189 22.5811 24.5584C22.5811 24.3548 22.5768 24.1447 22.5811 23.9357C22.6059 22.8529 23.4246 22.0244 24.5062 22.0083C25.3529 21.9953 26.1996 21.9996 27.0463 22.0072C28.2001 22.0169 29.0166 22.8389 29.0317 23.9971C29.0338 24.1716 29.0317 24.3461 29.0317 24.5541H34.182V22.0277H45.7882V24.5595H50.9708C50.9708 24.3698 50.9687 24.1856 50.9708 24.0014C50.9838 22.8432 51.8003 22.0169 52.9508 22.0061C53.7706 21.9986 54.5904 21.9996 55.4102 22.0061C56.593 22.0136 57.4085 22.8303 57.4225 24.0111C57.4246 24.1845 57.4225 24.358 57.4225 24.5875C57.639 24.5875 57.835 24.5853 58.03 24.5875C59.1396 24.6036 59.996 25.4397 60.0014 26.5106C60.0079 27.5987 59.145 28.4444 58.0139 28.4595C57.8297 28.4617 57.6444 28.4595 57.4203 28.4595C57.4203 28.7224 57.4278 28.9486 57.4192 29.1727C57.3794 30.1887 56.5714 31.0107 55.5545 31.0355C54.6539 31.057 53.7534 31.056 52.8528 31.0355C51.8165 31.0139 51.0042 30.1844 50.9719 29.1469C50.9655 28.9346 50.9719 28.7213 50.9719 28.4843H45.8184V31.028H43.2448V33.6018H41.964V47.8079H43.2061V50.3957H45.8076H45.8098ZM23.8706 26.5138C23.8706 27.3207 23.8685 28.1277 23.8706 28.9336C23.8728 29.5186 24.0947 29.7459 24.6667 29.7491C25.4197 29.7534 26.1716 29.7524 26.9246 29.7491C27.5085 29.747 27.739 29.524 27.7401 28.9519C27.7433 27.338 27.7433 25.7252 27.7401 24.1113C27.7401 23.5263 27.516 23.2989 26.9429 23.2957C26.1899 23.2914 25.438 23.2925 24.685 23.2957C24.0882 23.2979 23.8717 23.522 23.8695 24.1328C23.8674 24.9258 23.8695 25.7198 23.8695 26.5127L23.8706 26.5138ZM52.2614 26.5192C52.2614 27.3391 52.2571 28.16 52.2625 28.9799C52.2657 29.5089 52.4984 29.7448 53.023 29.7491C53.8029 29.7545 54.5818 29.7545 55.3617 29.7491C55.8895 29.7459 56.1287 29.5121 56.1298 28.9874C56.1341 27.3466 56.1341 25.7069 56.1298 24.066C56.1287 23.537 55.8928 23.3011 55.3682 23.2968C54.6022 23.2914 53.8363 23.2925 53.0704 23.2968C52.4887 23.2989 52.2635 23.522 52.2614 24.0994C52.2582 24.9064 52.2614 25.7133 52.2614 26.5192ZM23.8706 54.9249C23.8706 55.7448 23.8663 56.5658 23.8717 57.3857C23.8749 57.9125 24.1098 58.1473 24.6365 58.1506C25.4165 58.156 26.1953 58.156 26.9752 58.1506C27.5009 58.1473 27.739 57.9114 27.7401 57.3846C27.7444 55.7437 27.7444 54.104 27.7401 52.4632C27.739 51.9363 27.502 51.7026 26.9741 51.6982C26.1942 51.6929 25.4154 51.6929 24.6354 51.6982C24.1087 51.7015 23.8749 51.9363 23.8717 52.4643C23.8663 53.2841 23.8706 54.1051 23.8706 54.9249ZM56.133 54.9249C56.133 54.1051 56.1373 53.2841 56.1319 52.4643C56.1287 51.9374 55.8939 51.7026 55.3671 51.6993C54.5872 51.6939 53.8083 51.6939 53.0284 51.6993C52.5016 51.7026 52.2646 51.9374 52.2635 52.4643C52.2592 54.1051 52.2592 55.7448 52.2635 57.3857C52.2646 57.9125 52.5016 58.1473 53.0284 58.1517C53.7943 58.157 54.5602 58.156 55.3272 58.1517C55.9057 58.1495 56.1309 57.9233 56.133 57.3447C56.1362 56.5378 56.133 55.7308 56.133 54.9249ZM38.0838 32.3035H41.9058V27.1904H38.0838V32.3046V32.3035ZM38.0935 49.133V54.2462H41.9155V49.133H38.0935ZM39.384 33.6416V47.7907H40.625V33.6416H39.384ZM35.5145 23.3151V29.7308H36.7803V25.8631H38.0461V23.3151H35.5135H35.5145ZM44.4901 29.7308V23.3151H41.9619V25.8922H43.2373V29.7308H44.4901ZM36.7631 55.566V51.723H35.5167V58.1301H38.0407V55.566H36.7631ZM43.2168 51.7058V55.5918H41.9619V58.1236H44.4869V51.7069H43.2168V51.7058ZM36.7954 60.7061H43.1964V59.4639H36.7954V60.7061ZM29.0597 25.8965V27.1387H34.1734V25.8965H29.0597ZM50.9525 25.9051H45.841V27.1473H50.9525V25.9051ZM34.1755 54.3065H29.064V55.5487H34.1755V54.3065ZM50.9525 54.3065H45.841V55.5477H50.9525V54.3065ZM40.6282 23.3183H39.3829V25.8469H40.6282V23.3183ZM40.6185 58.1333V55.6015H39.3786V58.1333H40.6185ZM22.5639 25.8706C22.1125 25.9137 21.6192 25.7262 21.3876 26.2294C21.3046 26.4104 21.3262 26.726 21.4339 26.892C21.7075 27.31 22.1556 27.1581 22.5639 27.1462V25.8717V25.8706ZM57.4548 25.8922V27.1365C58.308 27.2346 58.7001 27.0439 58.7098 26.5353C58.7195 26.0344 58.3618 25.8458 57.4548 25.8922ZM22.5564 55.5541V54.3109C21.6924 54.2171 21.3014 54.4089 21.2928 54.9153C21.2841 55.4151 21.6472 55.6048 22.5564 55.5552V55.5541ZM57.4451 55.5606C57.8663 55.5498 58.3317 55.7147 58.5837 55.2708C58.6861 55.0909 58.685 54.7547 58.5816 54.5748C58.3274 54.1331 57.8641 54.3001 57.4451 54.2904V55.5606Z" fill="black"/>
</g>
<defs>
<clipPath id="clip0_4334_51752">
<rect width="60" height="60" fill="white"/>
</clipPath>
</defs>
</svg>
