<svg width="38" height="50" viewBox="0 0 38 50"  xmlns="http://www.w3.org/2000/svg">
<path d="M10.215 49.9998C9.675 49.6798 9.155 49.3398 9.115 48.6398C9.105 48.3298 9.135 47.9898 9.245 47.6998C11.525 41.2698 13.815 34.8298 16.115 28.4098C16.515 27.2798 17.405 26.8098 18.325 27.2098C19.145 27.5598 19.475 28.4098 19.135 29.3798C18.465 31.2898 17.775 33.1998 17.095 35.1098C16.405 37.0498 15.705 38.9898 15.015 40.9298C14.965 41.0798 14.925 41.2298 14.965 41.4298L31.985 22.9398H31.375C27.745 22.9398 24.125 22.9398 20.495 22.9398C19.555 22.9398 18.885 22.4698 18.765 21.6298C18.715 21.2498 18.805 20.8198 18.935 20.4498C20.265 16.6698 21.625 12.8998 22.965 9.12983C23.025 8.96983 23.065 8.79983 23.035 8.58983L6.025 27.0598C6.285 27.0598 6.435 27.0598 6.585 27.0598C8.015 27.0598 9.445 27.0598 10.875 27.0598C11.665 27.0598 12.325 27.6098 12.455 28.3298C12.595 29.0698 12.225 29.7998 11.525 30.0798C11.265 30.1898 10.955 30.2398 10.675 30.2398C8.005 30.2498 5.345 30.2398 2.675 30.2398C1.925 30.2398 1.275 30.0098 0.964999 29.2798C0.654999 28.5498 0.894999 27.9298 1.415 27.3698C7.015 21.2998 12.615 15.2198 18.215 9.13983C20.795 6.33983 23.375 3.53983 25.945 0.73983C26.435 0.20983 26.985 -0.15017 27.745 0.0598296C28.525 0.26983 29.215 1.08983 28.755 2.36983C27.555 5.68983 26.375 9.02983 25.185 12.3598C24.365 14.6698 23.545 16.9698 22.715 19.2798C22.665 19.4098 22.635 19.5498 22.575 19.7598H23.195C27.175 19.7598 31.165 19.7598 35.145 19.7598C35.485 19.7598 35.835 19.7798 36.155 19.8898C37.185 20.2498 37.505 21.5098 36.795 22.3798C36.255 23.0298 35.665 23.6398 35.095 24.2598C27.415 32.5998 19.735 40.9398 12.045 49.2698C11.775 49.5598 11.425 49.7598 11.105 50.0098H10.225L10.215 49.9998Z" />
</svg>
