<?xml version="1.0" encoding="UTF-8"?><svg id="uuid-4e0c47a9-6ec3-4fcb-bb2f-fd1257af481d" xmlns="http://www.w3.org/2000/svg" viewBox="0 0 354.58 78.4"><defs><style>.uuid-f845c166-5b1c-4186-b907-79f05ef4f418{fill:#fff;}</style></defs><g id="uuid-0393d77e-2a17-488c-b44f-5ce69751001b"><g><path class="uuid-f845c166-5b1c-4186-b907-79f05ef4f418" d="m270.02,0h-68.32c-1.46.01-2.43,1.54-1.81,2.86l5.45,11.69c.33.7,1.04,1.16,1.81,1.16h21.44v60.68c0,1.11.9,2,2,2h10.54c1.1,0,2-.9,2-2V15.71h21.44c.78-.01,1.48-.47,1.81-1.17l5.45-11.69c.62-1.33-.35-2.85-1.81-2.85h0Z"/><path class="uuid-f845c166-5b1c-4186-b907-79f05ef4f418" d="m352.89,14.38c-1.13-2.86-2.65-5.34-4.56-7.45-1.91-2.11-4.17-3.78-6.77-5.02-2.6-1.24-5.36-1.86-8.3-1.86h-35.5c-2.94,0-5.7.62-8.3,1.86-2.6,1.24-4.85,2.92-6.77,5.02-1.91,2.11-3.43,4.59-4.56,7.45-1.13,2.86-1.69,5.91-1.69,9.14v31.39c0,3.24.56,6.29,1.69,9.15s2.65,5.35,4.56,7.45c1.91,2.11,4.17,3.78,6.77,5.02,2.6,1.24,5.36,1.86,8.3,1.86h35.5c2.94,0,5.7-.62,8.3-1.86,2.6-1.24,4.85-2.92,6.77-5.02,1.91-2.11,3.43-4.59,4.56-7.45,1.13-2.86,1.69-5.91,1.69-9.15v-31.39c0-3.24-.57-6.28-1.69-9.14Zm-12.56,40.53c0,2.18-.68,4.03-2.05,5.53-1.37,1.51-3.04,2.26-5.02,2.26h-35.5c-1.98,0-3.66-.75-5.02-2.26-1.37-1.5-2.05-3.35-2.05-5.53v-31.39c0-2.18.68-4.03,2.05-5.53s3.04-2.26,5.02-2.26h35.5c1.98,0,3.65.75,5.02,2.26s2.05,3.35,2.05,5.53v31.39h0Z"/><path class="uuid-f845c166-5b1c-4186-b907-79f05ef4f418" d="m188.98,6.93c-1.95-2.11-4.25-3.78-6.9-5.02S176.6.05,173.61.05h-53.47c-1.46,0-2.43,1.51-1.82,2.84l5.38,11.69c.33.71,1.04,1.16,1.82,1.16h48.09c2.02,0,3.73.75,5.13,2.26,1.39,1.51,2.09,3.35,2.09,5.53s-.7,4.05-2.09,5.59c-1.4,1.54-3.1,2.31-5.13,2.31h-34.83c-3,0-5.82.62-8.47,1.86-2.65,1.24-4.95,2.92-6.9,5.02-1.95,2.11-3.5,4.59-4.65,7.45-1.15,2.86-1.73,5.91-1.73,9.15v21.48c0,1.11.9,2,2,2h10.54c1.1,0,2-.9,2-2v-21.48c0-2.18.7-4.03,2.09-5.53s3.1-2.26,5.13-2.26h15.59c.65,0,1.27.32,1.64.86l20.56,29.56c.37.54.99.86,1.64.86h13.33c1.62,0,2.56-1.82,1.64-3.15l-19.57-28.13c3,0,5.82-.62,8.47-1.86s4.95-2.94,6.9-5.08c1.95-2.15,3.5-4.65,4.65-7.51,1.15-2.86,1.73-5.91,1.73-9.15s-.58-6.28-1.73-9.15c-1.15-2.86-2.7-5.34-4.65-7.45h0Z"/><path class="uuid-f845c166-5b1c-4186-b907-79f05ef4f418" d="m91.3.02h10.54c1.11,0,2,.9,2,2v74.37c0,1.11-.9,2-2,2h-10.54c-1.1,0-2-.9-2-2V2.01c0-1.1.9-2,2-2h0Z"/><path class="uuid-f845c166-5b1c-4186-b907-79f05ef4f418" d="m73.97.02h-10.64c-1.11,0-2.02.83-2.02,1.85v12.63c0,5.31-.3,9.96-.9,13.98-.05.33-.1.68-.15,1.01-.7,4.23-1.94,8.08-3.69,11.54-1.77,3.48-4.16,6.78-7.19,9.9-2.58,2.67-4.37,5.07-9.07,7.71-.55.31-1.14.5-1.75.58-.19.03-.38.04-.56.04-.19,0-.38-.01-.57-.04-.61-.08-1.2-.27-1.75-.58-4.7-2.64-6.49-5.04-9.07-7.71-3.03-3.12-5.42-6.42-7.19-9.9-1.75-3.46-2.99-7.31-3.69-11.54-.05-.33-.1-.68-.15-1.01-.6-4.02-.9-8.67-.9-13.98V1.87C14.68.85,13.77.02,12.66.02H2.02C.9.02,0,.85,0,1.87v8.98c0,7.29.35,13.73,1.05,19.31.7,5.59,2.12,10.74,4.24,15.46,2.11,4.72,5.09,9.2,8.93,13.43,2.18,2.39,4.84,5.02,7.79,7.74,3.35,3.09,6.92,5.94,10.62,8.59l3.06,2.19c1.43,1.1,3.17,1.1,4.61,0l3.06-2.19c3.7-2.65,7.27-5.5,10.62-8.59,2.95-2.72,5.61-5.35,7.79-7.74,3.84-4.23,6.82-8.71,8.93-13.43,2.12-4.72,3.54-9.87,4.24-15.46.7-5.58,1.05-12.02,1.05-19.31V1.87c0-1.02-.9-1.85-2.02-1.85Z"/></g></g></svg>