<?xml version="1.0" encoding="UTF-8" standalone="no"?>
<!-- Created with Inkscape (http://www.inkscape.org/) -->
<svg
   xmlns:svg="http://www.w3.org/2000/svg"
   xmlns="http://www.w3.org/2000/svg"
   version="1.0"
   width="970"
   height="250"
   id="svg1961">
  <defs
     id="defs1963" />
  <path
     d="M 37.339097,3.5975225 L 933.88617,3.8492364 C 947.56056,3.8492364 967.44957,17.377314 967.44957,36.597442 L 967.44957,215.60988 C 967.44957,227.85056 949.04145,246.66768 936.58344,246.66768 L 33.815103,246.91939 C 20.978407,246.91939 3.3323222,225.02178 3.3323222,212.54082 L 3.0806083,38.167767 C 3.0806083,18.716976 24.885924,3.5975225 37.339097,3.5975225 z "
     style="fill:white;fill-opacity:1;fill-rule:evenodd;stroke:black;stroke-width:1px;stroke-linecap:butt;stroke-linejoin:miter;stroke-opacity:1"
     id="path20867" />
  <path
     d="M -383.15951,327.05217 L -385.24892,327.05217 M -385.24892,327.05217 L -389.84563,326.21641 M -389.84563,326.21641 L -394.44234,324.96276 M -394.44234,324.96276 L -399.03905,323.29123 M -399.03905,323.29123 L -403.21787,321.20182 M -403.21787,321.20182 L -406.97882,318.69452 M -406.97882,318.69452 L -410.73976,315.35146 M -410.73976,315.35146 L -413.66494,312.0084 M -413.66494,312.0084 L -416.17223,308.24745 M -416.17223,308.24745 L -418.67953,304.06863 M -418.67953,304.06863 L -420.35106,299.47192 M -420.35106,299.47192 L -421.18682,294.87521 M -421.18682,294.87521 L -422.02259,290.2785 M -422.02259,290.2785 L -422.02259,287.77121 L -422.02259,-219.12041 L -422.02259,-221.20982 M -422.02259,-221.20982 L -421.18682,-225.80653 M -421.18682,-225.80653 L -420.35106,-230.40324 M -420.35106,-230.40324 L -418.67953,-234.99995 M -418.67953,-234.99995 L -416.17223,-239.17877 M -416.17223,-239.17877 L -413.66494,-242.93972 M -413.66494,-242.93972 L -410.73976,-246.70066 M -410.73976,-246.70066 L -406.97882,-249.62584 M -406.97882,-249.62584 L -403.21787,-252.13313 M -403.21787,-252.13313 L -399.03905,-254.64043 M -399.03905,-254.64043 L -394.44234,-256.31196 M -394.44234,-256.31196 L -389.84563,-257.14772 L -385.24892,-257.98349 M -385.24892,-257.98349 L -383.15951,-257.98349 L 123.73211,-257.98349 L 126.2394,-257.98349 M 126.2394,-257.98349 L 130.83611,-257.14772 L 135.43282,-256.31196 M 135.43282,-256.31196 L 140.02953,-254.64043 M 140.02953,-254.64043 L 144.20835,-252.13313 M 144.20835,-252.13313 L 147.9693,-249.62584 M 147.9693,-249.62584 L 151.31236,-246.70066 M 151.31236,-246.70066 L 154.65542,-242.93972 M 154.65542,-242.93972 L 157.16272,-239.17877 M 157.16272,-239.17877 L 159.25213,-234.99995 M 159.25213,-234.99995 L 160.92366,-230.40324 M 160.92366,-230.40324 L 162.17731,-225.80653 M 162.17731,-225.80653 L 163.01307,-221.20982 M 163.01307,-221.20982 L 163.01307,-219.12041 L 163.01307,287.77121 L 163.01307,290.2785 M 163.01307,290.2785 L 162.17731,294.87521 M 162.17731,294.87521 L 160.92366,299.47192 M 160.92366,299.47192 L 159.25213,304.06863 M 159.25213,304.06863 L 157.16272,308.24745 M 157.16272,308.24745 L 154.65542,312.0084 M 154.65542,312.0084 L 151.31236,315.35146 L 147.9693,318.69452 M 147.9693,318.69452 L 144.20835,321.20182 M 144.20835,321.20182 L 140.02953,323.29123 M 140.02953,323.29123 L 135.43282,324.96276 M 135.43282,324.96276 L 130.83611,326.21641 M 130.83611,326.21641 L 126.2394,327.05217 M 126.2394,327.05217 L 123.73211,327.05217 M 123.73211,327.05217 L -383.15951,327.05217"
     id="path48" />
  <path
     d="M 905.68493,4.3395527 L 905.77144,246.16704 L 937.9264,246.22548 C 951.08228,243.82909 965.43032,229.1181 967.04528,216.35797 L 966.95663,34.096388 C 966.01891,19.148246 949.53087,5.1459739 935.07956,4.3609674 L 905.68493,4.3395527 z "
     style="fill:#c00;fill-opacity:1;fill-rule:evenodd;stroke:none;stroke-width:1px;stroke-linecap:butt;stroke-linejoin:miter;stroke-opacity:1"
     id="path20869" />
  <path
     d="M 184.03125,246.42433 L 305.07179,246.39705 L 304.99487,4.1710083 L 183.98964,4.1525898 L 184.03125,246.42433 z "
     style="fill:#c00;fill-opacity:1;fill-rule:evenodd;stroke:none;stroke-width:1px;stroke-linecap:butt;stroke-linejoin:miter;stroke-opacity:1"
     id="path20873" />
  <path
     d="M 64.178664,4.1346863 L 64.202188,246.4918 L 32.743029,246.50743 C 22.742845,245.71101 5.6304838,228.75464 3.9380954,213.54495 L 3.3720222,35.825938 C 6.1594854,18.889979 21.603556,5.9071727 35.969804,4.088464 L 64.178664,4.1346863 z "
     style="fill:#c00;fill-opacity:1;fill-rule:evenodd;stroke:none;stroke-width:1px;stroke-linecap:butt;stroke-linejoin:miter;stroke-opacity:1"
     id="path20871" />
  <path
     d="M 424.04668,246.31534 L 545.96502,246.26324 L 545.96502,4.2487415 L 423.99621,4.1941861 L 424.04668,246.31534 z "
     style="fill:#c00;fill-opacity:1;fill-rule:evenodd;stroke:none;stroke-width:1px;stroke-linecap:butt;stroke-linejoin:miter;stroke-opacity:1"
     id="path20875" />
  <path
     d="M 665.04788,246.24969 L 786.04869,246.19759 L 785.99659,4.3215067 L 664.97184,4.2855518 L 665.04788,246.24969 z "
     style="fill:#c00;fill-opacity:1;fill-rule:evenodd;stroke:none;stroke-width:1px;stroke-linecap:butt;stroke-linejoin:miter;stroke-opacity:1"
     id="path20877" />
</svg>
