<?xml version="1.0" encoding="UTF-8" standalone="no"?>
<svg
   xmlns:dc="http://purl.org/dc/elements/1.1/"
   xmlns:cc="http://creativecommons.org/ns#"
   xmlns:rdf="http://www.w3.org/1999/02/22-rdf-syntax-ns#"
   xmlns:svg="http://www.w3.org/2000/svg"
   xmlns="http://www.w3.org/2000/svg"
   viewBox="0 0 600.99646 600.9953"
   height="600.9953"
   width="600.99646"
   xml:space="preserve"
   version="1.1"
   id="svg5220"><metadata
     id="metadata5226"><rdf:RDF><cc:Work
         rdf:about=""><dc:format>image/svg+xml</dc:format><dc:type
           rdf:resource="http://purl.org/dc/dcmitype/StillImage" /><dc:title></dc:title></cc:Work></rdf:RDF></metadata><defs
     id="defs5224" /><g
     transform="matrix(1.25,0,0,-1.25,0,600.99533)"
     id="g5228"><g
       id="g5230"><path
         id="path5232"
         style="fill:#ffff00;fill-opacity:1;fill-rule:evenodd;stroke:none"
         d="M 70.977,409.831 C 39.793,378.624 20.387,345.035 8.957,302.398 c -11.41,-42.574 -11.41,-81.426 0,-124 11.43,-42.637 30.836,-76.227 62.02,-107.43 31.203,-31.187 64.796,-50.59 107.41,-62.004 42.597,-11.429 81.426,-11.41 124.023,-0.019 42.613,11.433 76.223,30.836 107.43,62.023 31.183,31.203 50.59,64.813 62,107.41 11.41,42.614 11.41,81.426 0,124.039 -11.41,42.598 -30.817,76.207 -62,107.414 -31.207,31.184 -64.817,50.59 -107.43,62.02 -42.597,11.391 -81.426,11.41 -124.023,-0.02 -42.614,-11.41 -76.207,-30.816 -107.41,-62 z" /><path
         id="path5234"
         style="fill:#ffffff;fill-opacity:1;fill-rule:evenodd;stroke:none"
         d="M 70.977,409.831 C 39.793,378.624 20.387,345.035 8.957,302.398 c -11.41,-42.574 -11.41,-81.426 0,-124 11.43,-42.637 30.836,-76.227 62.02,-107.43 31.203,-31.187 64.796,-50.59 107.41,-62.004 42.597,-11.429 81.426,-11.41 124.023,-0.019 42.613,11.433 76.223,30.836 107.43,62.023 31.183,31.203 50.59,64.813 62,107.41 11.41,42.614 11.41,81.426 0,124.039 -11.41,42.598 -30.817,76.207 -62,107.414 -31.207,31.184 -64.817,50.59 -107.43,62.02 -42.597,11.391 -81.426,11.41 -124.023,-0.02 -42.614,-11.41 -76.207,-30.816 -107.41,-62 z" /><path
         id="path5236"
         style="fill:#154889;fill-opacity:1;fill-rule:evenodd;stroke:none"
         d="M 76.613,404.191 C 46.469,374.031 27.699,341.535 16.68,300.351 5.637,259.167 5.637,221.628 16.68,180.445 c 11.019,-41.18 29.789,-73.68 59.933,-103.84 30.16,-30.141 62.66,-48.895 103.84,-59.934 41.184,-11.039 78.707,-11.019 119.887,0 41.183,11.039 73.683,29.793 103.844,59.953 30.164,30.161 48.914,62.641 59.933,103.821 11.043,41.203 11.043,78.703 0,119.906 -11.019,41.184 -29.769,73.66 -59.933,103.82 -30.161,30.164 -62.661,48.914 -103.844,59.953 -41.18,11.024 -78.703,11.043 -119.887,0 -41.18,-11.039 -73.68,-29.789 -103.84,-59.933 z" /><path
         id="path5238"
         style="fill:#ffffff;fill-opacity:1;fill-rule:evenodd;stroke:none"
         d="m 252.648,163.902 0,152.629 c 0,17.285 5.477,30.914 16.434,40.898 11.195,9.981 24.219,14.969 39.07,14.969 14.848,0 27.75,-4.988 38.703,-14.969 11.2,-9.984 16.797,-23.613 16.797,-40.898 l 0,-152.629 c 0,-17.285 -5.597,-30.918 -16.797,-40.899 -10.953,-9.734 -23.855,-14.605 -38.703,-14.605 -14.851,0 -27.875,4.871 -39.07,14.605 -10.957,9.981 -16.434,23.614 -16.434,40.899 m 37.247,152.629 0,-152.629 c 0,-5.356 1.703,-9.86 5.113,-13.512 3.406,-3.406 7.789,-5.113 13.144,-5.113 5.356,0 9.739,1.707 13.145,5.113 3.406,3.652 5.113,8.156 5.113,13.512 l 0,152.629 c 0,5.355 -1.707,9.738 -5.113,13.144 -3.406,3.653 -7.789,5.477 -13.145,5.477 -5.355,0 -9.738,-1.824 -13.144,-5.477 -3.41,-3.406 -5.113,-7.789 -5.113,-13.144" /><path
         id="path5240"
         style="fill:#ffffff;fill-opacity:1;fill-rule:evenodd;stroke:none"
         d="m 172.645,372.398 c -14.848,0 -27.872,-4.988 -39.071,-14.969 -10.953,-9.98 -16.433,-23.613 -16.433,-40.898 l 0,-20.809 37.246,0 0,20.809 c 0,5.359 1.707,9.738 5.117,13.148 3.406,3.649 7.785,5.473 13.141,5.477 5.359,-0.004 9.738,-1.828 13.144,-5.477 3.41,-3.41 5.113,-7.789 5.113,-13.148 l 0,-35.207 c 0,0 -0.015,-18.512 -15.648,-18.465 -0.859,0.035 -1.731,0.054 -2.609,0.054 l 0,-37.457 c 18.242,-0.046 18.257,-18.41 18.257,-18.41 l 0,-43.144 c 0,-5.356 -1.703,-9.86 -5.113,-13.512 -3.406,-3.406 -7.785,-5.109 -13.144,-5.109 -5.356,0 -9.735,1.703 -13.141,5.109 -3.41,3.652 -5.117,8.156 -5.117,13.512 l 0,20.812 -37.246,0 0,-20.812 c 0,-17.285 5.48,-30.914 16.433,-40.899 11.199,-9.734 24.223,-14.605 39.071,-14.605 14.851,0 27.75,4.871 38.707,14.605 11.199,9.985 16.796,23.614 16.796,40.899 l 0,43.144 c 0,0 -0.113,18.742 -13.476,37.137 13.777,18.816 13.476,37.141 13.476,37.141 l 0,35.207 c 0,17.285 -5.597,30.918 -16.796,40.898 -10.957,9.981 -23.856,14.969 -38.707,14.969 z" /><path
         id="path5242"
         style="fill:#000000;fill-opacity:1;fill-rule:evenodd;stroke:none"
         d="m 240.398,480.796 c -20.394,0 -40.789,-2.855 -62.113,-8.578 -42.668,-11.426 -76.332,-30.871 -107.574,-62.09 -0.008,-0.004 -0.012,-0.011 -0.02,-0.015 C 39.465,378.867 20.016,345.195 8.57,302.503 -2.855,259.867 -2.855,220.929 8.57,178.292 20.016,135.601 39.465,101.929 70.691,70.683 101.941,39.456 135.609,20.007 178.285,8.578 220.938,-2.868 259.859,-2.848 302.512,8.562 c 42.676,11.445 76.363,30.894 107.609,62.121 31.227,31.25 50.68,64.937 62.106,107.59 11.425,42.676 11.425,81.578 0,124.25 -11.426,42.652 -30.879,76.34 -62.106,107.59 -31.246,31.226 -64.933,50.679 -107.609,62.125 -21.328,5.703 -41.719,8.558 -62.114,8.558 z m 0,-0.398 c 20.356,0 40.711,-2.852 62.012,-8.547 42.613,-11.43 76.223,-30.836 107.43,-62.023 31.183,-31.204 50.59,-64.813 62,-107.407 11.41,-42.617 11.41,-81.429 0,-124.043 -11.41,-42.597 -30.817,-76.207 -62,-107.41 C 378.633,39.781 345.023,20.374 302.41,8.945 259.813,-2.446 220.984,-2.462 178.387,8.968 c -42.614,11.41 -76.207,30.813 -107.41,62 -31.184,31.203 -50.59,64.797 -62.02,107.43 -11.41,42.574 -11.41,81.426 0,124 11.43,42.637 30.836,76.226 62.02,107.43 31.203,31.187 64.796,50.593 107.41,62.003 21.297,5.715 41.656,8.567 62.011,8.567 z" /></g></g></svg>