<?xml version="1.0" encoding="UTF-8" standalone="no"?>
<svg
   xmlns:dc="http://purl.org/dc/elements/1.1/"
   xmlns:cc="http://creativecommons.org/ns#"
   xmlns:rdf="http://www.w3.org/1999/02/22-rdf-syntax-ns#"
   xmlns:svg="http://www.w3.org/2000/svg"
   xmlns="http://www.w3.org/2000/svg"
   viewBox="0 0 601.00201 601.00195"
   height="601.00195"
   width="601.00201"
   xml:space="preserve"
   version="1.1"
   id="svg5152"><metadata
     id="metadata5158"><rdf:RDF><cc:Work
         rdf:about=""><dc:format>image/svg+xml</dc:format><dc:type
           rdf:resource="http://purl.org/dc/dcmitype/StillImage" /><dc:title></dc:title></cc:Work></rdf:RDF></metadata><defs
     id="defs5156" /><g
     transform="matrix(1.25,0,0,-1.25,0,601.00197)"
     id="g5160"><g
       id="g5162"><path
         id="path5164"
         style="fill:#ffffff;fill-opacity:1;fill-rule:nonzero;stroke:none"
         d="m 480.402,240.403 c 0,-132.551 -107.453,-240 -240,-240 -132.55,0 -240,107.449 -240,240 0,132.547 107.45,240 240,240 132.547,0 240,-107.453 240,-240 z" /><path
         id="path5166"
         style="fill:#999999;fill-opacity:1;fill-rule:evenodd;stroke:none"
         d="m 240.062,145.059 -166.769,0 0,10.602 333.562,0 0,-10.602 -166.793,0 z" /><path
         id="path5168"
         style="fill:#999999;fill-opacity:1;fill-rule:evenodd;stroke:none"
         d="m 282.992,280.044 c 16.422,0.117 32.867,0.258 49.285,0.375 16.282,-0.071 32.563,-0.141 48.821,-0.211 l 10.906,-41.149 0,-0.093 c 0.262,0 0.519,0 0.777,-0.024 0.258,-0.023 0.492,-0.047 0.75,-0.07 l 0.75,-0.094 c 0.258,-0.047 0.492,-0.094 0.75,-0.117 0.235,-0.07 0.469,-0.117 0.727,-0.188 0.234,-0.07 0.492,-0.14 0.75,-0.21 0.238,-0.071 0.472,-0.141 0.707,-0.235 0.281,-0.094 0.515,-0.164 0.773,-0.281 0.188,-0.07 0.399,-0.164 0.61,-0.234 0.187,-0.094 0.398,-0.188 0.586,-0.262 0.187,-0.094 0.375,-0.211 0.562,-0.281 0.164,-0.118 0.352,-0.188 0.539,-0.305 0.164,-0.094 0.352,-0.211 0.52,-0.328 0.187,-0.094 0.351,-0.211 0.515,-0.328 0.164,-0.118 0.328,-0.211 0.492,-0.329 0.165,-0.117 0.329,-0.257 0.469,-0.375 l 0.024,0 0,-0.023 0.047,0 c 0,-0.023 0.046,-0.023 0.046,-0.047 l 0.071,-0.07 c 0,-0.024 0.023,-0.024 0.023,-0.047 l 0.047,-0.047 c 0.164,-0.141 0.352,-0.305 0.492,-0.469 0.188,-0.164 0.352,-0.304 0.516,-0.492 0.141,-0.164 0.305,-0.328 0.469,-0.515 0.14,-0.165 0.304,-0.375 0.468,-0.563 0.211,-0.262 0.422,-0.519 0.614,-0.801 0.187,-0.258 0.351,-0.562 0.539,-0.82 0.164,-0.281 0.328,-0.563 0.468,-0.844 0.118,-0.281 0.258,-0.562 0.399,-0.844 l 0.328,-0.89 c 0.094,-0.309 0.188,-0.613 0.258,-0.918 0.07,-0.328 0.117,-0.633 0.211,-0.938 0.023,-0.328 0.07,-0.656 0.117,-0.984 0.023,-0.281 0.047,-0.539 0.047,-0.797 0.023,-0.258 0.023,-0.492 0.047,-0.777 -0.024,-0.235 -0.024,-0.492 -0.024,-0.75 -0.047,-0.235 -0.07,-0.492 -0.07,-0.727 l -0.117,-0.75 c -0.071,-0.234 -0.117,-0.469 -0.141,-0.703 -0.094,-0.258 -0.14,-0.492 -0.211,-0.75 -0.07,-0.234 -0.164,-0.469 -0.258,-0.73 -0.023,-0.071 -0.023,-0.141 -0.046,-0.235 0,-0.047 0,-0.07 -0.024,-0.117 0,-0.047 -0.023,-0.07 -0.023,-0.117 -0.071,-0.235 -0.118,-0.492 -0.188,-0.727 l -0.211,-0.703 c -0.047,-0.117 -0.07,-0.234 -0.117,-0.328 l 0,-0.047 -0.023,0 0,-0.094 -0.024,0 0,-0.046 -0.023,0 0,-0.094 -0.047,-0.094 c -0.61,-2.09 -1.246,-4.199 -1.856,-6.289 -0.562,-2.086 -1.125,-4.199 -1.687,-6.285 -0.539,-2.09 -1.102,-4.199 -1.645,-6.289 -0.609,-2.11 -1.265,-4.199 -1.875,-6.309 0.586,0 1.149,-0.023 1.711,-0.047 l 1.528,-0.07 c 0.492,-0.023 0.984,-0.07 1.476,-0.094 0.586,0 1.149,-0.023 1.738,-0.023 0.024,-2.84 0.047,-5.629 0.094,-8.446 l -13.211,0 c -0.047,-5.535 -0.093,-11.121 -0.14,-16.679 0,-0.071 0.023,-0.141 0.047,-0.211 l 0,-0.117 0.023,-0.094 c 0,-0.352 0.023,-0.68 0.047,-1.031 0,-0.328 -0.024,-0.66 -0.047,-1.012 -0.047,-0.328 -0.094,-0.633 -0.141,-0.961 -0.093,-0.328 -0.164,-0.633 -0.257,-0.937 -0.094,-0.305 -0.211,-0.61 -0.329,-0.915 l -0.398,-0.867 c -0.188,-0.261 -0.328,-0.543 -0.516,-0.801 -0.187,-0.257 -0.375,-0.515 -0.586,-0.75 -0.211,-0.234 -0.421,-0.468 -0.656,-0.703 l -0.703,-0.632 c -0.281,-0.188 -0.539,-0.399 -0.824,-0.563 -0.281,-0.187 -0.539,-0.352 -0.844,-0.516 L 386,156.368 c -0.305,-0.121 -0.633,-0.238 -0.961,-0.355 -0.351,-0.094 -0.68,-0.165 -1.008,-0.235 -0.355,-0.07 -0.707,-0.117 -1.058,-0.187 -0.375,0 -0.727,-0.047 -1.078,-0.047 l -1.055,0.023 c -0.352,0.047 -0.68,0.094 -1.008,0.141 -0.352,0.07 -0.66,0.14 -1.012,0.211 -0.281,0.117 -0.609,0.211 -0.914,0.328 -0.304,0.121 -0.586,0.262 -0.89,0.402 -0.282,0.141 -0.563,0.305 -0.844,0.469 -0.258,0.164 -0.516,0.352 -0.774,0.539 -0.261,0.211 -0.496,0.398 -0.753,0.633 -0.211,0.211 -0.422,0.445 -0.633,0.656 l -0.586,0.774 c -0.188,0.257 -0.352,0.539 -0.539,0.82 -0.117,0.285 -0.282,0.566 -0.422,0.871 -0.094,0.305 -0.235,0.609 -0.328,0.914 -0.094,0.328 -0.188,0.656 -0.258,0.984 -0.047,0.329 -0.094,0.68 -0.164,1.008 l -0.024,0.328 0,0.309 c -0.023,0.094 0,0.211 -0.023,0.305 0,0.117 0.023,0.211 0.023,0.328 l -0.023,0.093 c 0.023,0.071 0,0.118 0.023,0.188 0,1.758 0.024,3.566 0.024,5.348 l 0,0.023 c 0.023,1.453 0.047,2.887 0.047,4.34 l 0.07,7.953 c -10.394,-1.055 -20.809,-2.137 -31.203,-3.191 0.023,-0.305 0.023,-0.633 0.047,-0.938 -0.047,-0.305 -0.071,-0.609 -0.071,-0.89 -0.046,-0.305 -0.093,-0.586 -0.14,-0.918 l -0.235,-0.844 c -0.093,-0.258 -0.21,-0.539 -0.304,-0.821 l -0.375,-0.773 c -0.141,-0.234 -0.281,-0.469 -0.446,-0.703 -0.187,-0.258 -0.328,-0.469 -0.515,-0.703 -0.188,-0.211 -0.375,-0.426 -0.563,-0.613 -0.234,-0.188 -0.445,-0.399 -0.656,-0.586 -0.234,-0.164 -0.469,-0.329 -0.683,-0.516 -0.258,-0.141 -0.516,-0.281 -0.774,-0.445 -0.258,-0.118 -0.516,-0.235 -0.797,-0.352 -0.281,-0.117 -0.539,-0.211 -0.82,-0.305 -0.328,-0.093 -0.609,-0.164 -0.914,-0.234 -0.305,-0.047 -0.61,-0.094 -0.942,-0.141 l -0.937,-0.046 c -0.328,0 -0.633,0.023 -0.938,0.023 -0.304,0.047 -0.609,0.07 -0.914,0.117 -0.281,0.094 -0.586,0.141 -0.867,0.211 -0.281,0.117 -0.566,0.211 -0.824,0.305 l -0.82,0.375 c -0.235,0.14 -0.493,0.304 -0.727,0.445 -0.258,0.164 -0.492,0.328 -0.703,0.492 -0.234,0.211 -0.445,0.399 -0.656,0.586 -0.188,0.235 -0.399,0.449 -0.586,0.637 -0.188,0.258 -0.352,0.492 -0.543,0.726 l -0.446,0.774 c -0.14,0.258 -0.257,0.516 -0.375,0.797 -0.117,0.281 -0.234,0.586 -0.328,0.867 -0.07,0.305 -0.164,0.586 -0.211,0.895 -0.07,0.328 -0.093,0.632 -0.164,0.937 -0.023,0.117 -0.023,0.258 -0.023,0.375 -0.024,0.094 0,0.211 -0.024,0.328 l 0,0.352 c -0.023,0.117 0,0.234 0,0.328 -10.296,1.101 -20.597,2.207 -30.871,3.285 -0.046,-5.535 -0.093,-11.051 -0.164,-16.563 0.024,-0.046 0.024,-0.093 0.047,-0.117 l 0,-0.093 c 0,-0.047 -0.023,-0.141 0,-0.188 0.024,-0.352 0,-0.727 0.024,-1.078 -0.024,-0.352 -0.047,-0.684 -0.047,-1.012 -0.047,-0.304 -0.047,-0.586 -0.094,-0.914 -0.07,-0.305 -0.164,-0.633 -0.234,-0.937 -0.118,-0.305 -0.211,-0.61 -0.352,-0.914 -0.117,-0.282 -0.258,-0.539 -0.398,-0.844 -0.164,-0.285 -0.352,-0.543 -0.496,-0.801 -0.211,-0.281 -0.399,-0.516 -0.586,-0.773 -0.235,-0.211 -0.422,-0.469 -0.657,-0.68 -0.257,-0.211 -0.492,-0.445 -0.726,-0.656 -0.258,-0.164 -0.516,-0.375 -0.797,-0.563 l -0.844,-0.492 -0.918,-0.426 -0.984,-0.328 c -0.328,-0.094 -0.656,-0.187 -1.008,-0.258 -0.352,-0.047 -0.703,-0.117 -1.055,-0.164 -0.375,-0.023 -0.726,-0.047 -1.082,-0.07 -0.328,0.023 -0.703,0.023 -1.031,0.047 l -1.031,0.117 -0.985,0.234 -0.937,0.305 c -0.285,0.141 -0.59,0.285 -0.871,0.402 -0.281,0.141 -0.586,0.328 -0.844,0.469 -0.281,0.164 -0.539,0.375 -0.797,0.539 -0.234,0.235 -0.469,0.422 -0.726,0.633 -0.211,0.234 -0.422,0.445 -0.633,0.703 -0.211,0.234 -0.399,0.492 -0.613,0.727 -0.165,0.281 -0.329,0.539 -0.516,0.82 -0.117,0.285 -0.258,0.59 -0.422,0.871 -0.094,0.305 -0.211,0.609 -0.328,0.914 -0.094,0.328 -0.188,0.656 -0.258,0.985 -0.047,0.328 -0.094,0.679 -0.164,1.031 l -0.023,0.398 c 0,0.141 -0.024,0.285 -0.024,0.426 -0.023,0.117 0,0.258 0,0.375 l 0,0.422 c 0.024,1.453 0.024,2.883 0.047,4.34 l 0,0.047 c -0.023,0.351 -0.047,0.703 -0.047,1.054 0.047,4.059 0.07,8.117 0.094,12.176 -4.621,0.023 -9.242,0.023 -13.863,0.023 0.023,2.864 0.047,5.747 0.07,8.586 2.414,0.071 4.832,0.118 7.25,0.188 -2.488,8.398 -4.93,16.844 -7.414,25.266 -0.024,0.046 -0.024,0.117 -0.024,0.164 -0.023,0.046 -0.046,0.117 -0.07,0.164 0,0.07 -0.023,0.117 -0.047,0.187 l 0,0.024 -0.023,0.023 0,0.023 c 0,0.024 0,0 -0.024,0.024 l 0,0.047 c -0.023,0 0,0.023 -0.023,0.023 -0.024,0.117 -0.047,0.258 -0.094,0.352 0,0.047 -0.023,0.14 -0.047,0.187 l 0,0.117 -0.023,0 0,0.024 -0.024,0 0,0.094 -0.023,0 0,0.117 c -0.023,0.047 -0.047,0.117 -0.047,0.164 l -0.023,0.094 0,0.023 c 0,0.024 0,0.024 -0.024,0.024 l 0,0.093 c 0,0 -0.023,0.024 -0.023,0.047 l 0,0.047 c 0,0.023 -0.024,0.023 -0.024,0.047 -0.046,0.234 -0.093,0.469 -0.14,0.73 l -0.024,0.164 0,0.094 c 0,0.024 -0.023,0.024 -0.023,0.047 l 0,0.047 c 0,0.023 -0.024,0.023 -0.024,0.07 l -0.023,0.024 c -0.164,0.773 -0.328,1.523 -0.469,2.297 l -0.238,2.113 c 0.023,0.633 0.047,1.289 0.047,1.922 0.094,0.609 0.215,1.195 0.308,1.785 0.188,0.539 0.352,1.078 0.516,1.617 0.258,0.492 0.492,0.984 0.75,1.453 0.305,0.446 0.633,0.867 0.938,1.317 l 1.101,1.148 c 0.422,0.352 0.848,0.703 1.27,1.031 l 1.429,0.867 c 0.493,0.258 1.008,0.516 1.524,0.75 0.539,0.215 1.082,0.426 1.621,0.614 0.562,0.187 1.148,0.351 1.711,0.515 l 1.785,0.352 c 0.633,0.094 1.242,0.187 1.828,0.258 0.633,0.047 1.266,0.117 1.875,0.164 0.024,0.023 0.024,0.023 0.024,0.047 l -0.024,0.047 0.024,0.023 10.722,40.844 z" /><path
         id="path5170"
         style="fill:#ffffff;fill-opacity:1;fill-rule:evenodd;stroke:none"
         d="m 385.695,240.067 c -46.59,5.985 -59.539,5.844 -106.972,0.375 l 9.031,34.25 88.769,0.305 9.172,-34.93 z" /><path
         id="path5172"
         style="fill:#999999;fill-opacity:1;fill-rule:evenodd;stroke:none"
         d="m 89.801,335.747 0,-0.02 c -4.613,0 -8.336,-3.832 -8.336,-8.566 0,-0.102 0.015,-0.207 0.019,-0.309 0.004,-0.043 0,-0.086 0,-0.125 0,-0.242 -0.429,-132.367 -0.453,-135.226 4.621,0 5.266,0 9.887,-0.024 -0.023,-4.058 -0.035,-8.125 -0.082,-12.183 0,-0.352 0.019,-0.703 0.043,-1.055 l 0,-0.043 c -0.024,-1.453 -0.02,-10.836 -0.043,-12.289 l 0,-0.414 c 0,-0.117 -0.024,-0.254 0,-0.371 0,-0.141 0.023,-0.297 0.023,-0.438 l 0.02,-0.39 c 0.07,-0.352 0.117,-0.707 0.164,-1.035 0.07,-0.329 0.156,-0.645 0.25,-0.973 0.117,-0.305 0.238,-0.625 0.332,-0.93 0.164,-0.281 0.316,-0.59 0.434,-0.871 0.187,-0.281 0.351,-0.523 0.515,-0.805 0.211,-0.234 0.391,-0.492 0.602,-0.726 0.211,-0.258 0.429,-0.469 0.64,-0.703 0.258,-0.211 0.489,-0.406 0.723,-0.641 0.258,-0.164 0.508,-0.375 0.789,-0.539 0.258,-0.141 0.567,-0.332 0.848,-0.476 0.281,-0.118 0.586,-0.25 0.867,-0.391 l 0.934,-0.313 0.992,-0.226 1.035,-0.125 c 0.328,-0.024 0.703,-0.016 1.031,-0.039 0.356,0.023 0.703,0.039 1.078,0.062 0.352,0.047 0.703,0.117 1.055,0.164 0.352,0.071 0.684,0.176 1.016,0.27 l 0.968,0.332 0.934,0.414 0.828,0.496 c 0.281,0.188 0.547,0.395 0.805,0.559 0.234,0.211 0.469,0.449 0.726,0.66 0.235,0.211 0.426,0.472 0.66,0.683 0.188,0.258 0.368,0.485 0.579,0.766 0.14,0.258 0.332,0.523 0.5,0.805 0.14,0.308 0.273,0.547 0.39,0.828 0.141,0.305 0.235,0.629 0.352,0.933 0.07,0.305 0.179,0.625 0.25,0.93 0.047,0.328 0.035,0.606 0.082,0.91 0,0.328 0.019,0.664 0.043,1.016 -0.024,0.351 0,0.723 -0.024,1.074 -0.023,0.047 0,0.141 0,0.188 l 0,0.101 c -0.023,0.024 -0.015,0.059 -0.039,0.106 0.071,5.511 0.117,18.98 0.164,24.515 10.274,-1.078 20.571,-2.187 30.868,-3.289 0,-0.094 -0.024,-0.215 0,-0.332 l 0,-0.351 c 0.023,-0.118 0,-0.239 0.023,-0.332 0,-0.118 -0.004,-0.254 0.019,-0.371 0.071,-0.305 0.094,-0.602 0.165,-0.93 0.046,-0.305 0.16,-0.586 0.23,-0.891 0.094,-0.281 0.191,-0.586 0.309,-0.871 0.117,-0.281 0.254,-0.547 0.394,-0.805 l 0.434,-0.765 c 0.187,-0.235 0.351,-0.465 0.539,-0.723 0.187,-0.187 0.41,-0.41 0.597,-0.644 0.211,-0.188 0.407,-0.368 0.641,-0.579 0.215,-0.164 0.445,-0.332 0.707,-0.496 0.234,-0.14 0.488,-0.316 0.723,-0.457 l 0.828,-0.371 c 0.258,-0.093 0.547,-0.172 0.828,-0.289 0.281,-0.07 0.586,-0.133 0.867,-0.226 0.305,-0.047 0.606,-0.059 0.91,-0.106 0.305,0 0.602,-0.019 0.93,-0.019 l 0.953,0.039 c 0.328,0.05 0.625,0.101 0.93,0.148 0.308,0.07 0.582,0.133 0.91,0.227 0.285,0.093 0.547,0.191 0.828,0.308 0.281,0.117 0.551,0.235 0.809,0.352 0.258,0.164 0.508,0.297 0.765,0.437 0.211,0.188 0.45,0.352 0.684,0.516 0.211,0.187 0.426,0.414 0.66,0.602 0.188,0.187 0.371,0.386 0.559,0.597 0.187,0.235 0.332,0.446 0.519,0.703 0.164,0.235 0.293,0.469 0.434,0.703 l 0.371,0.79 c 0.094,0.281 0.219,0.546 0.312,0.804 l 0.247,0.848 c 0.046,0.328 0.078,0.605 0.125,0.91 0,0.281 0.035,0.586 0.082,0.891 -0.024,0.304 -0.04,0.648 -0.063,0.953 10.395,1.054 20.809,2.129 31.199,3.183 l -0.062,-7.964 c 0,-1.454 -0.016,-2.868 -0.039,-4.325 l 0,-0.019 c 0,-1.781 -0.02,-11.543 -0.02,-13.305 -0.023,-0.07 0,-0.113 -0.023,-0.184 l 0.023,-0.105 c 0,-0.117 -0.023,-0.191 -0.023,-0.309 0.023,-0.093 0,-0.218 0.023,-0.312 l 0,-0.309 0.02,-0.332 c 0.07,-0.328 0.117,-0.683 0.164,-1.011 0.07,-0.332 0.156,-0.645 0.25,-0.973 0.094,-0.305 0.238,-0.606 0.332,-0.91 0.14,-0.309 0.293,-0.59 0.41,-0.871 0.191,-0.282 0.371,-0.571 0.562,-0.828 l 0.579,-0.766 c 0.211,-0.211 0.429,-0.449 0.64,-0.66 0.258,-0.235 0.488,-0.43 0.746,-0.641 0.258,-0.187 0.508,-0.375 0.766,-0.539 0.281,-0.164 0.566,-0.336 0.848,-0.476 0.304,-0.141 0.582,-0.278 0.89,-0.395 0.305,-0.117 0.629,-0.211 0.91,-0.328 0.352,-0.07 0.661,-0.137 1.012,-0.207 0.328,-0.047 0.664,-0.098 1.016,-0.145 l 1.054,-0.023 c 0.352,0 0.7,0.043 1.075,0.043 0.351,0.07 0.703,0.137 1.054,0.207 0.328,0.07 0.664,0.133 1.016,0.226 0.328,0.118 0.644,0.235 0.949,0.352 l 0.934,0.395 c 0.304,0.164 0.547,0.328 0.828,0.515 0.281,0.164 0.543,0.371 0.828,0.559 l 0.703,0.64 c 0.235,0.239 0.449,0.469 0.66,0.707 0.211,0.235 0.391,0.485 0.578,0.743 0.188,0.257 0.332,0.55 0.52,0.808 l 0.391,0.867 c 0.121,0.305 0.238,0.606 0.332,0.911 0.093,0.304 0.175,0.605 0.269,0.933 0.047,0.328 0.098,0.641 0.145,0.973 0.023,0.351 0.043,0.683 0.043,1.011 -0.024,0.352 -0.043,0.665 -0.043,1.016 l -0.039,0.102 0,0.125 c -0.024,0.07 -0.043,0.136 -0.043,0.207 0.046,5.558 0.097,19.082 0.144,24.621 l 9.227,0 c -0.047,2.808 0.289,135.269 0.289,135.64 l 0,0.02 c 0,0.055 0.004,0.109 0,0.164 -0.086,4.66 -3.797,8.402 -8.356,8.402 l 0,0.02 -123.519,0 z" /><path
         id="path5174"
         style="fill:#000000;fill-opacity:1;fill-rule:nonzero;stroke:none"
         d="M 240.398,480.802 C 107.633,480.802 0,373.169 0,240.403 0,107.638 107.633,0.001 240.398,0.001 c 132.766,0 240.403,107.637 240.403,240.402 0,132.766 -107.637,240.399 -240.403,240.399 z m 0,-0.399 c 132.551,0 240,-107.453 240,-240 0,-132.551 -107.449,-240 -240,-240 -132.546,0 -240,107.449 -240,240 0,132.547 107.454,240 240,240 z" /><path
         id="path5176"
         style="fill:#000000;fill-opacity:1;fill-rule:nonzero;stroke:none"
         d="M 240.398,472.348 C 112.375,472.348 8.457,368.427 8.457,240.403 8.457,112.376 112.375,8.458 240.398,8.458 c 128.028,0 231.946,103.918 231.946,231.945 0,128.024 -103.918,231.945 -231.946,231.945 z m 0,-12 c 46.309,0 89.25,-14.296 124.676,-38.703 L 59.156,115.727 c -24.406,35.426 -38.703,78.368 -38.703,124.676 0,121.539 98.406,219.945 219.945,219.945 z M 372.32,416.446 c 2.418,-1.816 4.793,-3.683 7.133,-5.594 L 69.949,101.348 c -1.91,2.34 -3.777,4.715 -5.594,7.133 L 372.32,416.446 Z m 13.856,-11.316 c 2.25,-1.992 4.461,-4.024 6.629,-6.102 L 81.773,88.001 c -2.078,2.164 -4.109,4.375 -6.101,6.625 L 386.176,405.13 Z m 12.847,-12.328 c 2.082,-2.164 4.114,-4.375 6.106,-6.625 L 94.625,75.673 c -2.25,1.992 -4.461,4.023 -6.625,6.105 l 311.023,311.024 z m 11.829,-13.344 c 1.91,-2.34 3.777,-4.715 5.593,-7.133 L 108.48,64.356 c -2.418,1.817 -4.796,3.684 -7.136,5.594 l 309.508,309.508 z m 10.793,-14.383 c 24.406,-35.426 38.703,-78.367 38.703,-124.672 0,-121.543 -98.407,-219.945 -219.95,-219.945 -46.304,0 -89.246,14.297 -124.671,38.703 l 305.918,305.914 z" /></g></g></svg>