<?xml version="1.0" encoding="UTF-8" standalone="no"?>
<svg
   xmlns:dc="http://purl.org/dc/elements/1.1/"
   xmlns:cc="http://creativecommons.org/ns#"
   xmlns:rdf="http://www.w3.org/1999/02/22-rdf-syntax-ns#"
   xmlns:svg="http://www.w3.org/2000/svg"
   xmlns="http://www.w3.org/2000/svg"
   viewBox="0 0 600.995 600.995"
   height="600.995"
   width="600.995"
   xml:space="preserve"
   version="1.1"
   id="svg3990"><metadata
     id="metadata3996"><rdf:RDF><cc:Work
         rdf:about=""><dc:format>image/svg+xml</dc:format><dc:type
           rdf:resource="http://purl.org/dc/dcmitype/StillImage" /><dc:title></dc:title></cc:Work></rdf:RDF></metadata><defs
     id="defs3994"><clipPath
       id="clipPath4060"
       clipPathUnits="userSpaceOnUse"><path
         id="path4062"
         d="m 0,480.796 480.727,0 0,-479.082 L 0,1.714 0,480.796 Z" /></clipPath><clipPath
       id="clipPath4070"
       clipPathUnits="userSpaceOnUse"><path
         id="path4072"
         d="m 102,161 277,0 0,159 -277,0 0,-159 z" /></clipPath></defs><g
     transform="matrix(1.25,0,0,-1.25,0,600.99499)"
     id="g3998"><g
       id="g4000"><path
         id="path4002"
         style="fill:#ffffff;fill-opacity:1;fill-rule:nonzero;stroke:none"
         d="m 480.398,240.398 c 0,-132.551 -107.449,-240 -240,-240 -132.55,0 -240,107.449 -240,240 0,132.55 107.45,240 240,240 132.551,0 240,-107.45 240,-240 z" /><path
         id="path4004"
         style="fill:#000000;fill-opacity:1;fill-rule:nonzero;stroke:none"
         d="M 240.398,480.796 C 107.633,480.796 0,373.163 0,240.398 0,107.632 107.633,-0.001 240.398,-0.001 c 132.766,0 240.399,107.633 240.399,240.399 0,132.765 -107.633,240.398 -240.399,240.398 z m 0,-0.398 c 132.551,0 240,-107.45 240,-240 0,-132.551 -107.449,-240 -240,-240 -132.55,0 -240,107.449 -240,240 0,132.55 107.45,240 240,240 z" /><path
         id="path4006"
         style="fill:none;stroke:#c1121c;stroke-width:64.3168335;stroke-linecap:butt;stroke-linejoin:miter;stroke-miterlimit:4;stroke-dasharray:none;stroke-opacity:1"
         d="m 440.238,240.398 c 0,-110.368 -89.472,-199.84 -199.84,-199.84 -110.367,0 -199.839,89.472 -199.839,199.84 0,110.367 89.472,199.839 199.839,199.839 110.368,0 199.84,-89.472 199.84,-199.839 z" /><path
         id="path4008"
         style="fill:#000000;fill-opacity:1;fill-rule:nonzero;stroke:none"
         d="m 23.832,456.511 0,-0.024 -0.023,0 0.023,0.024 z" /><path
         id="path4010"
         style="fill:#000000;fill-opacity:1;fill-rule:nonzero;stroke:none"
         d="m 23.809,456.511 0.023,0 0,-0.023 -0.023,0 0,0.023 z" /><path
         id="path4012"
         style="fill:#000000;fill-opacity:1;fill-rule:nonzero;stroke:none"
         d="m 23.809,456.487 0,0.024 0.023,-0.024 -0.023,0 z m 0.023,0 -0.023,0.024 0,-0.024 0.023,0 z" /><path
         id="path4014"
         style="fill:#000000;fill-opacity:1;fill-rule:nonzero;stroke:none"
         d="m 23.859,456.487 -0.05,0 0.023,0 0,0.024 0.027,-0.024 z" /><path
         id="path4016"
         style="fill:#000000;fill-opacity:1;fill-rule:nonzero;stroke:none"
         d="m 23.809,456.487 0,0.024 0,-0.024 0.023,0.024 -0.023,-0.024 z" /><path
         id="path4018"
         style="fill:#000000;fill-opacity:1;fill-rule:nonzero;stroke:none"
         d="m 23.809,456.511 0.023,0 0,-0.023 -0.023,0 0,0.023 z" /><path
         id="path4020"
         style="fill:#000000;fill-opacity:1;fill-rule:nonzero;stroke:none"
         d="m 23.859,456.511 0,-0.047 -0.05,0 0.05,0.047 z" /><path
         id="path4022"
         style="fill:#000000;fill-opacity:1;fill-rule:nonzero;stroke:none"
         d="m 23.809,456.511 0.051,0 0,-0.047 -0.051,0 0,0.047 z" /><path
         id="path4024"
         style="fill:#000000;fill-opacity:1;fill-rule:nonzero;stroke:none"
         d="m 23.809,456.464 0,0.047 0.05,-0.047 -0.05,0 z m 0.05,0 -0.05,0.047 0,-0.047 0.05,0 z" /><path
         id="path4026"
         style="fill:#000000;fill-opacity:1;fill-rule:nonzero;stroke:none"
         d="m 23.859,456.464 -0.05,0 0.023,0 0,0.047 0.027,-0.047 z" /><path
         id="path4028"
         style="fill:#000000;fill-opacity:1;fill-rule:nonzero;stroke:none"
         d="m 23.809,456.464 0,0.047 0,-0.047 0.05,0.047 -0.05,-0.047 z" /><path
         id="path4030"
         style="fill:#000000;fill-opacity:1;fill-rule:nonzero;stroke:none"
         d="m 23.809,456.511 0.051,0 0,-0.047 -0.051,0 0,0.047 z" /><path
         id="path4032"
         style="fill:#000000;fill-opacity:1;fill-rule:nonzero;stroke:none"
         d="m 23.859,456.511 0,-0.047 -0.05,0 0.05,0.047 z" /><path
         id="path4034"
         style="fill:#000000;fill-opacity:1;fill-rule:nonzero;stroke:none"
         d="m 23.809,456.511 0.051,0 0,-0.047 -0.051,0 0,0.047 z" /><path
         id="path4036"
         style="fill:#000000;fill-opacity:1;fill-rule:nonzero;stroke:none"
         d="m 23.809,456.464 0,0.047 0.05,-0.047 -0.05,0 z m 0.05,0 -0.05,0.047 0,-0.047 0.05,0 z" /><path
         id="path4038"
         style="fill:#000000;fill-opacity:1;fill-rule:nonzero;stroke:none"
         d="m 23.859,456.464 -0.05,0 0.023,0 0,0.047 0.027,-0.047 z" /><path
         id="path4040"
         style="fill:#000000;fill-opacity:1;fill-rule:nonzero;stroke:none"
         d="m 23.809,456.464 0,0.047 0,-0.047 0.05,0.047 -0.05,-0.047 z" /><path
         id="path4042"
         style="fill:#000000;fill-opacity:1;fill-rule:nonzero;stroke:none"
         d="m 23.809,456.511 0.051,0 0,-0.047 -0.051,0 0,0.047 z" /><path
         id="path4044"
         style="fill:#000000;fill-opacity:1;fill-rule:nonzero;stroke:none"
         d="m 23.859,456.511 0,-0.047 -0.05,0 0.05,0.047 z" /><path
         id="path4046"
         style="fill:#000000;fill-opacity:1;fill-rule:nonzero;stroke:none"
         d="m 23.809,456.511 0.051,0 0,-0.047 -0.051,0 0,0.047 z" /><path
         id="path4048"
         style="fill:#000000;fill-opacity:1;fill-rule:nonzero;stroke:none"
         d="m 23.809,456.464 0,0.047 0.05,-0.047 -0.05,0 z m 0.05,0 -0.05,0.047 0,-0.047 0.05,0 z" /><path
         id="path4050"
         style="fill:#000000;fill-opacity:1;fill-rule:nonzero;stroke:none"
         d="m 23.859,456.464 -0.05,0 0.023,0 0,0.047 0.027,-0.047 z" /><path
         id="path4052"
         style="fill:#000000;fill-opacity:1;fill-rule:nonzero;stroke:none"
         d="m 23.809,456.464 0,0.047 0,-0.047 0.05,0.047 -0.05,-0.047 z" /><path
         id="path4054"
         style="fill:#000000;fill-opacity:1;fill-rule:nonzero;stroke:none"
         d="m 23.809,456.511 0.051,0 0,-0.047 -0.051,0 0,0.047 z" /></g><g
       id="g4056"><g
         clip-path="url(#clipPath4060)"
         id="g4058"><g
           transform="translate(0,-0.20401)"
           id="g4064"><g
             id="g4066"><g
               clip-path="url(#clipPath4070)"
               id="g4068"><g
                 id="g4074"><path
                   id="path4076"
                   style="fill:#000000;fill-opacity:1;fill-rule:evenodd;stroke:none"
                   d="m 240.117,161.883 -137.691,0 0,8.754 275.402,0 0,-8.754 -137.711,0 z" /><path
                   id="path4078"
                   style="fill:#000000;fill-opacity:1;fill-rule:evenodd;stroke:none"
                   d="m 275.562,273.332 c 13.559,0.094 27.137,0.211 40.692,0.309 13.445,-0.059 26.887,-0.118 40.308,-0.176 l 9.008,-33.973 0,-0.078 c 0.211,0 0.426,0 0.637,-0.019 0.215,-0.02 0.41,-0.036 0.621,-0.059 l 0.621,-0.078 c 0.211,-0.035 0.406,-0.078 0.617,-0.094 0.196,-0.059 0.387,-0.098 0.602,-0.156 0.195,-0.059 0.406,-0.117 0.617,-0.172 0.195,-0.059 0.391,-0.117 0.586,-0.195 0.231,-0.079 0.426,-0.137 0.637,-0.235 0.152,-0.058 0.332,-0.136 0.504,-0.195 0.156,-0.074 0.328,-0.152 0.484,-0.207 0.156,-0.078 0.313,-0.18 0.465,-0.234 0.133,-0.098 0.289,-0.157 0.445,-0.254 0.133,-0.078 0.289,-0.172 0.426,-0.27 0.156,-0.078 0.289,-0.176 0.426,-0.273 0.137,-0.094 0.269,-0.172 0.406,-0.27 0.137,-0.098 0.274,-0.211 0.387,-0.312 l 0.023,0 0,-0.016 0.035,0 c 0,-0.02 0.039,-0.02 0.039,-0.039 l 0.059,-0.059 c 0,-0.019 0.02,-0.019 0.02,-0.039 l 0.039,-0.039 c 0.136,-0.117 0.289,-0.254 0.406,-0.387 0.156,-0.136 0.289,-0.253 0.426,-0.406 0.117,-0.136 0.254,-0.269 0.386,-0.426 0.118,-0.136 0.254,-0.312 0.387,-0.468 0.176,-0.207 0.352,-0.422 0.504,-0.657 0.156,-0.21 0.293,-0.46 0.449,-0.675 0.133,-0.235 0.27,-0.465 0.387,-0.7 0.094,-0.234 0.211,-0.464 0.328,-0.699 l 0.27,-0.734 c 0.078,-0.25 0.156,-0.504 0.214,-0.754 0.059,-0.273 0.098,-0.523 0.172,-0.777 0.024,-0.27 0.059,-0.539 0.102,-0.813 0.015,-0.234 0.035,-0.441 0.035,-0.656 0.02,-0.215 0.02,-0.41 0.039,-0.641 -0.019,-0.191 -0.019,-0.406 -0.019,-0.621 -0.04,-0.195 -0.055,-0.406 -0.055,-0.597 l -0.102,-0.622 c -0.054,-0.195 -0.093,-0.386 -0.113,-0.582 -0.078,-0.214 -0.117,-0.406 -0.176,-0.617 -0.054,-0.195 -0.133,-0.39 -0.211,-0.601 -0.023,-0.059 -0.023,-0.118 -0.039,-0.196 0,-0.039 0,-0.054 -0.019,-0.097 0,-0.035 -0.02,-0.059 -0.02,-0.094 -0.058,-0.195 -0.097,-0.41 -0.156,-0.602 l -0.176,-0.582 c -0.035,-0.097 -0.058,-0.191 -0.094,-0.269 l 0,-0.039 -0.019,0 0,-0.078 -0.024,0 0,-0.039 -0.015,0 0,-0.079 -0.039,-0.078 c -0.504,-1.722 -1.028,-3.465 -1.532,-5.187 -0.464,-1.727 -0.929,-3.469 -1.394,-5.192 -0.445,-1.726 -0.91,-3.468 -1.356,-5.191 -0.503,-1.742 -1.046,-3.469 -1.55,-5.211 0.488,0 0.949,-0.02 1.414,-0.039 l 1.262,-0.059 c 0.406,-0.019 0.812,-0.058 1.218,-0.074 0.485,0 0.949,-0.023 1.434,-0.023 0.019,-2.344 0.039,-4.649 0.078,-6.973 l -10.902,0 c -0.043,-4.57 -0.082,-9.18 -0.121,-13.769 0,-0.059 0.019,-0.118 0.039,-0.176 l 0,-0.094 0.023,-0.078 c 0,-0.293 0.016,-0.563 0.035,-0.852 0,-0.273 -0.019,-0.547 -0.035,-0.832 -0.043,-0.273 -0.078,-0.523 -0.121,-0.797 -0.074,-0.273 -0.133,-0.523 -0.211,-0.773 -0.078,-0.254 -0.176,-0.504 -0.27,-0.758 l -0.332,-0.715 c -0.156,-0.215 -0.269,-0.445 -0.425,-0.656 -0.153,-0.215 -0.309,-0.43 -0.485,-0.625 -0.172,-0.191 -0.347,-0.387 -0.543,-0.578 l -0.582,-0.523 c -0.23,-0.157 -0.441,-0.333 -0.676,-0.465 -0.234,-0.153 -0.445,-0.289 -0.699,-0.426 l -0.754,-0.328 c -0.25,-0.098 -0.523,-0.196 -0.793,-0.293 -0.289,-0.078 -0.562,-0.137 -0.832,-0.196 -0.293,-0.054 -0.582,-0.093 -0.871,-0.152 -0.312,0 -0.601,-0.039 -0.894,-0.039 l -0.867,0.02 c -0.293,0.039 -0.567,0.078 -0.836,0.117 -0.289,0.054 -0.539,0.113 -0.832,0.172 -0.231,0.097 -0.504,0.175 -0.754,0.273 -0.254,0.098 -0.485,0.211 -0.739,0.328 -0.23,0.117 -0.464,0.25 -0.695,0.387 -0.215,0.137 -0.426,0.293 -0.641,0.445 -0.214,0.176 -0.406,0.328 -0.621,0.524 -0.172,0.175 -0.347,0.367 -0.519,0.543 l -0.485,0.636 c -0.156,0.215 -0.292,0.45 -0.445,0.68 -0.101,0.231 -0.234,0.465 -0.351,0.719 -0.079,0.25 -0.192,0.5 -0.27,0.754 -0.078,0.269 -0.156,0.543 -0.211,0.816 -0.043,0.27 -0.078,0.559 -0.137,0.832 l -0.019,0.27 0,0.254 c -0.024,0.078 0,0.171 -0.024,0.25 0,0.093 0.024,0.171 0.024,0.269 l -0.024,0.078 c 0.024,0.059 0,0.098 0.024,0.156 0,1.454 0.019,2.946 0.019,4.415 l 0,0.019 c 0.02,1.199 0.036,2.383 0.036,3.586 l 0.058,6.566 c -8.582,-0.875 -17.18,-1.765 -25.758,-2.636 0.02,-0.25 0.02,-0.524 0.036,-0.774 -0.036,-0.254 -0.055,-0.504 -0.055,-0.738 -0.039,-0.25 -0.082,-0.484 -0.117,-0.754 l -0.196,-0.695 c -0.078,-0.215 -0.172,-0.446 -0.25,-0.68 l -0.308,-0.641 c -0.121,-0.191 -0.235,-0.386 -0.371,-0.582 -0.153,-0.21 -0.27,-0.386 -0.426,-0.578 -0.156,-0.175 -0.309,-0.351 -0.465,-0.504 -0.191,-0.156 -0.367,-0.328 -0.543,-0.484 -0.191,-0.137 -0.387,-0.273 -0.559,-0.426 -0.214,-0.117 -0.425,-0.234 -0.64,-0.371 -0.215,-0.094 -0.426,-0.191 -0.66,-0.289 -0.231,-0.098 -0.442,-0.172 -0.68,-0.25 -0.266,-0.078 -0.5,-0.137 -0.754,-0.195 -0.25,-0.039 -0.5,-0.078 -0.773,-0.113 l -0.774,-0.043 c -0.273,0 -0.523,0.023 -0.773,0.023 -0.254,0.035 -0.504,0.055 -0.758,0.094 -0.231,0.078 -0.484,0.117 -0.719,0.176 -0.23,0.093 -0.461,0.171 -0.676,0.253 l -0.679,0.309 c -0.192,0.113 -0.403,0.25 -0.598,0.367 -0.215,0.133 -0.406,0.27 -0.582,0.406 -0.195,0.172 -0.367,0.329 -0.543,0.485 -0.156,0.195 -0.328,0.367 -0.484,0.523 -0.153,0.211 -0.289,0.407 -0.446,0.598 l -0.367,0.641 c -0.113,0.21 -0.215,0.425 -0.308,0.656 -0.098,0.234 -0.196,0.488 -0.274,0.719 -0.055,0.253 -0.133,0.484 -0.172,0.738 -0.058,0.269 -0.078,0.523 -0.136,0.773 -0.02,0.098 -0.02,0.215 -0.02,0.309 -0.02,0.078 0,0.176 -0.02,0.273 l 0,0.289 c -0.019,0.098 0,0.196 0,0.274 -8.503,0.91 -17.007,1.82 -25.488,2.711 -0.043,-4.574 -0.078,-9.125 -0.136,-13.676 0.019,-0.039 0.019,-0.078 0.039,-0.098 l 0,-0.078 c 0,-0.035 -0.02,-0.113 0,-0.156 0.019,-0.285 0,-0.598 0.019,-0.887 -0.019,-0.289 -0.039,-0.562 -0.039,-0.832 -0.039,-0.254 -0.039,-0.488 -0.078,-0.758 -0.055,-0.254 -0.133,-0.519 -0.191,-0.773 -0.098,-0.254 -0.176,-0.504 -0.293,-0.758 -0.094,-0.23 -0.215,-0.445 -0.329,-0.695 -0.136,-0.235 -0.289,-0.446 -0.406,-0.66 -0.176,-0.231 -0.332,-0.426 -0.484,-0.637 -0.196,-0.176 -0.352,-0.387 -0.543,-0.563 -0.215,-0.175 -0.406,-0.367 -0.602,-0.543 -0.211,-0.136 -0.426,-0.308 -0.656,-0.464 l -0.699,-0.407 -0.754,-0.347 -0.813,-0.274 c -0.273,-0.078 -0.543,-0.156 -0.836,-0.211 -0.289,-0.039 -0.582,-0.097 -0.871,-0.136 -0.308,-0.02 -0.601,-0.039 -0.89,-0.059 -0.27,0.02 -0.582,0.02 -0.852,0.039 l -0.851,0.098 -0.817,0.191 -0.773,0.254 c -0.231,0.113 -0.485,0.23 -0.719,0.328 -0.23,0.117 -0.48,0.274 -0.695,0.387 -0.231,0.137 -0.446,0.308 -0.66,0.445 -0.192,0.196 -0.387,0.352 -0.602,0.524 -0.172,0.195 -0.344,0.367 -0.52,0.582 -0.175,0.191 -0.328,0.406 -0.503,0.601 -0.137,0.231 -0.274,0.446 -0.426,0.676 -0.098,0.234 -0.215,0.484 -0.348,0.719 -0.078,0.254 -0.176,0.504 -0.273,0.754 -0.075,0.273 -0.153,0.543 -0.211,0.812 -0.039,0.274 -0.078,0.563 -0.137,0.852 l -0.02,0.332 c 0,0.113 -0.019,0.234 -0.019,0.347 -0.02,0.098 0,0.211 0,0.309 l 0,0.352 c 0.019,1.199 0.019,2.382 0.039,3.582 l 0,0.039 c -0.02,0.289 -0.039,0.582 -0.039,0.871 0.039,3.351 0.059,6.699 0.078,10.054 -3.816,0.016 -7.629,0.016 -11.449,0.016 0.019,2.363 0.043,4.746 0.058,7.09 1.997,0.058 3.993,0.098 5.985,0.156 -2.051,6.934 -4.067,13.906 -6.117,20.86 -0.02,0.039 -0.02,0.097 -0.02,0.136 -0.019,0.039 -0.039,0.098 -0.059,0.133 0,0.059 -0.019,0.098 -0.039,0.156 l 0,0.02 -0.019,0.019 0,0.02 c 0,0.019 0,0 -0.02,0.019 l 0,0.039 c -0.019,0 0,0.02 -0.019,0.02 -0.02,0.098 -0.039,0.215 -0.078,0.289 0,0.039 -0.016,0.117 -0.039,0.156 l 0,0.098 -0.02,0 0,0.016 -0.019,0 0,0.078 -0.016,0 0,0.097 c -0.023,0.039 -0.043,0.098 -0.043,0.137 l -0.016,0.078 0,0.02 c 0,0.019 0,0.019 -0.019,0.019 l 0,0.078 c 0,0 -0.024,0.016 -0.024,0.04 l 0,0.035 c 0,0.019 -0.015,0.019 -0.015,0.043 -0.039,0.191 -0.078,0.386 -0.117,0.597 l -0.02,0.137 0,0.074 c 0,0.024 -0.019,0.024 -0.019,0.043 l 0,0.035 c 0,0.024 -0.02,0.024 -0.02,0.059 l -0.02,0.019 c -0.132,0.641 -0.269,1.258 -0.386,1.899 l -0.196,1.746 c 0.02,0.523 0.04,1.063 0.04,1.586 0.078,0.504 0.175,0.988 0.253,1.473 0.157,0.445 0.289,0.89 0.426,1.336 0.211,0.406 0.406,0.816 0.617,1.203 0.254,0.367 0.524,0.715 0.778,1.082 l 0.91,0.949 c 0.348,0.293 0.695,0.582 1.047,0.851 l 1.179,0.719 c 0.411,0.211 0.832,0.426 1.258,0.621 0.449,0.172 0.895,0.344 1.34,0.504 0.465,0.153 0.945,0.285 1.41,0.422 l 1.473,0.293 c 0.523,0.078 1.027,0.152 1.512,0.211 0.523,0.039 1.047,0.098 1.55,0.137 0.02,0.019 0.02,0.019 0.02,0.039 l -0.02,0.039 0.02,0.019 8.851,33.723 z" /><path
                   id="path4080"
                   style="fill:#ffffff;fill-opacity:1;fill-rule:evenodd;stroke:none"
                   d="m 360.359,240.324 c -38.468,4.942 -49.16,4.824 -88.324,0.313 l 7.457,28.277 73.293,0.254 7.574,-28.844 z" /><path
                   id="path4082"
                   style="fill:#c1121c;fill-opacity:1;fill-rule:evenodd;stroke:none"
                   d="m 116.055,319.32 0,-0.015 c -3.813,0 -6.883,-3.16 -6.883,-7.071 0,-0.086 0.012,-0.172 0.016,-0.257 0,-0.032 -0.004,-0.067 0,-0.102 0,-0.199 -0.356,-109.289 -0.376,-111.648 3.817,0 4.348,0 8.165,-0.02 -0.02,-3.348 -0.032,-6.711 -0.067,-10.059 0,-0.293 0.012,-0.582 0.035,-0.875 l 0,-0.035 c -0.023,-1.199 -0.015,-8.941 -0.035,-10.144 l 0,-0.34 c 0,-0.098 -0.019,-0.211 0,-0.309 0,-0.117 0.016,-0.242 0.016,-0.359 l 0.019,-0.324 c 0.055,-0.289 0.094,-0.582 0.137,-0.852 0.059,-0.273 0.125,-0.535 0.203,-0.805 0.098,-0.253 0.195,-0.519 0.274,-0.769 0.136,-0.231 0.261,-0.484 0.355,-0.719 0.156,-0.23 0.297,-0.433 0.43,-0.668 0.176,-0.191 0.32,-0.402 0.496,-0.597 0.172,-0.207 0.355,-0.387 0.527,-0.579 0.215,-0.175 0.406,-0.335 0.598,-0.531 0.215,-0.133 0.418,-0.304 0.652,-0.441 0.211,-0.117 0.465,-0.278 0.699,-0.395 0.231,-0.094 0.485,-0.207 0.719,-0.324 l 0.77,-0.258 0.816,-0.183 0.856,-0.106 c 0.273,-0.019 0.582,-0.012 0.855,-0.031 0.289,0.019 0.578,0.031 0.887,0.051 0.293,0.035 0.578,0.093 0.871,0.136 0.289,0.059 0.566,0.141 0.836,0.219 l 0.804,0.278 0.77,0.339 0.684,0.411 c 0.23,0.152 0.449,0.324 0.664,0.46 0.195,0.172 0.382,0.375 0.597,0.547 0.196,0.172 0.352,0.391 0.547,0.563 0.156,0.215 0.305,0.402 0.477,0.633 0.117,0.214 0.277,0.433 0.414,0.664 0.113,0.254 0.226,0.453 0.32,0.683 0.117,0.254 0.195,0.52 0.293,0.77 0.059,0.254 0.145,0.515 0.203,0.769 0.043,0.27 0.031,0.5 0.071,0.75 0,0.274 0.015,0.551 0.031,0.84 -0.016,0.289 0.004,0.598 -0.016,0.887 -0.019,0.039 0,0.113 0,0.152 l 0,0.086 c -0.019,0.02 -0.015,0.047 -0.035,0.086 0.059,4.551 0.102,15.672 0.137,20.242 8.484,-0.89 16.988,-1.804 25.488,-2.715 0,-0.078 -0.02,-0.175 0,-0.273 l 0,-0.293 c 0.02,-0.094 -0.004,-0.191 0.02,-0.269 0,-0.098 -0.004,-0.211 0.015,-0.309 0.059,-0.254 0.078,-0.5 0.137,-0.766 0.039,-0.257 0.129,-0.484 0.187,-0.738 0.078,-0.234 0.161,-0.484 0.258,-0.715 0.094,-0.234 0.207,-0.453 0.32,-0.668 l 0.364,-0.633 c 0.152,-0.191 0.285,-0.382 0.441,-0.597 0.156,-0.156 0.344,-0.336 0.496,-0.528 0.176,-0.156 0.336,-0.304 0.532,-0.48 0.171,-0.137 0.367,-0.274 0.582,-0.41 0.191,-0.117 0.402,-0.258 0.597,-0.375 l 0.684,-0.309 c 0.207,-0.078 0.449,-0.14 0.68,-0.238 0.234,-0.059 0.484,-0.109 0.714,-0.188 0.258,-0.043 0.504,-0.046 0.754,-0.086 0.25,0 0.496,-0.015 0.77,-0.015 l 0.785,0.031 c 0.273,0.039 0.516,0.082 0.769,0.121 0.254,0.059 0.481,0.11 0.75,0.188 0.235,0.078 0.454,0.16 0.684,0.257 0.234,0.094 0.453,0.192 0.668,0.29 0.211,0.136 0.418,0.242 0.629,0.359 0.176,0.156 0.371,0.293 0.566,0.426 0.176,0.156 0.352,0.34 0.547,0.496 0.153,0.152 0.305,0.32 0.461,0.496 0.153,0.195 0.274,0.367 0.426,0.582 0.137,0.191 0.242,0.387 0.359,0.578 l 0.309,0.649 c 0.078,0.23 0.18,0.453 0.258,0.667 l 0.203,0.7 c 0.039,0.273 0.062,0.5 0.101,0.754 0,0.23 0.032,0.48 0.071,0.73 -0.024,0.254 -0.032,0.535 -0.055,0.789 8.582,0.871 17.184,1.758 25.762,2.629 l -0.051,-6.578 c 0,-1.199 -0.016,-2.367 -0.031,-3.567 l 0,-0.019 c 0,-1.469 -0.02,-9.531 -0.02,-10.984 -0.019,-0.059 0,-0.094 -0.015,-0.153 l 0.015,-0.086 c 0,-0.097 -0.015,-0.156 -0.015,-0.258 0.015,-0.078 -0.004,-0.175 0.015,-0.253 l 0,-0.258 0.02,-0.274 c 0.054,-0.269 0.093,-0.562 0.133,-0.836 0.058,-0.269 0.128,-0.531 0.207,-0.8 0.078,-0.254 0.195,-0.504 0.273,-0.754 0.117,-0.25 0.242,-0.485 0.34,-0.719 0.156,-0.23 0.308,-0.469 0.461,-0.684 l 0.48,-0.632 c 0.172,-0.172 0.356,-0.372 0.528,-0.543 0.214,-0.196 0.402,-0.356 0.617,-0.532 0.211,-0.152 0.418,-0.304 0.633,-0.441 0.23,-0.137 0.464,-0.277 0.699,-0.395 0.25,-0.117 0.48,-0.226 0.734,-0.324 0.254,-0.097 0.52,-0.176 0.75,-0.273 0.293,-0.059 0.547,-0.114 0.836,-0.168 0.274,-0.043 0.547,-0.086 0.84,-0.121 l 0.867,-0.02 c 0.293,0 0.582,0.035 0.891,0.035 0.293,0.059 0.582,0.11 0.875,0.172 0.265,0.059 0.543,0.11 0.832,0.188 0.273,0.097 0.535,0.191 0.789,0.289 l 0.769,0.324 c 0.25,0.137 0.45,0.273 0.684,0.43 0.23,0.132 0.449,0.304 0.684,0.461 l 0.578,0.527 c 0.195,0.195 0.371,0.387 0.547,0.582 0.171,0.191 0.324,0.402 0.476,0.613 0.156,0.215 0.274,0.453 0.43,0.668 l 0.324,0.719 c 0.094,0.25 0.195,0.5 0.274,0.75 0.078,0.254 0.14,0.5 0.218,0.769 0.043,0.27 0.086,0.532 0.121,0.801 0.02,0.293 0.035,0.567 0.035,0.84 -0.019,0.289 -0.035,0.543 -0.035,0.836 l -0.035,0.086 0,0.102 c -0.019,0.058 -0.031,0.113 -0.031,0.171 0.039,4.586 0.082,15.754 0.117,20.329 l 7.621,0 c -0.039,2.32 0.239,111.687 0.239,111.988 l 0,0.019 c 0,0.047 0,0.09 0,0.137 -0.075,3.844 -3.137,6.934 -6.903,6.934 l 0,0.015 -101.98,0 z" /></g></g></g></g></g></g></g></svg>