<?xml version="1.0" encoding="UTF-8" standalone="no"?>
<svg xmlns:dc="http://purl.org/dc/elements/1.1/" xmlns:cc="http://creativecommons.org/ns#" xmlns:rdf="http://www.w3.org/1999/02/22-rdf-syntax-ns#" xmlns:svg="http://www.w3.org/2000/svg" xmlns="http://www.w3.org/2000/svg" viewBox="0 0 501.0004 500.99997" height="500.99997" width="501.0004" xml:space="preserve" version="1.1" id="svg3411"><metadata id="metadata3417"><rdf:RDF><cc:Work rdf:about=""><dc:format>image/svg+xml</dc:format><dc:type rdf:resource="http://purl.org/dc/dcmitype/StillImage"/><dc:title/></cc:Work></rdf:RDF></metadata><defs id="defs3415"><clipPath id="clipPath3433" clipPathUnits="userSpaceOnUse"><path id="path3435" d="m 1.313,396.718 398.031,0 0,-396.953 -398.031,0 0,396.953 z"/></clipPath><clipPath id="clipPath3441" clipPathUnits="userSpaceOnUse"><path id="path3443" d="M 0,0 401,0 401,401 0,401 0,0 Z"/></clipPath><clipPath id="clipPath3445" clipPathUnits="userSpaceOnUse"><path id="path3447" d="m 1.313,396.918 398.031,0 0,-396.953 -398.031,0 0,396.953 z"/></clipPath><clipPath id="clipPath3449" clipPathUnits="userSpaceOnUse"><path id="path3451" d="M 0,0 401,0 401,401 0,401 0,0 Z"/></clipPath></defs><g transform="matrix(1.25,0,0,-1.25,0,500.99998)" id="g3419"><g id="g3421"><path id="path3423" style="fill:#ffffff;fill-opacity:1;fill-rule:nonzero;stroke:none" d="m 25.016,400.402 c 0,0 -24.586,0.054 -24.618,-24.622 C 0.402,189.273 0.523,196.527 0.398,26.159 0.43,1.355 25.016,0.402 25.016,0.402 l 350.726,0 c 0,0 24.629,0.953 24.656,25.757 l 0,349.621 c 0.106,24.633 -24.656,24.622 -24.656,24.622 l -350.726,0 z"/><path id="path3425" style="fill:#154889;fill-opacity:1;fill-rule:nonzero;stroke:none" d="m 27.785,388.402 c 0,0 -15.363,0.105 -15.387,-15.387 l 0,-345.227 C 12.379,11.984 27.785,12.402 27.785,12.402 l 345.262,0 c 0,0 15.375,-0.418 15.351,15.386 l 0,345.227 c 0.071,15.402 -15.351,15.387 -15.351,15.387 l -345.262,0 z"/><path id="path3427" style="fill:#000000;fill-opacity:1;fill-rule:nonzero;stroke:none" d="m 25.016,400.8 c -0.004,0 -6.231,0.02 -12.477,-3.098 C 6.293,394.585 0.016,388.253 0,375.784 L 0,375.78 C 0.004,189.269 0.125,196.527 0,26.159 0.016,13.624 6.285,7.015 12.527,3.628 18.77,0.237 25,-0.001 25,-0.001 l 350.758,0 c 0,0 6.242,0.238 12.492,3.629 6.254,3.387 12.535,9.996 12.551,22.531 l 0,349.621 c 0.051,12.45 -6.238,18.782 -12.512,21.907 -6.273,3.121 -12.547,3.113 -12.547,3.113 l -350.726,0 z m 0,-0.398 350.726,0 c 0,0 24.762,0.011 24.656,-24.622 l 0,-349.621 C 400.371,1.355 375.742,0.402 375.742,0.402 l -350.726,0 c 0,0 -24.586,0.953 -24.618,25.757 0.125,170.368 0.004,163.11 0,349.621 0.032,24.676 24.618,24.622 24.618,24.622 z"/></g><g id="g3429"><g clip-path="url(#clipPath3433)" id="g3431"><g transform="translate(0,-0.200012)" id="g3437"><g id="g3439"/><g id="g3453"><g id="g3455" clip-path="url(#clipPath3441)"><g id="g3457"/><g id="g3459"><g id="g3461" clip-path="url(#clipPath3445)"><g id="g3463"><g id="g3465"/><g id="g3467"><g id="g3469" clip-path="url(#clipPath3449)"><g id="g3471"/><g id="g3473"><path id="path3475" style="fill:#ffffff;fill-opacity:1;fill-rule:nonzero;stroke:none" d="m 278.637,212.355 c 0.023,-0.097 0.023,-0.191 0.023,-0.261 0,-0.93 -0.168,-1.817 -0.476,-2.559 -0.289,-0.762 -0.719,-1.43 -1.27,-1.957 -0.551,-0.551 -1.219,-0.976 -1.937,-1.269 -0.739,-0.286 -1.551,-0.45 -2.414,-0.45 -0.645,0 -1.336,0.094 -2.028,0.286 l 0.094,0.382 -0.094,-0.382 c -5.621,1.386 -31.363,6.187 -47.379,9.339 l 0.5,-163.836 0,-0.429 -0.429,0 c -3.204,0 -5.95,0.023 -8.391,0.023 l -17.402,0 c -1.793,-0.023 -3.68,-0.023 -5.832,-0.023 l -15.106,0 0,0.429 0.477,163.836 c -15.969,-3.152 -41.715,-7.953 -47.328,-9.339 -0.7,-0.192 -1.391,-0.286 -2.036,-0.286 -0.863,0 -1.695,0.164 -2.414,0.45 -0.742,0.293 -1.386,0.718 -1.961,1.269 -0.527,0.551 -0.98,1.195 -1.289,1.981 -0.289,0.769 -0.457,1.605 -0.457,2.558 0,0.766 0.121,1.621 0.36,2.508 0.265,0.883 0.625,1.813 1.148,2.797 2.82,5.207 50.867,87.484 76.305,131.226 l 0.762,1.313 0,0.023 0.023,0 0,-0.023 0.766,-1.313 c 25.433,-43.742 73.48,-126.019 76.304,-131.226 0.5,-0.91 0.86,-1.82 1.094,-2.656 0.242,-0.856 0.387,-1.645 0.387,-2.411 z"/></g></g></g></g></g></g></g></g></g></g></g></g></svg>