<?xml version="1.0" encoding="UTF-8" standalone="no"?>
<svg
   xmlns:dc="http://purl.org/dc/elements/1.1/"
   xmlns:cc="http://creativecommons.org/ns#"
   xmlns:rdf="http://www.w3.org/1999/02/22-rdf-syntax-ns#"
   xmlns:svg="http://www.w3.org/2000/svg"
   xmlns="http://www.w3.org/2000/svg"
   viewBox="0 0 601 601"
   height="601"
   width="601"
   xml:space="preserve"
   version="1.1"
   id="svg5307"><metadata
     id="metadata5313"><rdf:RDF><cc:Work
         rdf:about=""><dc:format>image/svg+xml</dc:format><dc:type
           rdf:resource="http://purl.org/dc/dcmitype/StillImage" /><dc:title></dc:title></cc:Work></rdf:RDF></metadata><defs
     id="defs5311" /><g
     transform="matrix(1.25,0,0,-1.25,0,600.99998)"
     id="g5315"><g
       id="g5317"><path
         id="path5319"
         style="fill:#ffffff;fill-opacity:1;fill-rule:evenodd;stroke:none"
         d="m 480.398,240.374 c 0,44.199 -10.046,81.75 -32.132,120.012 -22.086,38.285 -49.59,65.762 -87.852,87.875 -38.289,22.09 -75.84,32.141 -120.039,32.141 -44.176,0 -81.703,-10.051 -119.961,-32.141 C 82.129,426.148 54.648,398.671 32.535,360.386 10.449,322.124 0.398,284.573 0.398,240.374 0.398,196.198 10.449,158.671 32.535,120.39 54.648,82.128 82.129,54.624 120.414,32.538 158.672,10.452 196.199,0.402 240.375,0.402 c 44.199,0 81.75,10.05 120.039,32.136 38.262,22.086 65.766,49.59 87.852,87.852 22.086,38.281 32.132,75.808 32.132,119.984 z" /><path
         id="path5321"
         style="fill:#154889;fill-opacity:1;fill-rule:evenodd;stroke:none"
         d="m 472.398,241.3 c 0,42.691 -9.714,79.004 -31.086,115.973 -21.347,36.996 -47.945,63.593 -84.914,84.937 -36.968,21.375 -73.304,31.09 -116.023,31.09 -42.695,0 -78.98,-9.742 -115.949,-31.09 C 87.43,420.839 60.859,394.269 39.488,357.273 18.141,320.304 8.398,283.991 8.398,241.3 c 0,-42.719 9.715,-79.031 31.09,-116 C 60.832,88.331 87.43,61.734 124.426,40.386 161.395,19.015 197.68,9.3 240.375,9.3 c 42.719,0 79.055,9.715 116.023,31.086 36.969,21.348 63.567,47.945 84.914,84.914 21.372,36.969 31.086,73.281 31.086,116 z" /><path
         id="path5323"
         style="fill:#000000;fill-opacity:1;fill-rule:evenodd;stroke:none"
         d="m 240.375,480.8 c -44.234,0 -81.848,-10.074 -120.16,-32.191 C 81.875,426.464 54.336,398.925 32.191,360.585 10.074,322.273 0,284.636 0,240.374 0,196.14 10.074,158.523 32.191,120.187 54.336,81.874 81.875,54.308 120.215,32.191 c 38.312,-22.118 75.926,-32.192 120.16,-32.192 44.262,0 81.898,10.074 120.238,32.192 38.313,22.117 65.879,49.683 87.996,87.996 22.118,38.336 32.192,75.953 32.192,120.187 0,44.258 -10.074,81.899 -32.192,120.211 -22.117,38.34 -49.683,65.883 -87.996,88.024 -38.34,22.117 -75.976,32.191 -120.238,32.191 z m 0,-0.398 c 44.199,0 81.754,-10.051 120.039,-32.141 38.262,-22.113 65.766,-49.59 87.852,-87.875 22.086,-38.262 32.132,-75.813 32.132,-120.012 0,-44.176 -10.046,-81.703 -32.132,-119.988 C 426.18,82.128 398.676,54.624 360.414,32.538 322.129,10.452 284.574,0.402 240.375,0.402 c -44.172,0 -81.703,10.05 -119.961,32.136 -38.285,22.086 -65.762,49.59 -87.875,87.848 -22.09,38.285 -32.141,75.812 -32.141,119.988 0,44.199 10.051,81.75 32.141,120.012 22.113,38.285 49.59,65.762 87.875,87.875 38.258,22.09 75.789,32.141 119.961,32.141 z" /><path
         id="path5325"
         style="fill:#ffffff;fill-opacity:1;fill-rule:nonzero;stroke:none"
         d="m 322.977,276.304 c -5.219,5.223 -13.688,5.223 -18.907,0 -1.164,-1.164 -2.101,-2.531 -2.765,-4.035 -0.004,0 -0.008,0.004 -0.016,0.004 L 280.777,225.741 110.547,396.839 70.805,357.097 241.469,186.433 195.422,166.405 c 0.004,-0.007 0.004,-0.007 0.004,-0.015 -1.504,-0.664 -2.871,-1.602 -4.035,-2.762 -5.219,-5.223 -5.219,-13.687 0,-18.91 1.82,-1.813 4.129,-3.066 6.64,-3.602 0,-0.007 0,-0.011 0,-0.019 l 183.86,-55.574 -55.289,184.14 c -0.008,0 -0.012,0 -0.024,0 -0.535,2.516 -1.785,4.821 -3.601,6.641 z" /></g></g></svg>