<?xml version="1.0" encoding="UTF-8" standalone="no"?>
<svg
   xmlns:dc="http://purl.org/dc/elements/1.1/"
   xmlns:cc="http://creativecommons.org/ns#"
   xmlns:rdf="http://www.w3.org/1999/02/22-rdf-syntax-ns#"
   xmlns:svg="http://www.w3.org/2000/svg"
   xmlns="http://www.w3.org/2000/svg"
   viewBox="0 0 602.02069 602.02051"
   height="602.02051"
   width="602.02069"
   xml:space="preserve"
   version="1.1"
   id="svg4241"><metadata
     id="metadata4247"><rdf:RDF><cc:Work
         rdf:about=""><dc:format>image/svg+xml</dc:format><dc:type
           rdf:resource="http://purl.org/dc/dcmitype/StillImage" /><dc:title></dc:title></cc:Work></rdf:RDF></metadata><defs
     id="defs4245" /><g
     transform="matrix(1.25,0,0,-1.25,0,602.02049)"
     id="g4249"><g
       id="g4251"><path
         id="path4253"
         style="fill:#ffffff;fill-opacity:1;fill-rule:evenodd;stroke:none"
         d="M 70.973,70.999 C 102.176,39.8 135.773,20.382 178.371,8.968 220.988,-2.47 259.797,-2.45 302.418,8.948 c 42.621,11.434 76.223,30.852 107.426,62.047 31.183,31.188 50.578,64.774 61.992,107.371 11.418,42.633 11.418,81.426 0.008,124.063 -11.418,42.601 -30.836,76.203 -62.031,107.398 -31.188,31.188 -64.774,50.582 -107.383,62.016 -42.617,11.398 -81.438,11.414 -124.051,-0.02 C 135.785,460.405 102.195,441.011 71.016,409.827 39.816,378.628 20.402,345.027 8.965,302.405 -2.457,259.808 -2.457,220.98 8.965,178.378 20.395,135.769 39.797,102.183 70.977,70.999 l -0.004,0 z" /><path
         id="path4255"
         style="fill:#000000;fill-opacity:1;fill-rule:evenodd;stroke:none"
         d="M 240.402,480.796 C 220.008,480.792 199.613,477.933 178.277,472.21 135.621,460.777 101.957,441.335 70.734,410.112 39.488,378.87 20.035,345.187 8.578,302.511 -2.859,259.855 -2.859,220.937 8.578,178.273 19.941,135.913 39.219,102.437 70.051,71.398 l -0.043,0 0.683,-0.68 C 101.934,39.472 135.609,20.011 178.27,8.585 220.945,-2.868 259.844,-2.852 302.523,8.562 c 42.68,11.449 76.36,30.91 107.602,62.148 31.23,31.235 50.668,64.895 62.098,107.551 l 0,0.004 c 11.433,42.691 11.429,81.574 0.004,124.269 -11.434,42.657 -30.891,76.34 -62.133,107.578 -31.227,31.227 -64.891,50.668 -107.563,62.118 -21.336,5.707 -41.734,8.566 -62.129,8.566 z m 0,-0.398 c 20.36,0 40.715,-2.856 62.028,-8.555 42.609,-11.434 76.195,-30.828 107.383,-62.016 31.195,-31.195 50.613,-64.797 62.031,-107.398 11.41,-42.637 11.41,-81.43 -0.008,-124.063 C 460.422,135.769 441.027,102.183 409.844,70.995 378.645,39.796 345.039,20.382 302.418,8.948 259.797,-2.45 220.988,-2.47 178.371,8.968 135.773,20.382 102.176,39.8 70.973,70.999 l 0.004,0 c -31.18,31.188 -50.582,64.766 -62.012,107.379 -11.422,42.602 -11.422,81.43 0,124.027 11.437,42.622 30.851,76.223 62.051,107.422 31.179,31.184 64.769,50.578 107.363,61.996 21.309,5.719 41.664,8.571 62.023,8.575 z" /><path
         id="path4257"
         style="fill:#154889;fill-opacity:1;fill-rule:evenodd;stroke:none"
         d="m 76.621,76.612 c 30.141,-30.136 62.633,-48.917 103.824,-59.929 41.188,-11.047 78.743,-11.047 119.91,-0.016 41.192,11.008 73.7,29.805 103.86,59.961 30.144,30.145 48.883,62.633 59.91,103.805 11.031,41.203 11.031,78.722 0,119.929 -11.027,41.168 -29.785,73.68 -59.926,103.821 -30.16,30.156 -62.652,48.933 -103.844,59.941 -41.167,11.035 -78.722,11.031 -119.91,-0.015 C 139.254,453.097 106.777,434.339 76.637,404.198 46.477,374.038 27.688,341.53 16.672,300.343 5.641,259.179 5.641,221.62 16.672,180.448 27.688,139.261 46.461,106.773 76.621,76.612 Z" /><path
         id="path4259"
         style="fill:#ffffff;fill-opacity:1;fill-rule:nonzero;stroke:none"
         d="m 154.348,285.933 c 5.218,5.222 13.687,5.222 18.906,0 1.164,-1.164 2.101,-2.531 2.766,-4.035 0.003,0 0.007,0.004 0.015,0.004 l 23.164,-43.879 166.446,167.312 39.742,-39.742 -166.879,-166.875 43.394,-22.684 c -0.004,-0.007 -0.004,-0.007 -0.004,-0.015 1.504,-0.664 2.872,-1.602 4.036,-2.762 5.218,-5.223 5.218,-13.687 0,-18.91 -1.821,-1.813 -4.129,-3.067 -6.641,-3.602 l 0,-0.019 -183.859,-55.574 55.289,184.14 0.023,0 c 0.535,2.516 1.785,4.82 3.602,6.641 z" /></g></g></svg>