<?xml version="1.0" encoding="UTF-8" standalone="no"?>
<!-- Created with Inkscape (http://www.inkscape.org/) -->
<svg version="1.1" id="svg8317" xml:space="preserve" width="601.00201" height="601.00195" viewBox="0 0 601.00201 601.00195" xmlns="http://www.w3.org/2000/svg" xmlns:svg="http://www.w3.org/2000/svg"><defs id="defs8321"/><g id="g8323" transform="matrix(1.3333333,0,0,1.3333333,0,1.1691715e-5)"><g id="g8325"><path d="m 450.375,225.375 c 0,124.266 -100.734,225 -225,225 -124.266,0 -225,-100.734 -225,-225 0,-124.266 100.734,-225 225,-225 124.266,0 225,100.734 225,225 z" style="fill:#ffffff;fill-opacity:1;fill-rule:nonzero;stroke:none" id="path8327"/><path d="M 225.375,0 C 100.906,0 0,100.906 0,225.375 0,349.84 100.906,450.75 225.375,450.75 349.84,450.75 450.75,349.84 450.75,225.375 450.75,100.906 349.84,0 225.375,0 Z m 0,0.375 c 124.266,0 225,100.734 225,225 0,124.266 -100.734,225 -225,225 -124.266,0 -225,-100.734 -225,-225 0,-124.266 100.734,-225 225,-225 z" style="fill:#000000;fill-opacity:1;fill-rule:nonzero;stroke:none" id="path8329"/><path d="m 332.781,271.688 c 0,10.429 -2.761,18.605 -8.281,24.535 -5.52,5.929 -12.984,8.894 -22.391,8.894 -9.406,0 -16.867,-2.965 -22.386,-8.894 -5.524,-5.93 -8.282,-14.106 -8.282,-24.535 v -92.626 c 0,-10.425 2.758,-18.605 8.282,-24.535 5.519,-5.929 12.98,-8.894 22.386,-8.894 9.407,0 16.871,2.965 22.391,8.894 5.52,5.93 8.281,14.11 8.281,24.535 z m -92.625,1.839 c 0,9.817 1.637,18.606 4.906,26.375 3.477,7.774 8.079,14.418 13.801,19.938 5.93,5.519 12.578,9.711 19.938,12.574 7.359,2.66 15.129,3.988 23.308,3.988 8.18,0 15.95,-1.328 23.309,-3.988 7.566,-2.863 14.211,-6.953 19.937,-12.266 5.727,-5.523 10.223,-12.168 13.497,-19.937 3.472,-7.973 5.21,-16.867 5.21,-26.684 v -96.304 c 0,-9.813 -1.632,-18.606 -4.906,-26.375 -3.269,-7.77 -7.871,-14.414 -13.801,-19.938 -5.929,-5.519 -12.574,-9.609 -19.937,-12.265 -7.359,-2.864 -15.129,-4.297 -23.309,-4.297 -8.179,0 -16.05,1.433 -23.617,4.297 -7.359,2.656 -13.902,6.746 -19.629,12.265 -5.722,5.317 -10.324,11.961 -13.801,19.938 -3.269,7.769 -4.906,16.562 -4.906,26.375 z" style="fill:#666666;fill-opacity:1;fill-rule:nonzero;stroke:none" id="path8331"/><path d="m 121.918,178.254 c 0,10.293 3.219,18.09 9.656,23.391 6.446,5.293 13.672,7.937 21.672,7.937 7.988,0 15.207,-2.644 21.656,-7.937 6.446,-5.301 9.672,-13.098 9.672,-23.391 0,-10.195 -3.226,-17.969 -9.672,-23.313 -6.449,-5.343 -13.668,-8.015 -21.656,-8.015 -8,0 -15.226,2.672 -21.672,8.015 -6.437,5.344 -9.656,13.118 -9.656,23.313 z m -35.234,93.984 c 0,-21.281 8.593,-37.672 25.781,-49.172 -6.492,-5.789 -11.762,-12.207 -15.813,-19.25 -4.043,-7.05 -6.062,-15.375 -6.062,-24.968 0,-17.582 6.019,-32.52 18.062,-44.813 12.039,-12.289 26.907,-18.437 44.594,-18.437 17.688,0 32.551,6.148 44.594,18.437 12.039,12.293 18.062,27.231 18.062,44.813 0,9.593 -2.054,17.918 -6.156,24.968 -4.094,7.043 -9.289,13.461 -15.578,19.25 17.082,11.594 25.625,27.985 25.625,49.172 0,19.387 -6.574,35.153 -19.719,47.297 -13.136,12.149 -28.746,18.219 -46.828,18.219 -18.187,0 -33.828,-6.07 -46.922,-18.219 -13.094,-12.144 -19.64,-27.91 -19.64,-47.297 z m 31.328,-0.297 c 0,9.993 3.519,18.262 10.562,24.813 7.051,6.543 15.274,9.812 24.672,9.812 9.289,0 17.508,-3.269 24.656,-9.812 7.145,-6.551 10.719,-14.82 10.719,-24.813 0,-9.988 -3.574,-18.281 -10.719,-24.875 -7.148,-6.601 -15.367,-9.906 -24.656,-9.906 -9.398,0 -17.621,3.305 -24.672,9.906 -7.043,6.594 -10.562,14.887 -10.562,24.875 z" style="fill:#666666;fill-opacity:1;fill-rule:nonzero;stroke:none" id="path8333"/><path d="M 225.375,7.926 C 105.352,7.926 7.93,105.352 7.93,225.375 c 0,120.023 97.422,217.445 217.445,217.445 120.023,0 217.449,-97.422 217.449,-217.445 0,-120.023 -97.426,-217.449 -217.449,-217.449 z m 0,11.25 c 43.414,0 83.672,13.402 116.883,36.285 L 55.457,342.258 C 32.578,309.047 19.176,268.789 19.176,225.375 19.176,111.43 111.43,19.176 225.375,19.176 Z m 123.676,41.156 c 2.265,1.703 4.492,3.453 6.687,5.246 l -290.16,290.16 c -1.793,-2.195 -3.543,-4.422 -5.246,-6.687 z m 12.988,10.609 c 2.109,1.868 4.184,3.774 6.215,5.723 L 76.664,368.25 c -1.949,-2.027 -3.855,-4.102 -5.723,-6.211 z M 374.086,82.5 c 1.949,2.027 3.855,4.102 5.723,6.211 L 88.711,379.809 c -2.109,-1.868 -4.184,-3.774 -6.211,-5.723 z m 11.086,12.508 c 1.793,2.195 3.543,4.422 5.246,6.687 L 101.699,390.418 c -2.265,-1.703 -4.496,-3.453 -6.687,-5.246 z m 10.121,13.484 c 22.879,33.215 36.285,73.469 36.285,116.883 0,113.945 -92.258,206.195 -206.203,206.195 -43.41,0 -83.672,-13.402 -116.883,-36.281 z" style="fill:#000000;fill-opacity:1;fill-rule:nonzero;stroke:none" id="path8335"/></g></g></svg>