<?xml version="1.0" encoding="UTF-8" standalone="no"?>
<!-- Created with Inkscape (http://www.inkscape.org/) -->
<svg version="1.1" id="svg6141" xml:space="preserve" width="601.00201" height="601.00195" viewBox="0 0 601.00201 601.00195" xmlns="http://www.w3.org/2000/svg" xmlns:svg="http://www.w3.org/2000/svg"><defs id="defs6145"/><g id="g6147" transform="matrix(1.3333333,0,0,1.3333333,0,1.1691715e-5)"><g id="g6149"><path d="m 450.375,225.375 c 0,124.266 -100.734,225 -225,225 -124.266,0 -225,-100.734 -225,-225 0,-124.266 100.734,-225 225,-225 124.266,0 225,100.734 225,225 z" style="fill:#ffffff;fill-opacity:1;fill-rule:nonzero;stroke:none" id="path6151"/><path d="M 225.375,0 C 100.906,0 0,100.906 0,225.375 0,349.84 100.906,450.75 225.375,450.75 349.84,450.75 450.75,349.84 450.75,225.375 450.75,100.906 349.84,0 225.375,0 Z m 0,0.375 c 124.266,0 225,100.734 225,225 0,124.266 -100.734,225 -225,225 -124.266,0 -225,-100.734 -225,-225 0,-124.266 100.734,-225 225,-225 z" style="fill:#000000;fill-opacity:1;fill-rule:nonzero;stroke:none" id="path6153"/><path d="m 334.355,271.688 c 0,10.429 -2.761,18.605 -8.281,24.535 -5.519,5.929 -12.984,8.894 -22.39,8.894 -9.407,0 -16.868,-2.965 -22.387,-8.894 -5.524,-5.93 -8.281,-14.106 -8.281,-24.535 v -92.626 c 0,-10.425 2.757,-18.605 8.281,-24.535 5.519,-5.929 12.98,-8.894 22.387,-8.894 9.406,0 16.871,2.965 22.39,8.894 5.52,5.93 8.281,14.11 8.281,24.535 z m -92.625,1.839 c 0,9.817 1.637,18.606 4.907,26.375 3.476,7.774 8.078,14.418 13.801,19.938 5.929,5.519 12.578,9.711 19.937,12.574 7.359,2.66 15.129,3.988 23.309,3.988 8.179,0 15.949,-1.328 23.308,-3.988 7.567,-2.863 14.211,-6.953 19.938,-12.266 5.726,-5.523 10.222,-12.168 13.496,-19.937 3.472,-7.973 5.211,-16.867 5.211,-26.684 v -96.304 c 0,-9.813 -1.633,-18.606 -4.907,-26.375 -3.269,-7.77 -7.871,-14.414 -13.8,-19.938 -5.93,-5.519 -12.575,-9.609 -19.938,-12.265 -7.359,-2.864 -15.129,-4.297 -23.308,-4.297 -8.18,0 -16.051,1.433 -23.618,4.297 -7.359,2.656 -13.902,6.746 -19.628,12.265 -5.723,5.317 -10.325,11.961 -13.801,19.938 -3.27,7.769 -4.907,16.562 -4.907,26.375 z" style="fill:#666666;fill-opacity:1;fill-rule:nonzero;stroke:none" id="path6155"/><path d="m 135.18,237.16 v -27.578 h 10.797 c 10.382,0 18.597,-2.922 24.64,-8.766 6.051,-5.843 9.078,-13.265 9.078,-22.265 0,-8.895 -3.152,-16.391 -9.453,-22.485 -6.293,-6.093 -13.781,-9.14 -22.469,-9.14 -6.593,0 -12.839,2.199 -18.734,6.594 -5.898,4.398 -9.699,10.992 -11.406,19.781 H 86.305 c 1.207,-15.383 7.656,-28.848 19.343,-40.391 11.688,-11.539 25.329,-17.312 40.922,-17.312 19.489,0 35.102,6.422 46.844,19.265 11.738,12.836 17.609,27.199 17.609,43.094 0,8.398 -1.652,16.57 -4.953,24.516 -3.293,7.937 -9.433,14.804 -18.422,20.593 9.188,5.907 15.782,13.157 19.782,21.75 4,8.594 6,17.289 6,26.079 0,20.386 -6.399,36.625 -19.188,48.718 -12.793,12.094 -28.484,18.141 -47.078,18.141 -14.781,0 -28.094,-4.77 -39.937,-14.313 -11.844,-9.55 -19.215,-23.468 -22.11,-41.75 h 31.328 c 2.895,7.493 6.789,13.512 11.688,18.063 4.894,4.543 11.844,6.812 20.844,6.812 8.687,0 16.378,-3.07 23.078,-9.218 6.695,-6.145 10.047,-14.614 10.047,-25.407 0,-10.894 -3.325,-19.414 -9.969,-25.562 -6.649,-6.145 -14.571,-9.219 -23.766,-9.219 z" style="fill:#666666;fill-opacity:1;fill-rule:nonzero;stroke:none" id="path6157"/><path d="M 225.375,7.926 C 105.352,7.926 7.93,105.352 7.93,225.375 c 0,120.023 97.422,217.445 217.445,217.445 120.023,0 217.449,-97.422 217.449,-217.445 0,-120.023 -97.426,-217.449 -217.449,-217.449 z m 0,11.25 c 43.414,0 83.672,13.402 116.883,36.285 L 55.457,342.258 C 32.578,309.047 19.176,268.789 19.176,225.375 19.176,111.43 111.43,19.176 225.375,19.176 Z m 123.676,41.156 c 2.265,1.703 4.492,3.453 6.687,5.246 l -290.16,290.16 c -1.793,-2.195 -3.543,-4.422 -5.246,-6.687 z m 12.988,10.609 c 2.109,1.868 4.184,3.774 6.215,5.723 L 76.664,368.25 c -1.949,-2.027 -3.855,-4.102 -5.723,-6.211 z M 374.086,82.5 c 1.949,2.027 3.855,4.102 5.723,6.211 L 88.711,379.809 c -2.109,-1.868 -4.184,-3.774 -6.211,-5.723 z m 11.086,12.508 c 1.793,2.195 3.543,4.422 5.246,6.687 L 101.699,390.418 c -2.265,-1.703 -4.496,-3.453 -6.687,-5.246 z m 10.121,13.484 c 22.879,33.215 36.285,73.469 36.285,116.883 0,113.945 -92.258,206.195 -206.203,206.195 -43.41,0 -83.672,-13.402 -116.883,-36.281 z" style="fill:#000000;fill-opacity:1;fill-rule:nonzero;stroke:none" id="path6159"/></g></g></svg>