<?xml version="1.0" encoding="UTF-8" standalone="no"?>
<!-- Created with Inkscape (http://www.inkscape.org/) -->
<svg version="1.1" id="svg24719" xml:space="preserve" width="600.995" height="600.995" viewBox="0 0 600.995 600.995" xmlns="http://www.w3.org/2000/svg" xmlns:svg="http://www.w3.org/2000/svg"><defs id="defs24723"/><g id="g24725" transform="matrix(1.3333333,0,0,1.3333333,0,1.0358208e-5)"><g id="g24727"><path d="m 450.375,225.375 c 0,124.266 -100.734,225 -225,225 -124.266,0 -225,-100.734 -225,-225 0,-124.266 100.734,-225 225,-225 124.266,0 225,100.734 225,225 z" style="fill:#ffffff;fill-opacity:1;fill-rule:nonzero;stroke:none" id="path24729"/><path d="M 225.375,0 C 100.906,0 0,100.906 0,225.375 0,349.84 100.906,450.746 225.375,450.746 349.84,450.746 450.746,349.84 450.746,225.375 450.746,100.906 349.84,0 225.375,0 Z m 0,0.375 c 124.266,0 225,100.734 225,225 0,124.266 -100.734,225 -225,225 -124.266,0 -225,-100.734 -225,-225 0,-124.266 100.734,-225 225,-225 z" style="fill:#000000;fill-opacity:1;fill-rule:nonzero;stroke:none" id="path24731"/><path d="m 225.375,7.875 c -119.766,0 -217.5,97.734 -217.5,217.5 0,119.762 97.734,217.5 217.5,217.5 119.762,0 217.5,-97.738 217.5,-217.5 0,-119.766 -97.738,-217.5 -217.5,-217.5 z m 0,60.301 c 87.176,0 157.199,70.019 157.199,157.199 0,87.176 -70.023,157.199 -157.199,157.199 -87.18,0 -157.199,-70.023 -157.199,-157.199 0,-87.18 70.019,-157.199 157.199,-157.199 z" style="fill:#c1121c;fill-opacity:1;fill-rule:nonzero;stroke:none" id="path24733"/><path d="m 22.344,22.766 v 0.023 H 22.32 Z" style="fill:#000000;fill-opacity:1;fill-rule:nonzero;stroke:none" id="path24735"/><path d="m 22.32,22.766 h 0.023 v 0.023 H 22.32 Z" style="fill:#000000;fill-opacity:1;fill-rule:nonzero;stroke:none" id="path24737"/><path d="m 22.32,22.789 v -0.023 l 0.024,0.023 z m 0.024,0 -0.024,-0.023 v 0.023 z" style="fill:#000000;fill-opacity:1;fill-rule:nonzero;stroke:none" id="path24739"/><path d="M 22.367,22.789 H 22.32 22.344 V 22.766 Z" style="fill:#000000;fill-opacity:1;fill-rule:nonzero;stroke:none" id="path24741"/><path d="m 22.32,22.789 v -0.023 0.023 l 0.024,-0.023 z" style="fill:#000000;fill-opacity:1;fill-rule:nonzero;stroke:none" id="path24743"/><path d="m 22.32,22.766 h 0.023 v 0.023 H 22.32 Z" style="fill:#000000;fill-opacity:1;fill-rule:nonzero;stroke:none" id="path24745"/><path d="m 22.367,22.766 v 0.046 H 22.32 Z" style="fill:#000000;fill-opacity:1;fill-rule:nonzero;stroke:none" id="path24747"/><path d="m 22.32,22.766 h 0.047 v 0.047 H 22.32 Z" style="fill:#000000;fill-opacity:1;fill-rule:nonzero;stroke:none" id="path24749"/><path d="m 22.32,22.812 v -0.046 l 0.047,0.046 z m 0.047,0 -0.047,-0.046 v 0.046 z" style="fill:#000000;fill-opacity:1;fill-rule:nonzero;stroke:none" id="path24751"/><path d="M 22.367,22.812 H 22.32 22.344 V 22.766 Z" style="fill:#000000;fill-opacity:1;fill-rule:nonzero;stroke:none" id="path24753"/><path d="m 22.32,22.812 v -0.046 0.046 l 0.047,-0.046 z" style="fill:#000000;fill-opacity:1;fill-rule:nonzero;stroke:none" id="path24755"/><path d="m 22.32,22.766 h 0.047 v 0.047 H 22.32 Z" style="fill:#000000;fill-opacity:1;fill-rule:nonzero;stroke:none" id="path24757"/><path d="m 22.367,22.766 v 0.046 H 22.32 Z" style="fill:#000000;fill-opacity:1;fill-rule:nonzero;stroke:none" id="path24759"/><path d="m 22.32,22.766 h 0.047 v 0.047 H 22.32 Z" style="fill:#000000;fill-opacity:1;fill-rule:nonzero;stroke:none" id="path24761"/><path d="m 22.32,22.812 v -0.046 l 0.047,0.046 z m 0.047,0 -0.047,-0.046 v 0.046 z" style="fill:#000000;fill-opacity:1;fill-rule:nonzero;stroke:none" id="path24763"/><path d="M 22.367,22.812 H 22.32 22.344 V 22.766 Z" style="fill:#000000;fill-opacity:1;fill-rule:nonzero;stroke:none" id="path24765"/><path d="m 22.32,22.812 v -0.046 0.046 l 0.047,-0.046 z" style="fill:#000000;fill-opacity:1;fill-rule:nonzero;stroke:none" id="path24767"/><path d="m 22.32,22.766 h 0.047 v 0.047 H 22.32 Z" style="fill:#000000;fill-opacity:1;fill-rule:nonzero;stroke:none" id="path24769"/><path d="m 22.367,22.766 v 0.046 H 22.32 Z" style="fill:#000000;fill-opacity:1;fill-rule:nonzero;stroke:none" id="path24771"/><path d="m 22.32,22.766 h 0.047 v 0.047 H 22.32 Z" style="fill:#000000;fill-opacity:1;fill-rule:nonzero;stroke:none" id="path24773"/><path d="m 22.32,22.812 v -0.046 l 0.047,0.046 z m 0.047,0 -0.047,-0.046 v 0.046 z" style="fill:#000000;fill-opacity:1;fill-rule:nonzero;stroke:none" id="path24775"/><path d="M 22.367,22.812 H 22.32 22.344 V 22.766 Z" style="fill:#000000;fill-opacity:1;fill-rule:nonzero;stroke:none" id="path24777"/><path d="m 22.32,22.812 v -0.046 0.046 l 0.047,-0.046 z" style="fill:#000000;fill-opacity:1;fill-rule:nonzero;stroke:none" id="path24779"/><path d="m 22.32,22.766 h 0.047 v 0.047 H 22.32 Z" style="fill:#000000;fill-opacity:1;fill-rule:nonzero;stroke:none" id="path24781"/><path d="m 139.512,184.508 c 0,8.687 2.718,15.265 8.156,19.734 5.437,4.469 11.531,6.703 18.281,6.703 6.75,0 12.844,-2.234 18.281,-6.703 5.438,-4.469 8.157,-11.047 8.157,-19.734 0,-8.602 -2.719,-15.16 -8.157,-19.672 -5.437,-4.508 -11.531,-6.766 -18.281,-6.766 -6.75,0 -12.844,2.258 -18.281,6.766 -5.438,4.512 -8.156,11.07 -8.156,19.672 z m -29.735,79.328 c 0,-17.969 7.25,-31.801 21.75,-41.5 -5.48,-4.895 -9.929,-10.313 -13.343,-16.25 -3.418,-5.945 -5.125,-12.973 -5.125,-21.078 0,-14.844 5.082,-27.453 15.25,-37.828 10.164,-10.375 22.711,-15.563 37.64,-15.563 14.926,0 27.473,5.188 37.641,15.563 10.164,10.375 15.25,22.984 15.25,37.828 0,8.105 -1.731,15.133 -5.188,21.078 -3.461,5.937 -7.851,11.355 -13.172,16.25 14.426,9.781 21.641,23.617 21.641,41.5 0,16.367 -5.547,29.672 -16.641,39.922 -11.093,10.242 -24.273,15.359 -39.531,15.359 -15.355,0 -28.558,-5.117 -39.609,-15.359 -11.043,-10.25 -16.563,-23.555 -16.563,-39.922 z m 26.438,-0.25 c 0,8.43 2.973,15.406 8.922,20.937 5.945,5.524 12.883,8.282 20.812,8.282 7.844,0 14.781,-2.758 20.813,-8.282 6.031,-5.531 9.047,-12.507 9.047,-20.937 0,-8.438 -3.016,-15.438 -9.047,-21 -6.032,-5.57 -12.969,-8.359 -20.813,-8.359 -7.929,0 -14.867,2.789 -20.812,8.359 -5.949,5.562 -8.922,12.562 -8.922,21 z" style="fill:#000000;fill-opacity:1;fill-rule:nonzero;stroke:none" id="path24783"/><path d="m 314.531,264.586 v -78.313 c 0,-8.851 -2.386,-15.765 -7.156,-20.734 -4.762,-4.977 -11.023,-7.469 -18.781,-7.469 -7.844,0 -14.133,2.492 -18.86,7.469 -4.718,4.969 -7.078,11.883 -7.078,20.734 v 78.313 c 0,8.949 2.36,15.891 7.078,20.828 4.727,4.93 11.016,7.391 18.86,7.391 7.758,0 14.019,-2.461 18.781,-7.391 4.77,-4.937 7.156,-11.879 7.156,-20.828 z m -78.312,1.531 v -81.359 c 0,-16.946 5.312,-30.039 15.937,-39.281 10.625,-9.239 22.77,-13.86 36.438,-13.86 13.582,0 25.707,4.621 36.375,13.86 10.664,9.242 16,22.335 16,39.281 v 81.359 c 0,16.949 -5.336,30.024 -16,39.219 -10.668,9.187 -22.793,13.781 -36.375,13.781 -13.668,0 -25.813,-4.594 -36.438,-13.781 -10.625,-9.195 -15.937,-22.27 -15.937,-39.219 z" style="fill:#000000;fill-opacity:1;fill-rule:nonzero;stroke:none" id="path24785"/></g></g></svg>