<?xml version="1.0" encoding="UTF-8" standalone="no"?>
<svg xmlns:dc="http://purl.org/dc/elements/1.1/" xmlns:cc="http://creativecommons.org/ns#" xmlns:rdf="http://www.w3.org/1999/02/22-rdf-syntax-ns#" xmlns:svg="http://www.w3.org/2000/svg" xmlns="http://www.w3.org/2000/svg" viewBox="0 0 600.995 600.995" height="600.995" width="600.995" xml:space="preserve" id="svg4812" version="1.1"><metadata id="metadata4818"><rdf:RDF><cc:Work rdf:about=""><dc:format>image/svg+xml</dc:format><dc:type rdf:resource="http://purl.org/dc/dcmitype/StillImage"/><dc:title/></cc:Work></rdf:RDF></metadata><defs id="defs4816"/><g transform="matrix(1.3333333,0,0,-1.3333333,0,600.99499)" id="g4820"><g id="g4822"><path id="path4824" style="fill:#ffffff;fill-opacity:1;fill-rule:nonzero;stroke:none" d="m 450.375,225.371 c 0,-124.265 -100.734,-225 -225,-225 -124.266,0 -225,100.735 -225,225 0,124.266 100.734,225 225,225 124.266,0 225,-100.734 225,-225 z"/><path id="path4826" style="fill:#000000;fill-opacity:1;fill-rule:nonzero;stroke:none" d="M 225.375,450.746 C 100.906,450.746 0,349.84 0,225.371 0,100.906 100.906,0 225.375,0 349.84,0 450.746,100.906 450.746,225.371 c 0,124.469 -100.906,225.375 -225.371,225.375 z m 0,-0.375 c 124.266,0 225,-100.734 225,-225 0,-124.265 -100.734,-225 -225,-225 -124.266,0 -225,100.735 -225,225 0,124.266 100.734,225 225,225 z"/><path id="path4828" style="fill:#c1121c;fill-opacity:1;fill-rule:nonzero;stroke:none" d="m 225.375,442.871 c -119.766,0 -217.5,-97.734 -217.5,-217.5 0,-119.761 97.734,-217.5 217.5,-217.5 119.762,0 217.5,97.739 217.5,217.5 0,119.766 -97.738,217.5 -217.5,217.5 z m 0,-60.301 c 87.176,0 157.199,-70.019 157.199,-157.199 0,-87.176 -70.023,-157.199 -157.199,-157.199 -87.18,0 -157.199,70.023 -157.199,157.199 0,87.18 70.019,157.199 157.199,157.199 z"/><path id="path4830" style="fill:#000000;fill-opacity:1;fill-rule:nonzero;stroke:none" d="m 22.344,427.981 v -0.024 H 22.32 Z"/><path id="path4832" style="fill:#000000;fill-opacity:1;fill-rule:nonzero;stroke:none" d="m 22.32,427.981 h 0.023 v -0.023 H 22.32 Z"/><path id="path4834" style="fill:#000000;fill-opacity:1;fill-rule:nonzero;stroke:none" d="m 22.32,427.957 v 0.024 l 0.024,-0.024 z m 0.024,0 -0.024,0.024 v -0.024 z"/><path id="path4836" style="fill:#000000;fill-opacity:1;fill-rule:nonzero;stroke:none" d="m 22.367,427.957 h -0.047 0.024 v 0.024 z"/><path id="path4838" style="fill:#000000;fill-opacity:1;fill-rule:nonzero;stroke:none" d="m 22.32,427.957 v 0.024 -0.024 l 0.024,0.024 z"/><path id="path4840" style="fill:#000000;fill-opacity:1;fill-rule:nonzero;stroke:none" d="m 22.32,427.981 h 0.023 v -0.023 H 22.32 Z"/><path id="path4842" style="fill:#000000;fill-opacity:1;fill-rule:nonzero;stroke:none" d="m 22.367,427.981 v -0.047 H 22.32 Z"/><path id="path4844" style="fill:#000000;fill-opacity:1;fill-rule:nonzero;stroke:none" d="m 22.32,427.981 h 0.047 v -0.047 H 22.32 Z"/><path id="path4846" style="fill:#000000;fill-opacity:1;fill-rule:nonzero;stroke:none" d="m 22.32,427.934 v 0.047 l 0.047,-0.047 z m 0.047,0 -0.047,0.047 v -0.047 z"/><path id="path4848" style="fill:#000000;fill-opacity:1;fill-rule:nonzero;stroke:none" d="m 22.367,427.934 h -0.047 0.024 v 0.047 z"/><path id="path4850" style="fill:#000000;fill-opacity:1;fill-rule:nonzero;stroke:none" d="m 22.32,427.934 v 0.047 -0.047 l 0.047,0.047 z"/><path id="path4852" style="fill:#000000;fill-opacity:1;fill-rule:nonzero;stroke:none" d="m 22.32,427.981 h 0.047 v -0.047 H 22.32 Z"/><path id="path4854" style="fill:#000000;fill-opacity:1;fill-rule:nonzero;stroke:none" d="m 22.367,427.981 v -0.047 H 22.32 Z"/><path id="path4856" style="fill:#000000;fill-opacity:1;fill-rule:nonzero;stroke:none" d="m 22.32,427.981 h 0.047 v -0.047 H 22.32 Z"/><path id="path4858" style="fill:#000000;fill-opacity:1;fill-rule:nonzero;stroke:none" d="m 22.32,427.934 v 0.047 l 0.047,-0.047 z m 0.047,0 -0.047,0.047 v -0.047 z"/><path id="path4860" style="fill:#000000;fill-opacity:1;fill-rule:nonzero;stroke:none" d="m 22.367,427.934 h -0.047 0.024 v 0.047 z"/><path id="path4862" style="fill:#000000;fill-opacity:1;fill-rule:nonzero;stroke:none" d="m 22.32,427.934 v 0.047 -0.047 l 0.047,0.047 z"/><path id="path4864" style="fill:#000000;fill-opacity:1;fill-rule:nonzero;stroke:none" d="m 22.32,427.981 h 0.047 v -0.047 H 22.32 Z"/><path id="path4866" style="fill:#000000;fill-opacity:1;fill-rule:nonzero;stroke:none" d="m 22.367,427.981 v -0.047 H 22.32 Z"/><path id="path4868" style="fill:#000000;fill-opacity:1;fill-rule:nonzero;stroke:none" d="m 22.32,427.981 h 0.047 v -0.047 H 22.32 Z"/><path id="path4870" style="fill:#000000;fill-opacity:1;fill-rule:nonzero;stroke:none" d="m 22.32,427.934 v 0.047 l 0.047,-0.047 z m 0.047,0 -0.047,0.047 v -0.047 z"/><path id="path4872" style="fill:#000000;fill-opacity:1;fill-rule:nonzero;stroke:none" d="m 22.367,427.934 h -0.047 0.024 v 0.047 z"/><path id="path4874" style="fill:#000000;fill-opacity:1;fill-rule:nonzero;stroke:none" d="m 22.32,427.934 v 0.047 -0.047 l 0.047,0.047 z"/><path id="path4876" style="fill:#000000;fill-opacity:1;fill-rule:nonzero;stroke:none" d="m 22.32,427.981 h 0.047 v -0.047 H 22.32 Z"/><path id="path4878" style="fill:#000000;fill-opacity:1;fill-rule:nonzero;stroke:none" d="m 127.031,289.598 -26.414,-19.422 v 27.969 l 26.414,19.422 h 26.414 V 133.176 h -26.414 z"/><path id="path4880" style="fill:#000000;fill-opacity:1;fill-rule:nonzero;stroke:none" d="m 173.062,158.035 47.653,89.867 c 2.414,4.489 3.797,8.375 4.14,11.653 0.348,3.453 0.52,7.683 0.52,12.691 0,2.246 -0.086,4.574 -0.258,6.992 -0.172,2.59 -0.691,4.836 -1.555,6.735 -0.691,1.898 -1.898,3.453 -3.624,4.66 -1.727,1.383 -4.231,2.074 -7.512,2.074 -3.969,0 -7.164,-1.125 -9.582,-3.367 -2.246,-2.246 -3.367,-5.527 -3.367,-9.844 v -15.019 h -26.415 v 14.504 c 0,5.523 1.036,10.703 3.106,15.539 2.074,4.832 4.836,9.062 8.289,12.687 3.625,3.625 7.855,6.477 12.688,8.547 4.835,2.246 10.015,3.367 15.539,3.367 6.906,0 12.777,-1.293 17.613,-3.883 5.004,-2.418 9.062,-5.785 12.172,-10.101 3.277,-4.317 5.609,-9.238 6.992,-14.762 1.555,-5.523 2.328,-11.394 2.328,-17.609 0,-4.492 -0.086,-8.289 -0.258,-11.399 -0.172,-2.933 -0.515,-5.781 -1.035,-8.543 -0.519,-2.765 -1.383,-5.527 -2.59,-8.289 -1.207,-2.761 -2.847,-6.129 -4.922,-10.101 L 204.141,159.59 h 47.648 v -26.414 h -78.727 z"/><path id="path4882" style="fill:#000000;fill-opacity:1;fill-rule:nonzero;stroke:none" d="m 271.406,279.496 c 0,6.219 1.035,11.742 3.106,16.574 2.246,4.836 5.179,8.981 8.804,12.434 3.629,3.453 7.77,6.043 12.434,7.77 4.832,1.898 9.84,2.847 15.02,2.847 5.179,0 10.101,-0.949 14.761,-2.847 4.836,-1.727 9.067,-4.317 12.692,-7.77 3.625,-3.453 6.472,-7.598 8.547,-12.434 2.242,-4.832 3.363,-10.355 3.363,-16.574 v -108.25 c 0,-6.219 -1.121,-11.742 -3.363,-16.574 -2.075,-4.836 -4.922,-8.98 -8.547,-12.434 -3.625,-3.453 -7.856,-6.128 -12.692,-8.027 -4.66,-1.726 -9.582,-2.59 -14.761,-2.59 -5.18,0 -10.188,0.864 -15.02,2.59 -4.664,1.899 -8.805,4.574 -12.434,8.027 -3.625,3.454 -6.558,7.598 -8.804,12.434 -2.071,4.832 -3.106,10.355 -3.106,16.574 z m 26.414,-108.25 c 0,-3.801 1.211,-6.992 3.625,-9.582 2.418,-2.418 5.528,-3.629 9.325,-3.629 3.796,0 6.906,1.211 9.324,3.629 2.418,2.59 3.625,5.781 3.625,9.582 v 108.25 c 0,3.801 -1.207,6.906 -3.625,9.324 -2.418,2.59 -5.528,3.887 -9.324,3.887 -3.797,0 -6.907,-1.297 -9.325,-3.887 -2.414,-2.418 -3.625,-5.523 -3.625,-9.324 z"/></g></g></svg>