<?xml version="1.0" encoding="UTF-8" standalone="no"?>
<svg xmlns:dc="http://purl.org/dc/elements/1.1/" xmlns:cc="http://creativecommons.org/ns#" xmlns:rdf="http://www.w3.org/1999/02/22-rdf-syntax-ns#" xmlns:svg="http://www.w3.org/2000/svg" xmlns="http://www.w3.org/2000/svg" viewBox="0 0 601.00201 601.00195" height="601.00195" width="601.00201" xml:space="preserve" id="svg73" version="1.1"><metadata id="metadata79"><rdf:RDF><cc:Work rdf:about=""><dc:format>image/svg+xml</dc:format><dc:type rdf:resource="http://purl.org/dc/dcmitype/StillImage"/><dc:title/></cc:Work></rdf:RDF></metadata><defs id="defs77"/><g transform="matrix(1.3333333,0,0,1.3333333,0,1.1691715e-5)" id="g81"><g id="g83"><path id="path85" style="fill:#ffffff;fill-opacity:1;fill-rule:nonzero;stroke:none" d="m 450.375,225.375 c 0,124.266 -100.734,225 -225,225 -124.266,0 -225,-100.734 -225,-225 0,-124.266 100.734,-225 225,-225 124.266,0 225,100.734 225,225 z"/><path id="path87" style="fill:#000000;fill-opacity:1;fill-rule:nonzero;stroke:none" d="M 225.375,0 C 100.906,0 0,100.906 0,225.375 0,349.84 100.906,450.75 225.375,450.75 349.84,450.75 450.75,349.84 450.75,225.375 450.75,100.906 349.84,0 225.375,0 Z m 0,0.375 c 124.266,0 225,100.734 225,225 0,124.266 -100.734,225 -225,225 -124.266,0 -225,-100.734 -225,-225 0,-124.266 100.734,-225 225,-225 z"/><path id="path89" style="fill:#666666;fill-opacity:1;fill-rule:nonzero;stroke:none" d="m 99.246,234.27 h 29.442 c 3.679,-6.34 7.769,-10.938 12.269,-13.801 4.496,-2.864 9.813,-4.293 15.949,-4.293 12.063,0 20.344,3.679 24.844,11.039 4.496,7.156 6.746,17.484 6.746,30.976 0,7.157 -0.203,13.192 -0.613,18.098 -0.41,4.703 -1.637,9.301 -3.68,13.801 -1.84,4.5 -4.91,8.18 -9.203,11.043 -4.293,2.656 -10.02,3.984 -17.176,3.984 -8.586,0 -15.539,-2.25 -20.855,-6.746 -5.317,-4.5 -8.793,-10.734 -10.426,-18.711 H 95.258 c 1.023,9.817 3.578,18.403 7.668,25.766 4.09,7.156 9.097,13.086 15.027,17.789 5.93,4.496 12.371,7.871 19.324,10.121 7.157,2.043 14.414,3.066 21.774,3.066 10.019,0 19.121,-2.25 27.297,-6.746 8.179,-4.5 14.824,-10.019 19.937,-16.562 4.906,-6.34 8.383,-13.192 10.426,-20.551 2.047,-7.359 3.066,-17.992 3.066,-31.898 0,-17.172 -1.226,-29.645 -3.679,-37.415 -2.453,-7.976 -6.95,-15.437 -13.493,-22.39 -4.296,-4.703 -9.917,-8.485 -16.871,-11.348 -6.949,-3.066 -14.312,-4.601 -22.082,-4.601 -13.289,0 -24.945,3.988 -34.964,11.961 v -49.379 h 86.796 V 116.191 H 99.246 Z"/><path id="path91" style="fill:#666666;fill-opacity:1;fill-rule:nonzero;stroke:none" d="m 335.551,271.688 c 0,10.429 -2.762,18.605 -8.281,24.535 -5.52,5.929 -12.985,8.894 -22.391,8.894 -9.406,0 -16.867,-2.965 -22.387,-8.894 -5.523,-5.93 -8.281,-14.106 -8.281,-24.535 v -92.625 c 0,-10.426 2.758,-18.606 8.281,-24.536 5.52,-5.929 12.981,-8.894 22.387,-8.894 9.406,0 16.871,2.965 22.391,8.894 5.519,5.93 8.281,14.11 8.281,24.536 z m -92.625,1.839 c 0,9.817 1.637,18.606 4.906,26.375 3.477,7.774 8.078,14.418 13.801,19.938 5.93,5.519 12.578,9.711 19.937,12.574 7.36,2.66 15.129,3.988 23.309,3.988 8.18,0 15.949,-1.328 23.309,-3.988 7.566,-2.863 14.21,-6.953 19.937,-12.266 5.727,-5.523 10.223,-12.168 13.496,-19.937 3.473,-7.973 5.211,-16.867 5.211,-26.684 v -96.304 c 0,-9.813 -1.633,-18.606 -4.906,-26.375 -3.27,-7.77 -7.871,-14.414 -13.801,-19.938 -5.93,-5.519 -12.574,-9.609 -19.937,-12.265 -7.36,-2.864 -15.129,-4.297 -23.309,-4.297 -8.18,0 -16.051,1.433 -23.617,4.297 -7.36,2.656 -13.903,6.746 -19.629,12.265 -5.723,5.317 -10.324,11.961 -13.801,19.938 -3.269,7.769 -4.906,16.562 -4.906,26.375 z"/><path id="path93" style="fill:#000000;fill-opacity:1;fill-rule:nonzero;stroke:none" d="M 225.375,7.926 C 105.352,7.926 7.93,105.352 7.93,225.375 c 0,120.023 97.422,217.445 217.445,217.445 120.023,0 217.449,-97.422 217.449,-217.445 0,-120.023 -97.426,-217.449 -217.449,-217.449 z m 0,11.25 c 43.414,0 83.672,13.402 116.883,36.285 L 55.457,342.258 C 32.578,309.047 19.176,268.789 19.176,225.375 19.176,111.43 111.43,19.176 225.375,19.176 Z m 123.676,41.156 c 2.265,1.703 4.492,3.453 6.687,5.246 l -290.16,290.16 c -1.793,-2.195 -3.543,-4.422 -5.246,-6.687 z m 12.988,10.609 c 2.109,1.868 4.184,3.774 6.215,5.723 L 76.664,368.25 c -1.949,-2.027 -3.855,-4.102 -5.723,-6.211 z M 374.086,82.5 c 1.949,2.027 3.855,4.102 5.723,6.211 L 88.711,379.809 c -2.109,-1.868 -4.184,-3.774 -6.211,-5.723 z m 11.086,12.508 c 1.793,2.195 3.543,4.422 5.246,6.687 L 101.699,390.418 c -2.265,-1.703 -4.496,-3.453 -6.687,-5.246 z m 10.121,13.484 c 22.879,33.215 36.285,73.469 36.285,116.883 0,113.945 -92.258,206.195 -206.203,206.195 -43.41,0 -83.672,-13.402 -116.883,-36.281 z"/></g></g></svg>