<?xml version="1.0" encoding="UTF-8" standalone="no"?>
<svg xmlns:dc="http://purl.org/dc/elements/1.1/" xmlns:cc="http://creativecommons.org/ns#" xmlns:rdf="http://www.w3.org/1999/02/22-rdf-syntax-ns#" xmlns:svg="http://www.w3.org/2000/svg" xmlns="http://www.w3.org/2000/svg" viewBox="0 0 601 604.72064" height="604.72064" width="601" xml:space="preserve" id="svg4796" version="1.1"><metadata id="metadata4802"><rdf:RDF><cc:Work rdf:about=""><dc:format>image/svg+xml</dc:format><dc:type rdf:resource="http://purl.org/dc/dcmitype/StillImage"/><dc:title/></cc:Work></rdf:RDF></metadata><defs id="defs4800"/><g transform="matrix(1.3333333,0,0,-1.3333333,0,604.72066)" id="g4804"><g id="g4806"><path id="path4808" style="fill:#ffffff;fill-opacity:1;fill-rule:nonzero;stroke:none" d="m 450.375,226.771 c 0,-125.035 -100.734,-226.395 -225,-226.395 -124.266,0 -225,101.36 -225,226.395 0,125.035 100.734,226.391 225,226.391 124.266,0 225,-101.356 225,-226.391 z"/><path id="path4810" style="fill:#666666;fill-opacity:1;fill-rule:nonzero;stroke:none" d="m 167.477,218.822 v 117.082 h 115.3 v -31.055 h -86.031 v -48.883 c 9.906,7.926 21.445,11.887 34.621,11.887 8.223,0 15.699,-1.586 22.438,-4.754 6.832,-3.172 12.23,-6.883 16.195,-11.144 5.941,-6.438 10.25,-13.473 12.926,-21.098 2.773,-7.527 4.16,-20.258 4.16,-38.188 0,-14.558 -1.09,-25.406 -3.27,-32.539 -2.078,-7.031 -5.449,-13.519 -10.101,-19.465 -4.457,-5.644 -10.699,-10.894 -18.723,-15.75 -8.023,-4.851 -17.433,-7.277 -28.23,-7.277 -13.969,0 -27.438,4.309 -40.414,12.926 -12.977,8.617 -20.606,23.031 -22.883,43.238 h 31.055 c 3.664,-16.84 14.015,-25.262 31.054,-25.262 15.153,0 24.02,5.204 26.594,15.602 2.578,10.402 3.863,20.703 3.863,30.906 0,11.985 -2.031,21.942 -6.09,29.864 -4.062,7.925 -12.48,11.886 -25.261,11.886 -11.985,0 -21.297,-5.992 -27.934,-17.976 z"/><path id="path4812" style="fill:#000000;fill-opacity:1;fill-rule:nonzero;stroke:none" d="M 225.375,453.54 C 100.906,453.54 0,352.009 0,226.771 0,101.537 100.906,0.001 225.375,0.001 c 124.465,0 225.375,101.536 225.375,226.77 0,125.238 -100.91,226.769 -225.375,226.769 z m 0,-0.378 c 124.266,0 225,-101.356 225,-226.391 0,-125.035 -100.734,-226.395 -225,-226.395 -124.266,0 -225,101.36 -225,226.395 0,125.035 100.734,226.391 225,226.391 z"/><path id="path4814" style="fill:#000000;fill-opacity:1;fill-rule:nonzero;stroke:none" d="M 225.375,445.564 C 105.352,445.564 7.93,347.537 7.93,226.771 7.93,106.005 105.352,7.978 225.375,7.978 c 120.023,0 217.449,98.027 217.449,218.793 0,120.766 -97.426,218.793 -217.449,218.793 z m 0,-11.316 c 43.414,0 83.672,-13.489 116.883,-36.512 L 55.457,109.165 c -22.879,33.415 -36.281,73.922 -36.281,117.606 0,114.648 92.254,207.477 206.199,207.477 z m 123.676,-41.415 c 2.265,-1.71 4.492,-3.472 6.687,-5.277 L 65.578,95.599 c -1.793,2.211 -3.543,4.449 -5.246,6.731 z m 12.988,-10.671 c 2.109,-1.879 4.184,-3.797 6.215,-5.758 L 76.664,83.009 c -1.949,2.043 -3.855,4.129 -5.723,6.25 z m 12.047,-11.633 c 1.949,-2.039 3.855,-4.125 5.723,-6.25 L 88.711,71.38 c -2.109,1.879 -4.184,3.797 -6.211,5.758 z m 11.086,-12.586 c 1.793,-2.207 3.543,-4.449 5.246,-6.727 L 101.699,60.705 c -2.265,1.714 -4.496,3.476 -6.687,5.281 z m 10.121,-13.567 c 22.879,-33.421 36.285,-73.921 36.285,-117.605 0,-114.652 -92.258,-207.473 -206.203,-207.473 -43.41,0 -83.672,13.485 -116.883,36.508 z"/></g></g></svg>