<?xml version="1.0" encoding="UTF-8" standalone="no"?>
<!-- Created with Inkscape (http://www.inkscape.org/) -->
<svg version="1.1" id="svg16340" xml:space="preserve" width="600.995" height="600.995" viewBox="0 0 600.995 600.995" xmlns="http://www.w3.org/2000/svg" xmlns:svg="http://www.w3.org/2000/svg"><defs id="defs16344"/><g id="g16346" transform="matrix(1.3333333,0,0,1.3333333,0,1.0358208e-5)"><g id="g16348"><path d="m 450.375,225.375 c 0,124.266 -100.734,225 -225,225 -124.266,0 -225,-100.734 -225,-225 0,-124.266 100.734,-225 225,-225 124.266,0 225,100.734 225,225 z" style="fill:#ffffff;fill-opacity:1;fill-rule:nonzero;stroke:none" id="path16350"/><path d="M 225.375,0 C 100.906,0 0,100.906 0,225.375 0,349.84 100.906,450.746 225.375,450.746 349.84,450.746 450.746,349.84 450.746,225.375 450.746,100.906 349.84,0 225.375,0 Z m 0,0.375 c 124.266,0 225,100.734 225,225 0,124.266 -100.734,225 -225,225 -124.266,0 -225,-100.734 -225,-225 0,-124.266 100.734,-225 225,-225 z" style="fill:#000000;fill-opacity:1;fill-rule:nonzero;stroke:none" id="path16352"/><path d="m 225.375,7.875 c -119.766,0 -217.5,97.734 -217.5,217.5 0,119.762 97.734,217.5 217.5,217.5 119.762,0 217.5,-97.738 217.5,-217.5 0,-119.766 -97.738,-217.5 -217.5,-217.5 z m 0,60.301 c 87.176,0 157.199,70.019 157.199,157.199 0,87.176 -70.023,157.199 -157.199,157.199 -87.18,0 -157.199,-70.023 -157.199,-157.199 0,-87.18 70.019,-157.199 157.199,-157.199 z" style="fill:#c1121c;fill-opacity:1;fill-rule:nonzero;stroke:none" id="path16354"/><path d="m 22.344,22.766 v 0.023 H 22.32 Z" style="fill:#000000;fill-opacity:1;fill-rule:nonzero;stroke:none" id="path16356"/><path d="m 22.32,22.766 h 0.023 v 0.023 H 22.32 Z" style="fill:#000000;fill-opacity:1;fill-rule:nonzero;stroke:none" id="path16358"/><path d="m 22.32,22.789 v -0.023 l 0.024,0.023 z m 0.024,0 -0.024,-0.023 v 0.023 z" style="fill:#000000;fill-opacity:1;fill-rule:nonzero;stroke:none" id="path16360"/><path d="M 22.367,22.789 H 22.32 22.344 V 22.766 Z" style="fill:#000000;fill-opacity:1;fill-rule:nonzero;stroke:none" id="path16362"/><path d="m 22.32,22.789 v -0.023 0.023 l 0.024,-0.023 z" style="fill:#000000;fill-opacity:1;fill-rule:nonzero;stroke:none" id="path16364"/><path d="m 22.32,22.766 h 0.023 v 0.023 H 22.32 Z" style="fill:#000000;fill-opacity:1;fill-rule:nonzero;stroke:none" id="path16366"/><path d="m 22.367,22.766 v 0.046 H 22.32 Z" style="fill:#000000;fill-opacity:1;fill-rule:nonzero;stroke:none" id="path16368"/><path d="m 22.32,22.766 h 0.047 v 0.047 H 22.32 Z" style="fill:#000000;fill-opacity:1;fill-rule:nonzero;stroke:none" id="path16370"/><path d="m 22.32,22.812 v -0.046 l 0.047,0.046 z m 0.047,0 -0.047,-0.046 v 0.046 z" style="fill:#000000;fill-opacity:1;fill-rule:nonzero;stroke:none" id="path16372"/><path d="M 22.367,22.812 H 22.32 22.344 V 22.766 Z" style="fill:#000000;fill-opacity:1;fill-rule:nonzero;stroke:none" id="path16374"/><path d="m 22.32,22.812 v -0.046 0.046 l 0.047,-0.046 z" style="fill:#000000;fill-opacity:1;fill-rule:nonzero;stroke:none" id="path16376"/><path d="m 22.32,22.766 h 0.047 v 0.047 H 22.32 Z" style="fill:#000000;fill-opacity:1;fill-rule:nonzero;stroke:none" id="path16378"/><path d="m 22.367,22.766 v 0.046 H 22.32 Z" style="fill:#000000;fill-opacity:1;fill-rule:nonzero;stroke:none" id="path16380"/><path d="m 22.32,22.766 h 0.047 v 0.047 H 22.32 Z" style="fill:#000000;fill-opacity:1;fill-rule:nonzero;stroke:none" id="path16382"/><path d="m 22.32,22.812 v -0.046 l 0.047,0.046 z m 0.047,0 -0.047,-0.046 v 0.046 z" style="fill:#000000;fill-opacity:1;fill-rule:nonzero;stroke:none" id="path16384"/><path d="M 22.367,22.812 H 22.32 22.344 V 22.766 Z" style="fill:#000000;fill-opacity:1;fill-rule:nonzero;stroke:none" id="path16386"/><path d="m 22.32,22.812 v -0.046 0.046 l 0.047,-0.046 z" style="fill:#000000;fill-opacity:1;fill-rule:nonzero;stroke:none" id="path16388"/><path d="m 22.32,22.766 h 0.047 v 0.047 H 22.32 Z" style="fill:#000000;fill-opacity:1;fill-rule:nonzero;stroke:none" id="path16390"/><path d="m 22.367,22.766 v 0.046 H 22.32 Z" style="fill:#000000;fill-opacity:1;fill-rule:nonzero;stroke:none" id="path16392"/><path d="m 22.32,22.766 h 0.047 v 0.047 H 22.32 Z" style="fill:#000000;fill-opacity:1;fill-rule:nonzero;stroke:none" id="path16394"/><path d="m 22.32,22.812 v -0.046 l 0.047,0.046 z m 0.047,0 -0.047,-0.046 v 0.046 z" style="fill:#000000;fill-opacity:1;fill-rule:nonzero;stroke:none" id="path16396"/><path d="M 22.367,22.812 H 22.32 22.344 V 22.766 Z" style="fill:#000000;fill-opacity:1;fill-rule:nonzero;stroke:none" id="path16398"/><path d="m 22.32,22.812 v -0.046 0.046 l 0.047,-0.046 z" style="fill:#000000;fill-opacity:1;fill-rule:nonzero;stroke:none" id="path16400"/><path d="m 22.32,22.766 h 0.047 v 0.047 H 22.32 Z" style="fill:#000000;fill-opacity:1;fill-rule:nonzero;stroke:none" id="path16402"/><path d="m 212.961,219.762 -50,100 h -29.844 l 39.281,-78.703 h -0.515 c -4.25,1.617 -8.969,2.421 -14.156,2.421 -11.907,0 -22.282,-4.117 -31.125,-12.359 -8.93,-8.164 -13.391,-21.348 -13.391,-39.547 0,-21.344 5.656,-36.601 16.969,-45.781 11.394,-9.27 24.066,-13.906 38.015,-13.906 12.914,0 24.817,5.101 35.703,15.297 10.801,10.211 16.204,24.07 16.204,41.578 0,11.312 -2.383,21.648 -7.141,31 z m -46.297,0 c 7.395,0 13.688,-2.461 18.875,-7.391 5.188,-4.758 7.781,-12.457 7.781,-23.094 0,-20.488 -8.886,-30.734 -26.656,-30.734 -6.211,0 -12.203,2.34 -17.984,7.016 -5.875,4.761 -8.813,12.668 -8.813,23.718 0,10.543 2.594,18.243 7.781,23.094 5.102,4.93 11.442,7.391 19.016,7.391 z" style="fill:#000000;fill-opacity:1;fill-rule:nonzero;stroke:none" id="path16404"/><path d="m 313.352,264.586 v -78.313 c 0,-8.851 -2.387,-15.765 -7.157,-20.734 -4.761,-4.977 -11.023,-7.469 -18.781,-7.469 -7.844,0 -14.133,2.492 -18.859,7.469 -4.719,4.969 -7.078,11.883 -7.078,20.734 v 78.313 c 0,8.949 2.359,15.891 7.078,20.828 4.726,4.93 11.015,7.391 18.859,7.391 7.758,0 14.02,-2.461 18.781,-7.391 4.77,-4.937 7.157,-11.879 7.157,-20.828 z m -78.313,1.531 v -81.359 c 0,-16.946 5.313,-30.039 15.938,-39.281 10.625,-9.239 22.769,-13.86 36.437,-13.86 13.582,0 25.707,4.621 36.375,13.86 10.664,9.242 16,22.335 16,39.281 v 81.359 c 0,16.949 -5.336,30.024 -16,39.219 -10.668,9.187 -22.793,13.781 -36.375,13.781 -13.668,0 -25.812,-4.594 -36.437,-13.781 -10.625,-9.195 -15.938,-22.27 -15.938,-39.219 z" style="fill:#000000;fill-opacity:1;fill-rule:nonzero;stroke:none" id="path16406"/></g></g></svg>