<?xml version="1.0" encoding="UTF-8" standalone="no"?>
<svg xmlns:dc="http://purl.org/dc/elements/1.1/" xmlns:cc="http://creativecommons.org/ns#" xmlns:rdf="http://www.w3.org/1999/02/22-rdf-syntax-ns#" xmlns:svg="http://www.w3.org/2000/svg" xmlns="http://www.w3.org/2000/svg" viewBox="0 0 600.995 600.995" height="600.995" width="600.995" xml:space="preserve" id="svg4816" version="1.1"><metadata id="metadata4822"><rdf:RDF><cc:Work rdf:about=""><dc:format>image/svg+xml</dc:format><dc:type rdf:resource="http://purl.org/dc/dcmitype/StillImage"/><dc:title/></cc:Work></rdf:RDF></metadata><defs id="defs4820"/><g transform="matrix(1.3333333,0,0,-1.3333333,0,600.99499)" id="g4824"><g id="g4826"><path id="path4828" style="fill:#ffffff;fill-opacity:1;fill-rule:nonzero;stroke:none" d="m 450.375,225.371 c 0,-124.265 -100.734,-225 -225,-225 -124.266,0 -225,100.735 -225,225 0,124.266 100.734,225 225,225 124.266,0 225,-100.734 225,-225 z"/><path id="path4830" style="fill:#000000;fill-opacity:1;fill-rule:nonzero;stroke:none" d="M 225.375,450.746 C 100.906,450.746 0,349.84 0,225.371 0,100.906 100.906,0 225.375,0 349.84,0 450.746,100.906 450.746,225.371 c 0,124.469 -100.906,225.375 -225.371,225.375 z m 0,-0.375 c 124.266,0 225,-100.734 225,-225 0,-124.265 -100.734,-225 -225,-225 -124.266,0 -225,100.735 -225,225 0,124.266 100.734,225 225,225 z"/><path id="path4832" style="fill:#c1121c;fill-opacity:1;fill-rule:nonzero;stroke:none" d="m 225.375,442.871 c -119.766,0 -217.5,-97.734 -217.5,-217.5 0,-119.761 97.734,-217.5 217.5,-217.5 119.762,0 217.5,97.739 217.5,217.5 0,119.766 -97.738,217.5 -217.5,217.5 z m 0,-60.301 c 87.176,0 157.199,-70.019 157.199,-157.199 0,-87.176 -70.023,-157.199 -157.199,-157.199 -87.18,0 -157.199,70.023 -157.199,157.199 0,87.18 70.019,157.199 157.199,157.199 z"/><path id="path4834" style="fill:#000000;fill-opacity:1;fill-rule:nonzero;stroke:none" d="m 22.344,427.981 v -0.024 H 22.32 Z"/><path id="path4836" style="fill:#000000;fill-opacity:1;fill-rule:nonzero;stroke:none" d="m 22.32,427.981 h 0.023 v -0.023 H 22.32 Z"/><path id="path4838" style="fill:#000000;fill-opacity:1;fill-rule:nonzero;stroke:none" d="m 22.32,427.957 v 0.024 l 0.024,-0.024 z m 0.024,0 -0.024,0.024 v -0.024 z"/><path id="path4840" style="fill:#000000;fill-opacity:1;fill-rule:nonzero;stroke:none" d="m 22.367,427.957 h -0.047 0.024 v 0.024 z"/><path id="path4842" style="fill:#000000;fill-opacity:1;fill-rule:nonzero;stroke:none" d="m 22.32,427.957 v 0.024 -0.024 l 0.024,0.024 z"/><path id="path4844" style="fill:#000000;fill-opacity:1;fill-rule:nonzero;stroke:none" d="m 22.32,427.981 h 0.023 v -0.023 H 22.32 Z"/><path id="path4846" style="fill:#000000;fill-opacity:1;fill-rule:nonzero;stroke:none" d="m 22.367,427.981 v -0.047 H 22.32 Z"/><path id="path4848" style="fill:#000000;fill-opacity:1;fill-rule:nonzero;stroke:none" d="m 22.32,427.981 h 0.047 v -0.047 H 22.32 Z"/><path id="path4850" style="fill:#000000;fill-opacity:1;fill-rule:nonzero;stroke:none" d="m 22.32,427.934 v 0.047 l 0.047,-0.047 z m 0.047,0 -0.047,0.047 v -0.047 z"/><path id="path4852" style="fill:#000000;fill-opacity:1;fill-rule:nonzero;stroke:none" d="m 22.367,427.934 h -0.047 0.024 v 0.047 z"/><path id="path4854" style="fill:#000000;fill-opacity:1;fill-rule:nonzero;stroke:none" d="m 22.32,427.934 v 0.047 -0.047 l 0.047,0.047 z"/><path id="path4856" style="fill:#000000;fill-opacity:1;fill-rule:nonzero;stroke:none" d="m 22.32,427.981 h 0.047 v -0.047 H 22.32 Z"/><path id="path4858" style="fill:#000000;fill-opacity:1;fill-rule:nonzero;stroke:none" d="m 22.367,427.981 v -0.047 H 22.32 Z"/><path id="path4860" style="fill:#000000;fill-opacity:1;fill-rule:nonzero;stroke:none" d="m 22.32,427.981 h 0.047 v -0.047 H 22.32 Z"/><path id="path4862" style="fill:#000000;fill-opacity:1;fill-rule:nonzero;stroke:none" d="m 22.32,427.934 v 0.047 l 0.047,-0.047 z m 0.047,0 -0.047,0.047 v -0.047 z"/><path id="path4864" style="fill:#000000;fill-opacity:1;fill-rule:nonzero;stroke:none" d="m 22.367,427.934 h -0.047 0.024 v 0.047 z"/><path id="path4866" style="fill:#000000;fill-opacity:1;fill-rule:nonzero;stroke:none" d="m 22.32,427.934 v 0.047 -0.047 l 0.047,0.047 z"/><path id="path4868" style="fill:#000000;fill-opacity:1;fill-rule:nonzero;stroke:none" d="m 22.32,427.981 h 0.047 v -0.047 H 22.32 Z"/><path id="path4870" style="fill:#000000;fill-opacity:1;fill-rule:nonzero;stroke:none" d="m 22.367,427.981 v -0.047 H 22.32 Z"/><path id="path4872" style="fill:#000000;fill-opacity:1;fill-rule:nonzero;stroke:none" d="m 22.32,427.981 h 0.047 v -0.047 H 22.32 Z"/><path id="path4874" style="fill:#000000;fill-opacity:1;fill-rule:nonzero;stroke:none" d="m 22.32,427.934 v 0.047 l 0.047,-0.047 z m 0.047,0 -0.047,0.047 v -0.047 z"/><path id="path4876" style="fill:#000000;fill-opacity:1;fill-rule:nonzero;stroke:none" d="m 22.367,427.934 h -0.047 0.024 v 0.047 z"/><path id="path4878" style="fill:#000000;fill-opacity:1;fill-rule:nonzero;stroke:none" d="m 22.32,427.934 v 0.047 -0.047 l 0.047,0.047 z"/><path id="path4880" style="fill:#000000;fill-opacity:1;fill-rule:nonzero;stroke:none" d="m 22.32,427.981 h 0.047 v -0.047 H 22.32 Z"/><path id="path4882" style="fill:#000000;fill-opacity:1;fill-rule:nonzero;stroke:none" d="m 127.031,289.598 -26.414,-19.422 v 27.969 l 26.414,19.422 h 26.414 V 133.176 h -26.414 z"/><path id="path4884" style="fill:#000000;fill-opacity:1;fill-rule:nonzero;stroke:none" d="m 204.398,239.875 c 7.942,0 13.379,0.949 16.317,2.848 3.105,1.898 4.66,6.301 4.66,13.207 v 23.828 c 0,3.797 -1.207,6.906 -3.625,9.32 -2.246,2.418 -5.352,3.629 -9.324,3.629 -4.66,0 -8.028,-1.469 -10.102,-4.406 -1.898,-2.934 -2.847,-5.781 -2.847,-8.543 v -15.023 h -26.415 v 15.281 c 0,5.351 1.036,10.445 3.106,15.281 2.074,4.832 4.922,8.977 8.547,12.43 3.625,3.453 7.855,6.215 12.691,8.285 4.832,2.074 10.012,3.109 15.539,3.109 7.25,0 13.207,-1.469 17.867,-4.402 4.836,-2.762 8.461,-5.613 10.879,-8.547 1.727,-2.07 3.192,-4.23 4.403,-6.473 1.379,-2.074 2.418,-4.578 3.105,-7.511 0.863,-2.762 1.469,-6.215 1.817,-10.36 0.515,-3.972 0.773,-8.89 0.773,-14.761 0,-6.387 -0.172,-11.567 -0.516,-15.54 -0.171,-3.968 -0.863,-7.335 -2.074,-10.101 -1.035,-2.586 -2.676,-4.832 -4.918,-6.731 -2.074,-1.898 -5.008,-3.972 -8.804,-6.214 4.14,-2.59 7.25,-5.008 9.32,-7.254 2.246,-2.242 3.887,-4.918 4.922,-8.028 1.035,-2.933 1.64,-6.562 1.812,-10.879 0.172,-4.14 0.258,-9.492 0.258,-16.054 0,-6.043 -0.172,-11.051 -0.516,-15.02 -0.171,-3.972 -0.519,-7.34 -1.035,-10.101 -0.519,-2.59 -1.211,-4.836 -2.074,-6.735 -0.863,-1.898 -1.984,-3.883 -3.367,-5.957 -3.277,-4.832 -7.508,-8.89 -12.688,-12.172 -5.179,-3.105 -11.828,-4.66 -19.941,-4.66 -4.145,0 -8.547,0.692 -13.207,2.071 -4.664,1.382 -8.895,3.628 -12.691,6.734 -3.797,3.109 -6.993,7.164 -9.582,12.172 -2.418,5.008 -3.626,11.137 -3.626,18.387 v 15.023 h 26.415 v -13.727 c 0,-4.144 1.121,-7.597 3.367,-10.359 2.418,-2.59 5.613,-3.887 9.582,-3.887 3.972,0 7.078,1.297 9.324,3.887 2.418,2.762 3.625,6.387 3.625,10.875 v 26.418 c 0,3.625 -0.344,6.559 -1.035,8.805 -0.52,2.246 -1.555,3.972 -3.11,5.179 -1.554,1.383 -3.71,2.246 -6.472,2.59 -2.59,0.52 -6.043,0.778 -10.36,0.778 z"/><path id="path4886" style="fill:#000000;fill-opacity:1;fill-rule:nonzero;stroke:none" d="m 271.406,279.496 c 0,6.219 1.035,11.742 3.106,16.574 2.246,4.836 5.179,8.981 8.804,12.434 3.629,3.453 7.77,6.043 12.434,7.77 4.832,1.898 9.84,2.847 15.02,2.847 5.179,0 10.101,-0.949 14.761,-2.847 4.836,-1.727 9.067,-4.317 12.692,-7.77 3.625,-3.453 6.472,-7.598 8.547,-12.434 2.242,-4.832 3.363,-10.355 3.363,-16.574 v -108.25 c 0,-6.219 -1.121,-11.742 -3.363,-16.574 -2.075,-4.836 -4.922,-8.98 -8.547,-12.434 -3.625,-3.453 -7.856,-6.128 -12.692,-8.027 -4.66,-1.726 -9.582,-2.59 -14.761,-2.59 -5.18,0 -10.188,0.864 -15.02,2.59 -4.664,1.899 -8.805,4.574 -12.434,8.027 -3.625,3.454 -6.558,7.598 -8.804,12.434 -2.071,4.832 -3.106,10.355 -3.106,16.574 z m 26.414,-108.25 c 0,-3.801 1.211,-6.992 3.625,-9.582 2.418,-2.418 5.528,-3.629 9.325,-3.629 3.796,0 6.906,1.211 9.324,3.629 2.418,2.59 3.625,5.781 3.625,9.582 v 108.25 c 0,3.801 -1.207,6.906 -3.625,9.324 -2.418,2.59 -5.528,3.887 -9.324,3.887 -3.797,0 -6.907,-1.297 -9.325,-3.887 -2.414,-2.418 -3.625,-5.523 -3.625,-9.324 z"/></g></g></svg>