<?xml version="1.0" encoding="UTF-8" standalone="no"?>
<svg xmlns:dc="http://purl.org/dc/elements/1.1/" xmlns:cc="http://creativecommons.org/ns#" xmlns:rdf="http://www.w3.org/1999/02/22-rdf-syntax-ns#" xmlns:svg="http://www.w3.org/2000/svg" xmlns="http://www.w3.org/2000/svg" viewBox="0 0 600.995 600.995" height="600.995" width="600.995" xml:space="preserve" id="svg16340" version="1.1"><metadata id="metadata4857"><rdf:RDF><cc:Work rdf:about=""><dc:format>image/svg+xml</dc:format><dc:type rdf:resource="http://purl.org/dc/dcmitype/StillImage"/><dc:title/></cc:Work></rdf:RDF></metadata><defs id="defs16344"/><path id="path16350" style="fill:#ffffff;fill-opacity:1;fill-rule:nonzero;stroke:none;stroke-width:1.33333325" d="m 600.49998,300.5 c 0,165.688 -134.31199,300 -299.99999,300 C 134.812,600.5 0.49999999,466.188 0.49999999,300.5 0.49999999,134.81201 134.812,0.50001035 300.49999,0.50001035 466.18799,0.50001035 600.49998,134.81201 600.49998,300.5 Z"/><path id="path16352" style="fill:#000000;fill-opacity:1;fill-rule:nonzero;stroke:none;stroke-width:1.33333325" d="M 300.49999,1.0358208e-5 C 134.54133,1.0358208e-5 0,134.54134 0,300.5 0,466.45333 134.54133,600.99466 300.49999,600.99466 466.45332,600.99466 600.99465,466.45333 600.99465,300.5 600.99465,134.54134 466.45332,1.0358208e-5 300.49999,1.0358208e-5 Z m 0,0.499999991792 c 165.688,0 299.99999,134.31199965 299.99999,299.99998965 0,165.688 -134.31199,300 -299.99999,300 C 134.812,600.5 0.49999999,466.188 0.49999999,300.5 0.49999999,134.81201 134.812,0.50001035 300.49999,0.50001035 Z"/><path id="path16354" style="fill:#c1121c;fill-opacity:1;fill-rule:nonzero;stroke:none;stroke-width:1.33333325" d="M 300.49999,10.50001 C 140.812,10.50001 10.5,140.81201 10.5,300.5 c 0,159.68267 130.312,290 289.99999,290 159.68267,0 290,-130.31733 290,-290 0,-159.68799 -130.31733,-289.99999 -290,-289.99999 z m 0,80.401331 c 116.23467,0 209.59866,93.358669 209.59866,209.598659 0,116.23467 -93.36399,209.59866 -209.59866,209.59866 C 184.26,510.09866 90.901331,416.73467 90.901331,300.5 90.901331,184.26001 184.26,90.901341 300.49999,90.901341 Z"/><path id="path16356" style="fill:#000000;fill-opacity:1;fill-rule:nonzero;stroke:none;stroke-width:1.33333325" d="m 29.791999,30.354676 v 0.03067 h -0.032 z"/><path id="path16358" style="fill:#000000;fill-opacity:1;fill-rule:nonzero;stroke:none;stroke-width:1.33333325" d="m 29.759999,30.354676 h 0.03067 v 0.03067 h -0.03067 z"/><path id="path16360" style="fill:#000000;fill-opacity:1;fill-rule:nonzero;stroke:none;stroke-width:1.33333325" d="m 29.759999,30.385343 v -0.03067 l 0.032,0.03067 z m 0.032,0 -0.032,-0.03067 v 0.03067 z"/><path id="path16362" style="fill:#000000;fill-opacity:1;fill-rule:nonzero;stroke:none;stroke-width:1.33333325" d="m 29.822666,30.385343 h -0.06267 0.032 v -0.03067 z"/><path id="path16364" style="fill:#000000;fill-opacity:1;fill-rule:nonzero;stroke:none;stroke-width:1.33333325" d="m 29.759999,30.385343 v -0.03067 0.03067 l 0.032,-0.03067 z"/><path id="path16366" style="fill:#000000;fill-opacity:1;fill-rule:nonzero;stroke:none;stroke-width:1.33333325" d="m 29.759999,30.354676 h 0.03067 v 0.03067 h -0.03067 z"/><path id="path16368" style="fill:#000000;fill-opacity:1;fill-rule:nonzero;stroke:none;stroke-width:1.33333325" d="m 29.822666,30.354676 v 0.06133 h -0.06267 z"/><path id="path16370" style="fill:#000000;fill-opacity:1;fill-rule:nonzero;stroke:none;stroke-width:1.33333325" d="m 29.759999,30.354676 h 0.06267 v 0.06267 h -0.06267 z"/><path id="path16372" style="fill:#000000;fill-opacity:1;fill-rule:nonzero;stroke:none;stroke-width:1.33333325" d="m 29.759999,30.41601 v -0.06133 l 0.06267,0.06133 z m 0.06267,0 -0.06267,-0.06133 v 0.06133 z"/><path id="path16374" style="fill:#000000;fill-opacity:1;fill-rule:nonzero;stroke:none;stroke-width:1.33333325" d="m 29.822666,30.41601 h -0.06267 0.032 v -0.06133 z"/><path id="path16376" style="fill:#000000;fill-opacity:1;fill-rule:nonzero;stroke:none;stroke-width:1.33333325" d="m 29.759999,30.41601 v -0.06133 0.06133 l 0.06267,-0.06133 z"/><path id="path16378" style="fill:#000000;fill-opacity:1;fill-rule:nonzero;stroke:none;stroke-width:1.33333325" d="m 29.759999,30.354676 h 0.06267 v 0.06267 h -0.06267 z"/><path id="path16380" style="fill:#000000;fill-opacity:1;fill-rule:nonzero;stroke:none;stroke-width:1.33333325" d="m 29.822666,30.354676 v 0.06133 h -0.06267 z"/><path id="path16382" style="fill:#000000;fill-opacity:1;fill-rule:nonzero;stroke:none;stroke-width:1.33333325" d="m 29.759999,30.354676 h 0.06267 v 0.06267 h -0.06267 z"/><path id="path16384" style="fill:#000000;fill-opacity:1;fill-rule:nonzero;stroke:none;stroke-width:1.33333325" d="m 29.759999,30.41601 v -0.06133 l 0.06267,0.06133 z m 0.06267,0 -0.06267,-0.06133 v 0.06133 z"/><path id="path16386" style="fill:#000000;fill-opacity:1;fill-rule:nonzero;stroke:none;stroke-width:1.33333325" d="m 29.822666,30.41601 h -0.06267 0.032 v -0.06133 z"/><path id="path16388" style="fill:#000000;fill-opacity:1;fill-rule:nonzero;stroke:none;stroke-width:1.33333325" d="m 29.759999,30.41601 v -0.06133 0.06133 l 0.06267,-0.06133 z"/><path id="path16390" style="fill:#000000;fill-opacity:1;fill-rule:nonzero;stroke:none;stroke-width:1.33333325" d="m 29.759999,30.354676 h 0.06267 v 0.06267 h -0.06267 z"/><path id="path16392" style="fill:#000000;fill-opacity:1;fill-rule:nonzero;stroke:none;stroke-width:1.33333325" d="m 29.822666,30.354676 v 0.06133 h -0.06267 z"/><path id="path16394" style="fill:#000000;fill-opacity:1;fill-rule:nonzero;stroke:none;stroke-width:1.33333325" d="m 29.759999,30.354676 h 0.06267 v 0.06267 h -0.06267 z"/><path id="path16396" style="fill:#000000;fill-opacity:1;fill-rule:nonzero;stroke:none;stroke-width:1.33333325" d="m 29.759999,30.41601 v -0.06133 l 0.06267,0.06133 z m 0.06267,0 -0.06267,-0.06133 v 0.06133 z"/><path id="path16398" style="fill:#000000;fill-opacity:1;fill-rule:nonzero;stroke:none;stroke-width:1.33333325" d="m 29.822666,30.41601 h -0.06267 0.032 v -0.06133 z"/><path id="path16400" style="fill:#000000;fill-opacity:1;fill-rule:nonzero;stroke:none;stroke-width:1.33333325" d="m 29.759999,30.41601 v -0.06133 0.06133 l 0.06267,-0.06133 z"/><path id="path16402" style="fill:#000000;fill-opacity:1;fill-rule:nonzero;stroke:none;stroke-width:1.33333325" d="m 29.759999,30.354676 h 0.06267 v 0.06267 h -0.06267 z"/><g style="fill:#000000" transform="translate(2.865255,2.30794)" id="g4991"><path id="path4967" style="font-style:normal;font-variant:normal;font-weight:normal;font-stretch:normal;font-size:medium;line-height:125%;font-family:'DIN Condensed';-inkscape-font-specification:'DIN Condensed, ';text-align:start;letter-spacing:0px;word-spacing:0px;writing-mode:lr-tb;text-anchor:start;fill:#000000;fill-opacity:1;stroke:none;stroke-width:0.07722669px;stroke-linecap:butt;stroke-linejoin:miter;stroke-opacity:1" d="m 178.50983,212.55671 -35.221,25.89779 v -37.29282 l 35.221,-25.89779 h 35.22099 v 245.85635 h -35.22099 z"/><path id="path4969" style="font-style:normal;font-variant:normal;font-weight:normal;font-stretch:normal;font-size:medium;line-height:125%;font-family:'DIN Condensed';-inkscape-font-specification:'DIN Condensed, ';text-align:start;letter-spacing:0px;word-spacing:0px;writing-mode:lr-tb;text-anchor:start;fill:#000000;fill-opacity:1;stroke:none;stroke-width:0.07722669px;stroke-linecap:butt;stroke-linejoin:miter;stroke-opacity:1" d="m 280.36955,212.55671 -35.22099,25.89779 v -37.29282 l 35.22099,-25.89779 h 35.221 v 245.85635 h -35.221 z"/><path id="path4971" style="font-style:normal;font-variant:normal;font-weight:normal;font-stretch:normal;font-size:medium;line-height:125%;font-family:'DIN Condensed';-inkscape-font-specification:'DIN Condensed, ';text-align:start;letter-spacing:0px;word-spacing:0px;writing-mode:lr-tb;text-anchor:start;fill:#000000;fill-opacity:1;stroke:none;stroke-width:0.07722669px;stroke-linecap:butt;stroke-linejoin:miter;stroke-opacity:1" d="m 347.00827,226.02356 q 0,-12.43094 4.14365,-22.09945 4.48895,-9.66851 11.74033,-16.57459 7.25138,-6.90607 16.57459,-10.35911 9.6685,-3.79834 20.02762,-3.79834 10.35912,0 19.68232,3.79834 9.66851,3.45304 16.91989,10.35911 7.25138,6.90608 11.39503,16.57459 4.48895,9.66851 4.48895,22.09945 v 144.33701 q 0,12.43094 -4.48895,22.09945 -4.14365,9.66851 -11.39503,16.57458 -7.25138,6.90608 -16.91989,10.70442 -9.3232,3.45304 -19.68232,3.45304 -10.35912,0 -20.02762,-3.45304 -9.32321,-3.79834 -16.57459,-10.70442 -7.25138,-6.90607 -11.74033,-16.57458 -4.14365,-9.66851 -4.14365,-22.09945 z m 35.221,144.33701 q 0,7.59669 4.83425,12.77624 4.83426,4.83426 12.43094,4.83426 7.59669,0 12.43094,-4.83426 4.83425,-5.17955 4.83425,-12.77624 V 226.02356 q 0,-7.59669 -4.83425,-12.43094 -4.83425,-5.17956 -12.43094,-5.17956 -7.59668,0 -12.43094,5.17956 -4.83425,4.83425 -4.83425,12.43094 z"/></g></svg>