<?xml version="1.0" encoding="UTF-8" standalone="no"?>
<svg xmlns:dc="http://purl.org/dc/elements/1.1/" xmlns:cc="http://creativecommons.org/ns#" xmlns:rdf="http://www.w3.org/1999/02/22-rdf-syntax-ns#" xmlns:svg="http://www.w3.org/2000/svg" xmlns="http://www.w3.org/2000/svg" viewBox="0 0 600.995 600.995" height="600.995" width="600.995" xml:space="preserve" id="svg9636" version="1.1"><metadata id="metadata9642"><rdf:RDF><cc:Work rdf:about=""><dc:format>image/svg+xml</dc:format><dc:type rdf:resource="http://purl.org/dc/dcmitype/StillImage"/><dc:title/></cc:Work></rdf:RDF></metadata><defs id="defs9640"/><g transform="matrix(1.3333333,0,0,-1.3333333,0,600.99499)" id="g9644"><g id="g9646"><path id="path9648" style="fill:#ffffff;fill-opacity:1;fill-rule:nonzero;stroke:none" d="m 450.375,225.371 c 0,-124.265 -100.734,-225 -225,-225 -124.266,0 -225,100.735 -225,225 0,124.266 100.734,225 225,225 124.266,0 225,-100.734 225,-225 z"/><path id="path9650" style="fill:#000000;fill-opacity:1;fill-rule:nonzero;stroke:none" d="M 225.375,450.746 C 100.906,450.746 0,349.84 0,225.371 0,100.906 100.906,0 225.375,0 349.84,0 450.746,100.906 450.746,225.371 c 0,124.469 -100.906,225.375 -225.371,225.375 z m 0,-0.375 c 124.266,0 225,-100.734 225,-225 0,-124.265 -100.734,-225 -225,-225 -124.266,0 -225,100.735 -225,225 0,124.266 100.734,225 225,225 z"/><path id="path9652" style="fill:#c1121c;fill-opacity:1;fill-rule:nonzero;stroke:none" d="m 225.375,442.871 c -119.766,0 -217.5,-97.734 -217.5,-217.5 0,-119.761 97.734,-217.5 217.5,-217.5 119.762,0 217.5,97.739 217.5,217.5 0,119.766 -97.738,217.5 -217.5,217.5 z m 0,-60.301 c 87.176,0 157.199,-70.019 157.199,-157.199 0,-87.176 -70.023,-157.199 -157.199,-157.199 -87.18,0 -157.199,70.023 -157.199,157.199 0,87.18 70.019,157.199 157.199,157.199 z"/><path id="path9654" style="fill:#000000;fill-opacity:1;fill-rule:nonzero;stroke:none" d="m 22.344,427.981 v -0.024 H 22.32 Z"/><path id="path9656" style="fill:#000000;fill-opacity:1;fill-rule:nonzero;stroke:none" d="m 22.32,427.981 h 0.023 v -0.023 H 22.32 Z"/><path id="path9658" style="fill:#000000;fill-opacity:1;fill-rule:nonzero;stroke:none" d="m 22.32,427.957 v 0.024 l 0.024,-0.024 z m 0.024,0 -0.024,0.024 v -0.024 z"/><path id="path9660" style="fill:#000000;fill-opacity:1;fill-rule:nonzero;stroke:none" d="m 22.367,427.957 h -0.047 0.024 v 0.024 z"/><path id="path9662" style="fill:#000000;fill-opacity:1;fill-rule:nonzero;stroke:none" d="m 22.32,427.957 v 0.024 -0.024 l 0.024,0.024 z"/><path id="path9664" style="fill:#000000;fill-opacity:1;fill-rule:nonzero;stroke:none" d="m 22.32,427.981 h 0.023 v -0.023 H 22.32 Z"/><path id="path9666" style="fill:#000000;fill-opacity:1;fill-rule:nonzero;stroke:none" d="m 22.367,427.981 v -0.047 H 22.32 Z"/><path id="path9668" style="fill:#000000;fill-opacity:1;fill-rule:nonzero;stroke:none" d="m 22.32,427.981 h 0.047 v -0.047 H 22.32 Z"/><path id="path9670" style="fill:#000000;fill-opacity:1;fill-rule:nonzero;stroke:none" d="m 22.32,427.934 v 0.047 l 0.047,-0.047 z m 0.047,0 -0.047,0.047 v -0.047 z"/><path id="path9672" style="fill:#000000;fill-opacity:1;fill-rule:nonzero;stroke:none" d="m 22.367,427.934 h -0.047 0.024 v 0.047 z"/><path id="path9674" style="fill:#000000;fill-opacity:1;fill-rule:nonzero;stroke:none" d="m 22.32,427.934 v 0.047 -0.047 l 0.047,0.047 z"/><path id="path9676" style="fill:#000000;fill-opacity:1;fill-rule:nonzero;stroke:none" d="m 22.32,427.981 h 0.047 v -0.047 H 22.32 Z"/><path id="path9678" style="fill:#000000;fill-opacity:1;fill-rule:nonzero;stroke:none" d="m 22.367,427.981 v -0.047 H 22.32 Z"/><path id="path9680" style="fill:#000000;fill-opacity:1;fill-rule:nonzero;stroke:none" d="m 22.32,427.981 h 0.047 v -0.047 H 22.32 Z"/><path id="path9682" style="fill:#000000;fill-opacity:1;fill-rule:nonzero;stroke:none" d="m 22.32,427.934 v 0.047 l 0.047,-0.047 z m 0.047,0 -0.047,0.047 v -0.047 z"/><path id="path9684" style="fill:#000000;fill-opacity:1;fill-rule:nonzero;stroke:none" d="m 22.367,427.934 h -0.047 0.024 v 0.047 z"/><path id="path9686" style="fill:#000000;fill-opacity:1;fill-rule:nonzero;stroke:none" d="m 22.32,427.934 v 0.047 -0.047 l 0.047,0.047 z"/><path id="path9688" style="fill:#000000;fill-opacity:1;fill-rule:nonzero;stroke:none" d="m 22.32,427.981 h 0.047 v -0.047 H 22.32 Z"/><path id="path9690" style="fill:#000000;fill-opacity:1;fill-rule:nonzero;stroke:none" d="m 22.367,427.981 v -0.047 H 22.32 Z"/><path id="path9692" style="fill:#000000;fill-opacity:1;fill-rule:nonzero;stroke:none" d="m 22.32,427.981 h 0.047 v -0.047 H 22.32 Z"/><path id="path9694" style="fill:#000000;fill-opacity:1;fill-rule:nonzero;stroke:none" d="m 22.32,427.934 v 0.047 l 0.047,-0.047 z m 0.047,0 -0.047,0.047 v -0.047 z"/><path id="path9696" style="fill:#000000;fill-opacity:1;fill-rule:nonzero;stroke:none" d="m 22.367,427.934 h -0.047 0.024 v 0.047 z"/><path id="path9698" style="fill:#000000;fill-opacity:1;fill-rule:nonzero;stroke:none" d="m 22.32,427.934 v 0.047 -0.047 l 0.047,0.047 z"/><path id="path9700" style="fill:#000000;fill-opacity:1;fill-rule:nonzero;stroke:none" d="m 22.32,427.981 h 0.047 v -0.047 H 22.32 Z"/><path id="path9702" style="fill:#000000;fill-opacity:1;fill-rule:nonzero;stroke:none" d="m 175.465,218.36 v 99.574 h 99.68 v -26.532 h -74.782 v -41.933 c 20.883,16.449 51.196,12.961 67.707,-7.856 6.727,-8.507 10.395,-19.066 10.395,-29.89 v -28.231 c 0,-29.277 -23.852,-53.058 -53.16,-53.058 -27.434,0 -50.407,20.855 -52.942,48.129 h 26.821 c 2.754,-14.446 16.687,-23.868 31.058,-21.075 12.535,2.356 21.621,13.309 21.621,26.004 v 23.258 c 0,14.703 -11.883,26.531 -26.558,26.531 -10.176,0 -19.485,-5.757 -23.895,-14.921 z"/></g></g></svg>