<?xml version="1.0" encoding="UTF-8" standalone="no"?>
<svg xmlns:dc="http://purl.org/dc/elements/1.1/" xmlns:cc="http://creativecommons.org/ns#" xmlns:rdf="http://www.w3.org/1999/02/22-rdf-syntax-ns#" xmlns:svg="http://www.w3.org/2000/svg" xmlns="http://www.w3.org/2000/svg" viewBox="0 0 601.00201 601.00195" height="601.00195" width="601.00201" xml:space="preserve" version="1.1" id="svg4867"><metadata id="metadata4873"><rdf:RDF><cc:Work rdf:about=""><dc:format>image/svg+xml</dc:format><dc:type rdf:resource="http://purl.org/dc/dcmitype/StillImage"/><dc:title/></cc:Work></rdf:RDF></metadata><defs id="defs4871"/><g transform="matrix(1.25,0,0,-1.25,0,601.00197)" id="g4875"><g id="g4877"><path id="path4879" style="fill:#ffffff;fill-opacity:1;fill-rule:nonzero;stroke:none" d="m 480.402,240.403 c 0,-132.551 -107.453,-240 -240,-240 -132.55,0 -240,107.449 -240,240 0,132.547 107.45,240 240,240 132.547,0 240,-107.453 240,-240 z"/><path id="path4881" style="fill:#666666;fill-opacity:1;fill-rule:nonzero;stroke:none" d="m 227.246,192.966 c 0,40.89 -27.484,67.39 -61.18,67.39 -7.195,0 -14.394,-0.984 -20.609,-3.601 l 50.055,100.109 -35.66,0 -53,-107.961 c -10.141,-20.285 -17.34,-38.269 -17.34,-57.25 0,-43.183 28.793,-69.68 69.031,-69.68 40.238,0 68.703,28.129 68.703,70.993 z m -33.371,-0.661 c 0,-24.863 -14.723,-40.566 -35.66,-40.566 -20.938,0 -35.332,15.703 -35.332,40.566 0,25.196 14.394,40.247 35.332,40.247 22.246,0 35.66,-17.344 35.66,-40.247 z"/><path id="path4883" style="fill:#666666;fill-opacity:1;fill-rule:nonzero;stroke:none" d="m 391.289,188.708 0,103.379 c 0,41.551 -30.426,66.742 -67.391,66.742 -36.972,0 -67.07,-25.191 -67.07,-66.742 l 0,-103.379 c 0,-41.551 30.098,-66.735 67.07,-66.735 36.965,0 67.391,25.184 67.391,66.735 z m -33.371,0.98 c 0,-22.57 -12.762,-37.949 -34.02,-37.949 -21.269,0 -33.699,15.379 -33.699,37.949 l 0,101.418 c 0,22.574 12.43,37.953 33.699,37.953 21.258,0 34.02,-15.379 34.02,-37.953 l 0,-101.418 z"/><path id="path4885" style="fill:#000000;fill-opacity:1;fill-rule:nonzero;stroke:none" d="M 240.398,480.802 C 107.633,480.802 0,373.169 0,240.403 0,107.638 107.633,0.001 240.398,0.001 c 132.766,0 240.403,107.637 240.403,240.402 0,132.766 -107.637,240.399 -240.403,240.399 z m 0,-0.399 c 132.551,0 240,-107.453 240,-240 0,-132.551 -107.449,-240 -240,-240 -132.546,0 -240,107.449 -240,240 0,132.547 107.454,240 240,240 z"/><path id="path4887" style="fill:#000000;fill-opacity:1;fill-rule:nonzero;stroke:none" d="M 240.398,472.348 C 112.375,472.348 8.457,368.427 8.457,240.403 8.457,112.376 112.375,8.458 240.398,8.458 c 128.028,0 231.946,103.918 231.946,231.945 0,128.024 -103.918,231.945 -231.946,231.945 z m 0,-12 c 46.309,0 89.25,-14.296 124.676,-38.703 L 59.156,115.727 c -24.406,35.426 -38.703,78.368 -38.703,124.676 0,121.539 98.406,219.945 219.945,219.945 z M 372.32,416.446 c 2.418,-1.816 4.793,-3.683 7.133,-5.594 L 69.949,101.348 c -1.91,2.34 -3.777,4.715 -5.594,7.133 L 372.32,416.446 Z m 13.856,-11.316 c 2.25,-1.992 4.461,-4.024 6.629,-6.102 L 81.773,88.001 c -2.078,2.164 -4.109,4.375 -6.101,6.625 L 386.176,405.13 Z m 12.847,-12.328 c 2.082,-2.164 4.114,-4.375 6.106,-6.625 L 94.625,75.673 c -2.25,1.992 -4.461,4.023 -6.625,6.105 l 311.023,311.024 z m 11.829,-13.344 c 1.91,-2.34 3.777,-4.715 5.593,-7.133 L 108.48,64.356 c -2.417,1.817 -4.796,3.684 -7.136,5.594 l 309.508,309.508 z m 10.793,-14.383 c 24.406,-35.426 38.703,-78.367 38.703,-124.672 0,-121.543 -98.407,-219.945 -219.95,-219.945 -46.304,0 -89.246,14.297 -124.671,38.703 l 305.918,305.914 z"/></g></g></svg>