<?xml version="1.0" encoding="UTF-8" standalone="no"?>
<!-- Created with Inkscape (http://www.inkscape.org/) -->
<svg version="1.1" id="svg13990" xml:space="preserve" width="600.995" height="600.995" viewBox="0 0 600.995 600.995" xmlns="http://www.w3.org/2000/svg" xmlns:svg="http://www.w3.org/2000/svg"><defs id="defs13994"/><g id="g13996" transform="matrix(1.3333333,0,0,1.3333333,0,1.0358208e-5)"><g id="g13998"><path d="m 450.375,225.375 c 0,124.266 -100.734,225 -225,225 -124.266,0 -225,-100.734 -225,-225 0,-124.266 100.734,-225 225,-225 124.266,0 225,100.734 225,225 z" style="fill:#ffffff;fill-opacity:1;fill-rule:nonzero;stroke:none" id="path14000"/><path d="M 225.375,0 C 100.906,0 0,100.906 0,225.375 0,349.84 100.906,450.746 225.375,450.746 349.84,450.746 450.746,349.84 450.746,225.375 450.746,100.906 349.84,0 225.375,0 Z m 0,0.375 c 124.266,0 225,100.734 225,225 0,124.266 -100.734,225 -225,225 -124.266,0 -225,-100.734 -225,-225 0,-124.266 100.734,-225 225,-225 z" style="fill:#000000;fill-opacity:1;fill-rule:nonzero;stroke:none" id="path14002"/><path d="m 225.375,7.875 c -119.766,0 -217.5,97.734 -217.5,217.5 0,119.762 97.734,217.5 217.5,217.5 119.762,0 217.5,-97.738 217.5,-217.5 0,-119.766 -97.738,-217.5 -217.5,-217.5 z m 0,60.301 c 87.176,0 157.199,70.019 157.199,157.199 0,87.176 -70.023,157.199 -157.199,157.199 -87.18,0 -157.199,-70.023 -157.199,-157.199 0,-87.18 70.019,-157.199 157.199,-157.199 z" style="fill:#c1121c;fill-opacity:1;fill-rule:nonzero;stroke:none" id="path14004"/><path d="m 22.344,22.766 v 0.023 H 22.32 Z" style="fill:#000000;fill-opacity:1;fill-rule:nonzero;stroke:none" id="path14006"/><path d="m 22.32,22.766 h 0.023 v 0.023 H 22.32 Z" style="fill:#000000;fill-opacity:1;fill-rule:nonzero;stroke:none" id="path14008"/><path d="m 22.32,22.789 v -0.023 l 0.024,0.023 z m 0.024,0 -0.024,-0.023 v 0.023 z" style="fill:#000000;fill-opacity:1;fill-rule:nonzero;stroke:none" id="path14010"/><path d="M 22.367,22.789 H 22.32 22.344 V 22.766 Z" style="fill:#000000;fill-opacity:1;fill-rule:nonzero;stroke:none" id="path14012"/><path d="m 22.32,22.789 v -0.023 0.023 l 0.024,-0.023 z" style="fill:#000000;fill-opacity:1;fill-rule:nonzero;stroke:none" id="path14014"/><path d="m 22.32,22.766 h 0.023 v 0.023 H 22.32 Z" style="fill:#000000;fill-opacity:1;fill-rule:nonzero;stroke:none" id="path14016"/><path d="m 22.367,22.766 v 0.046 H 22.32 Z" style="fill:#000000;fill-opacity:1;fill-rule:nonzero;stroke:none" id="path14018"/><path d="m 22.32,22.766 h 0.047 v 0.047 H 22.32 Z" style="fill:#000000;fill-opacity:1;fill-rule:nonzero;stroke:none" id="path14020"/><path d="m 22.32,22.812 v -0.046 l 0.047,0.046 z m 0.047,0 -0.047,-0.046 v 0.046 z" style="fill:#000000;fill-opacity:1;fill-rule:nonzero;stroke:none" id="path14022"/><path d="M 22.367,22.812 H 22.32 22.344 V 22.766 Z" style="fill:#000000;fill-opacity:1;fill-rule:nonzero;stroke:none" id="path14024"/><path d="m 22.32,22.812 v -0.046 0.046 l 0.047,-0.046 z" style="fill:#000000;fill-opacity:1;fill-rule:nonzero;stroke:none" id="path14026"/><path d="m 22.32,22.766 h 0.047 v 0.047 H 22.32 Z" style="fill:#000000;fill-opacity:1;fill-rule:nonzero;stroke:none" id="path14028"/><path d="m 22.367,22.766 v 0.046 H 22.32 Z" style="fill:#000000;fill-opacity:1;fill-rule:nonzero;stroke:none" id="path14030"/><path d="m 22.32,22.766 h 0.047 v 0.047 H 22.32 Z" style="fill:#000000;fill-opacity:1;fill-rule:nonzero;stroke:none" id="path14032"/><path d="m 22.32,22.812 v -0.046 l 0.047,0.046 z m 0.047,0 -0.047,-0.046 v 0.046 z" style="fill:#000000;fill-opacity:1;fill-rule:nonzero;stroke:none" id="path14034"/><path d="M 22.367,22.812 H 22.32 22.344 V 22.766 Z" style="fill:#000000;fill-opacity:1;fill-rule:nonzero;stroke:none" id="path14036"/><path d="m 22.32,22.812 v -0.046 0.046 l 0.047,-0.046 z" style="fill:#000000;fill-opacity:1;fill-rule:nonzero;stroke:none" id="path14038"/><path d="m 22.32,22.766 h 0.047 v 0.047 H 22.32 Z" style="fill:#000000;fill-opacity:1;fill-rule:nonzero;stroke:none" id="path14040"/><path d="m 22.367,22.766 v 0.046 H 22.32 Z" style="fill:#000000;fill-opacity:1;fill-rule:nonzero;stroke:none" id="path14042"/><path d="m 22.32,22.766 h 0.047 v 0.047 H 22.32 Z" style="fill:#000000;fill-opacity:1;fill-rule:nonzero;stroke:none" id="path14044"/><path d="m 22.32,22.812 v -0.046 l 0.047,0.046 z m 0.047,0 -0.047,-0.046 v 0.046 z" style="fill:#000000;fill-opacity:1;fill-rule:nonzero;stroke:none" id="path14046"/><path d="M 22.367,22.812 H 22.32 22.344 V 22.766 Z" style="fill:#000000;fill-opacity:1;fill-rule:nonzero;stroke:none" id="path14048"/><path d="m 22.32,22.812 v -0.046 0.046 l 0.047,-0.046 z" style="fill:#000000;fill-opacity:1;fill-rule:nonzero;stroke:none" id="path14050"/><path d="m 22.32,22.766 h 0.047 v 0.047 H 22.32 Z" style="fill:#000000;fill-opacity:1;fill-rule:nonzero;stroke:none" id="path14052"/><path d="m 103.195,291.574 v -25.125 l 62.25,-133.156 h 29.719 l -62.891,133.156 h 48.469 v -53.578 h 26.656 v 53.578 h 14.938 v 25.125 h -14.938 v 27.547 h -26.656 v -27.547 z" style="fill:#000000;fill-opacity:1;fill-rule:nonzero;stroke:none" id="path14054"/><path d="m 314.852,264.586 v -78.313 c 0,-8.851 -2.387,-15.765 -7.157,-20.734 -4.761,-4.977 -11.023,-7.469 -18.781,-7.469 -7.844,0 -14.133,2.492 -18.859,7.469 -4.719,4.969 -7.078,11.883 -7.078,20.734 v 78.313 c 0,8.949 2.359,15.891 7.078,20.828 4.726,4.93 11.015,7.391 18.859,7.391 7.758,0 14.02,-2.461 18.781,-7.391 4.77,-4.937 7.157,-11.879 7.157,-20.828 z m -78.313,1.531 v -81.359 c 0,-16.946 5.313,-30.039 15.938,-39.281 10.625,-9.239 22.769,-13.86 36.437,-13.86 13.582,0 25.707,4.621 36.375,13.86 10.664,9.242 16,22.335 16,39.281 v 81.359 c 0,16.949 -5.336,30.024 -16,39.219 -10.668,9.187 -22.793,13.781 -36.375,13.781 -13.668,0 -25.812,-4.594 -36.437,-13.781 -10.625,-9.195 -15.938,-22.27 -15.938,-39.219 z" style="fill:#000000;fill-opacity:1;fill-rule:nonzero;stroke:none" id="path14056"/></g></g></svg>