<?xml version="1.0" encoding="UTF-8" standalone="no"?>
<!-- Created with Inkscape (http://www.inkscape.org/) -->
<svg version="1.1" id="svg7293" xml:space="preserve" width="601.00201" height="601.00195" viewBox="0 0 601.00201 601.00195" xmlns="http://www.w3.org/2000/svg" xmlns:svg="http://www.w3.org/2000/svg"><defs id="defs7297"/><g id="g7299" transform="matrix(1.3333333,0,0,1.3333333,0,1.1691715e-5)"><g id="g7301"><path d="m 450.375,225.375 c 0,124.266 -100.734,225 -225,225 -124.266,0 -225,-100.734 -225,-225 0,-124.266 100.734,-225 225,-225 124.266,0 225,100.734 225,225 z" style="fill:#ffffff;fill-opacity:1;fill-rule:nonzero;stroke:none" id="path7303"/><path d="M 225.375,0 C 100.906,0 0,100.906 0,225.375 0,349.84 100.906,450.75 225.375,450.75 349.84,450.75 450.75,349.84 450.75,225.375 450.75,100.906 349.84,0 225.375,0 Z m 0,0.375 c 124.266,0 225,100.734 225,225 0,124.266 -100.734,225 -225,225 -124.266,0 -225,-100.734 -225,-225 0,-124.266 100.734,-225 225,-225 z" style="fill:#000000;fill-opacity:1;fill-rule:nonzero;stroke:none" id="path7305"/><path d="m 334.508,271.688 c 0,10.429 -2.762,18.605 -8.281,24.535 -5.52,5.929 -12.985,8.894 -22.391,8.894 -9.406,0 -16.867,-2.965 -22.387,-8.894 -5.523,-5.93 -8.281,-14.106 -8.281,-24.535 v -92.626 c 0,-10.425 2.758,-18.605 8.281,-24.535 5.52,-5.929 12.981,-8.894 22.387,-8.894 9.406,0 16.871,2.965 22.391,8.894 5.519,5.93 8.281,14.11 8.281,24.535 z m -92.625,1.839 c 0,9.817 1.637,18.606 4.906,26.375 3.477,7.774 8.078,14.418 13.801,19.938 5.93,5.519 12.578,9.711 19.937,12.574 7.36,2.66 15.129,3.988 23.309,3.988 8.18,0 15.949,-1.328 23.309,-3.988 7.566,-2.863 14.21,-6.953 19.937,-12.266 5.727,-5.523 10.223,-12.168 13.496,-19.937 3.473,-7.973 5.211,-16.867 5.211,-26.684 v -96.304 c 0,-9.813 -1.633,-18.606 -4.906,-26.375 -3.27,-7.77 -7.871,-14.414 -13.801,-19.938 -5.93,-5.519 -12.574,-9.609 -19.937,-12.265 -7.36,-2.864 -15.129,-4.297 -23.309,-4.297 -8.18,0 -16.051,1.433 -23.617,4.297 -7.36,2.656 -13.903,6.746 -19.629,12.265 -5.723,5.317 -10.324,11.961 -13.801,19.938 -3.269,7.769 -4.906,16.562 -4.906,26.375 z" style="fill:#666666;fill-opacity:1;fill-rule:nonzero;stroke:none" id="path7307"/><path d="m 84.957,303.566 v -29.531 l 73.156,-156.5 h 34.938 l -73.906,156.5 h 56.953 v -62.953 h 31.343 v 62.953 h 17.532 v 29.531 h -17.532 v 32.391 h -31.343 v -32.391 z" style="fill:#666666;fill-opacity:1;fill-rule:nonzero;stroke:none" id="path7309"/><path d="M 225.375,7.926 C 105.352,7.926 7.93,105.352 7.93,225.375 c 0,120.023 97.422,217.445 217.445,217.445 120.023,0 217.449,-97.422 217.449,-217.445 0,-120.023 -97.426,-217.449 -217.449,-217.449 z m 0,11.25 c 43.414,0 83.672,13.402 116.883,36.285 L 55.457,342.258 C 32.578,309.047 19.176,268.789 19.176,225.375 19.176,111.43 111.43,19.176 225.375,19.176 Z m 123.676,41.156 c 2.265,1.703 4.492,3.453 6.687,5.246 l -290.16,290.16 c -1.793,-2.195 -3.543,-4.422 -5.246,-6.687 z m 12.988,10.609 c 2.109,1.868 4.184,3.774 6.215,5.723 L 76.664,368.25 c -1.949,-2.027 -3.855,-4.102 -5.723,-6.211 z M 374.086,82.5 c 1.949,2.027 3.855,4.102 5.723,6.211 L 88.711,379.809 c -2.109,-1.868 -4.184,-3.774 -6.211,-5.723 z m 11.086,12.508 c 1.793,2.195 3.543,4.422 5.246,6.687 L 101.699,390.418 c -2.265,-1.703 -4.496,-3.453 -6.687,-5.246 z m 10.121,13.484 c 22.879,33.215 36.285,73.469 36.285,116.883 0,113.945 -92.258,206.195 -206.203,206.195 -43.41,0 -83.672,-13.402 -116.883,-36.281 z" style="fill:#000000;fill-opacity:1;fill-rule:nonzero;stroke:none" id="path7311"/></g></g></svg>