<?xml version="1.0" encoding="UTF-8" standalone="no"?>
<!-- Created with Inkscape (http://www.inkscape.org/) -->
<svg version="1.1" id="svg24948" xml:space="preserve" width="601.00201" height="601.00195" viewBox="0 0 601.00201 601.00195" xmlns="http://www.w3.org/2000/svg" xmlns:svg="http://www.w3.org/2000/svg"><defs id="defs24952"/><g id="g24954" transform="matrix(1.3333333,0,0,1.3333333,0,1.1691715e-5)"><g id="g24956"><path d="m 450.375,225.375 c 0,124.266 -100.734,225 -225,225 -124.266,0 -225,-100.734 -225,-225 0,-124.266 100.734,-225 225,-225 124.266,0 225,100.734 225,225 z" style="fill:#ffffff;fill-opacity:1;fill-rule:nonzero;stroke:none" id="path24958"/><path d="M 225.375,0 C 100.906,0 0,100.906 0,225.375 0,349.84 100.906,450.75 225.375,450.75 349.84,450.75 450.75,349.84 450.75,225.375 450.75,100.906 349.84,0 225.375,0 Z m 0,0.375 c 124.266,0 225,100.734 225,225 0,124.266 -100.734,225 -225,225 -124.266,0 -225,-100.734 -225,-225 0,-124.266 100.734,-225 225,-225 z" style="fill:#000000;fill-opacity:1;fill-rule:nonzero;stroke:none" id="path24960"/><path d="m 116.801,334.613 h 31.297 V 116.137 H 116.801 L 85.5,139.148 v 33.141 l 31.301,-23.012 z" style="fill:#666666;fill-opacity:1;fill-rule:nonzero;stroke:none" id="path24962"/><path d="m 268.969,289.508 c 0,29.148 21.785,46.945 46.64,46.945 24.856,0 46.641,-17.797 46.641,-46.945 V 161.242 c 0,-29.148 -21.785,-46.945 -46.641,-46.945 -24.855,0 -46.64,17.797 -46.64,46.945 z m 31.297,-128.266 c 0,-8.898 6.445,-15.648 15.343,-15.648 8.899,0 15.34,6.75 15.34,15.648 v 128.266 c 0,8.898 -6.441,15.648 -15.34,15.648 -8.898,0 -15.343,-6.75 -15.343,-15.648 z" style="fill:#666666;fill-opacity:1;fill-rule:nonzero;stroke:none" id="path24964"/><path d="m 203.801,334.613 h 31.297 V 116.137 H 203.801 L 172.5,139.148 v 33.141 l 31.301,-23.012 z" style="fill:#666666;fill-opacity:1;fill-rule:nonzero;stroke:none" id="path24966"/><path d="M 225.375,7.926 C 105.352,7.926 7.93,105.352 7.93,225.375 c 0,120.023 97.422,217.445 217.445,217.445 120.023,0 217.449,-97.422 217.449,-217.445 0,-120.023 -97.426,-217.449 -217.449,-217.449 z m 0,11.25 c 43.414,0 83.672,13.402 116.883,36.285 L 55.457,342.258 C 32.578,309.047 19.176,268.789 19.176,225.375 19.176,111.43 111.43,19.176 225.375,19.176 Z m 123.676,41.156 c 2.265,1.703 4.492,3.453 6.687,5.246 l -290.16,290.16 c -1.793,-2.195 -3.543,-4.422 -5.246,-6.687 z m 12.988,10.609 c 2.109,1.868 4.184,3.774 6.215,5.723 L 76.664,368.25 c -1.949,-2.027 -3.855,-4.102 -5.723,-6.211 z M 374.086,82.5 c 1.949,2.027 3.855,4.102 5.723,6.211 L 88.711,379.809 c -2.109,-1.868 -4.184,-3.774 -6.211,-5.723 z m 11.086,12.508 c 1.793,2.195 3.543,4.422 5.246,6.687 L 101.699,390.418 c -2.265,-1.703 -4.496,-3.453 -6.687,-5.246 z m 10.121,13.484 c 22.879,33.215 36.285,73.469 36.285,116.883 0,113.945 -92.258,206.195 -206.203,206.195 -43.41,0 -83.672,-13.402 -116.883,-36.281 z" style="fill:#000000;fill-opacity:1;fill-rule:nonzero;stroke:none" id="path24968"/></g></g></svg>