<?xml version="1.0" encoding="UTF-8" standalone="no"?>
<svg xmlns:dc="http://purl.org/dc/elements/1.1/" xmlns:cc="http://creativecommons.org/ns#" xmlns:rdf="http://www.w3.org/1999/02/22-rdf-syntax-ns#" xmlns:svg="http://www.w3.org/2000/svg" xmlns="http://www.w3.org/2000/svg" viewBox="0 0 600.995 600.995" height="600.995" width="600.995" xml:space="preserve" id="svg4851" version="1.1"><metadata id="metadata4857"><rdf:RDF><cc:Work rdf:about=""><dc:format>image/svg+xml</dc:format><dc:type rdf:resource="http://purl.org/dc/dcmitype/StillImage"/><dc:title/></cc:Work></rdf:RDF></metadata><defs id="defs4855"/><g transform="matrix(1.3333333,0,0,-1.3333333,0,600.99499)" id="g4859"><g id="g4861"><path id="path4863" style="fill:#ffffff;fill-opacity:1;fill-rule:nonzero;stroke:none" d="m 450.375,225.371 c 0,-124.265 -100.734,-225 -225,-225 -124.266,0 -225,100.735 -225,225 0,124.266 100.734,225 225,225 124.266,0 225,-100.734 225,-225 z"/><path id="path4865" style="fill:#000000;fill-opacity:1;fill-rule:nonzero;stroke:none" d="M 225.375,450.746 C 100.906,450.746 0,349.84 0,225.371 0,100.906 100.906,0 225.375,0 349.84,0 450.746,100.906 450.746,225.371 c 0,124.469 -100.906,225.375 -225.371,225.375 z m 0,-0.375 c 124.266,0 225,-100.734 225,-225 0,-124.265 -100.734,-225 -225,-225 -124.266,0 -225,100.735 -225,225 0,124.266 100.734,225 225,225 z"/><path id="path4867" style="fill:#c1121c;fill-opacity:1;fill-rule:nonzero;stroke:none" d="m 225.375,442.871 c -119.766,0 -217.5,-97.734 -217.5,-217.5 0,-119.761 97.734,-217.5 217.5,-217.5 119.762,0 217.5,97.739 217.5,217.5 0,119.766 -97.738,217.5 -217.5,217.5 z m 0,-60.301 c 87.176,0 157.199,-70.019 157.199,-157.199 0,-87.176 -70.023,-157.199 -157.199,-157.199 -87.18,0 -157.199,70.023 -157.199,157.199 0,87.18 70.019,157.199 157.199,157.199 z"/><path id="path4869" style="fill:#000000;fill-opacity:1;fill-rule:nonzero;stroke:none" d="m 22.344,427.981 v -0.024 H 22.32 Z"/><path id="path4871" style="fill:#000000;fill-opacity:1;fill-rule:nonzero;stroke:none" d="m 22.32,427.981 h 0.023 v -0.023 H 22.32 Z"/><path id="path4873" style="fill:#000000;fill-opacity:1;fill-rule:nonzero;stroke:none" d="m 22.32,427.957 v 0.024 l 0.024,-0.024 z m 0.024,0 -0.024,0.024 v -0.024 z"/><path id="path4875" style="fill:#000000;fill-opacity:1;fill-rule:nonzero;stroke:none" d="m 22.367,427.957 h -0.047 0.024 v 0.024 z"/><path id="path4877" style="fill:#000000;fill-opacity:1;fill-rule:nonzero;stroke:none" d="m 22.32,427.957 v 0.024 -0.024 l 0.024,0.024 z"/><path id="path4879" style="fill:#000000;fill-opacity:1;fill-rule:nonzero;stroke:none" d="m 22.32,427.981 h 0.023 v -0.023 H 22.32 Z"/><path id="path4881" style="fill:#000000;fill-opacity:1;fill-rule:nonzero;stroke:none" d="m 22.367,427.981 v -0.047 H 22.32 Z"/><path id="path4883" style="fill:#000000;fill-opacity:1;fill-rule:nonzero;stroke:none" d="m 22.32,427.981 h 0.047 v -0.047 H 22.32 Z"/><path id="path4885" style="fill:#000000;fill-opacity:1;fill-rule:nonzero;stroke:none" d="m 22.32,427.934 v 0.047 l 0.047,-0.047 z m 0.047,0 -0.047,0.047 v -0.047 z"/><path id="path4887" style="fill:#000000;fill-opacity:1;fill-rule:nonzero;stroke:none" d="m 22.367,427.934 h -0.047 0.024 v 0.047 z"/><path id="path4889" style="fill:#000000;fill-opacity:1;fill-rule:nonzero;stroke:none" d="m 22.32,427.934 v 0.047 -0.047 l 0.047,0.047 z"/><path id="path4891" style="fill:#000000;fill-opacity:1;fill-rule:nonzero;stroke:none" d="m 22.32,427.981 h 0.047 v -0.047 H 22.32 Z"/><path id="path4893" style="fill:#000000;fill-opacity:1;fill-rule:nonzero;stroke:none" d="m 22.367,427.981 v -0.047 H 22.32 Z"/><path id="path4895" style="fill:#000000;fill-opacity:1;fill-rule:nonzero;stroke:none" d="m 22.32,427.981 h 0.047 v -0.047 H 22.32 Z"/><path id="path4897" style="fill:#000000;fill-opacity:1;fill-rule:nonzero;stroke:none" d="m 22.32,427.934 v 0.047 l 0.047,-0.047 z m 0.047,0 -0.047,0.047 v -0.047 z"/><path id="path4899" style="fill:#000000;fill-opacity:1;fill-rule:nonzero;stroke:none" d="m 22.367,427.934 h -0.047 0.024 v 0.047 z"/><path id="path4901" style="fill:#000000;fill-opacity:1;fill-rule:nonzero;stroke:none" d="m 22.32,427.934 v 0.047 -0.047 l 0.047,0.047 z"/><path id="path4903" style="fill:#000000;fill-opacity:1;fill-rule:nonzero;stroke:none" d="m 22.32,427.981 h 0.047 v -0.047 H 22.32 Z"/><path id="path4905" style="fill:#000000;fill-opacity:1;fill-rule:nonzero;stroke:none" d="m 22.367,427.981 v -0.047 H 22.32 Z"/><path id="path4907" style="fill:#000000;fill-opacity:1;fill-rule:nonzero;stroke:none" d="m 22.32,427.981 h 0.047 v -0.047 H 22.32 Z"/><path id="path4909" style="fill:#000000;fill-opacity:1;fill-rule:nonzero;stroke:none" d="m 22.32,427.934 v 0.047 l 0.047,-0.047 z m 0.047,0 -0.047,0.047 v -0.047 z"/><path id="path4911" style="fill:#000000;fill-opacity:1;fill-rule:nonzero;stroke:none" d="m 22.367,427.934 h -0.047 0.024 v 0.047 z"/><path id="path4913" style="fill:#000000;fill-opacity:1;fill-rule:nonzero;stroke:none" d="m 22.32,427.934 v 0.047 -0.047 l 0.047,0.047 z"/><path id="path4915" style="fill:#000000;fill-opacity:1;fill-rule:nonzero;stroke:none" d="m 22.32,427.981 h 0.047 v -0.047 H 22.32 Z"/><path id="path4917" style="fill:#000000;fill-opacity:1;fill-rule:nonzero;stroke:none" d="m 127.031,289.598 -26.414,-19.422 v 27.969 l 26.414,19.422 h 26.414 V 133.176 h -26.414 z"/><path id="path4919" style="fill:#000000;fill-opacity:1;fill-rule:nonzero;stroke:none" d="m 173.062,279.496 c 0,6.219 1.036,11.742 3.106,16.574 2.246,4.836 5.18,8.981 8.805,12.434 3.629,3.453 7.769,6.043 12.433,7.77 4.832,1.898 9.84,2.847 15.02,2.847 5.179,0 10.101,-0.949 14.762,-2.847 4.835,-1.727 9.066,-4.317 12.691,-7.77 3.625,-3.453 6.473,-7.598 8.547,-12.434 2.242,-4.832 3.363,-10.355 3.363,-16.574 v -108.25 c 0,-6.219 -1.121,-11.742 -3.363,-16.574 -2.074,-4.836 -4.922,-8.98 -8.547,-12.434 -3.625,-3.453 -7.856,-6.128 -12.691,-8.027 -4.661,-1.726 -9.583,-2.59 -14.762,-2.59 -5.18,0 -10.188,0.864 -15.02,2.59 -4.664,1.899 -8.804,4.574 -12.433,8.027 -3.625,3.454 -6.559,7.598 -8.805,12.434 -2.07,4.832 -3.106,10.355 -3.106,16.574 z m 26.415,-108.25 c 0,-3.801 1.211,-6.992 3.625,-9.582 2.418,-2.418 5.527,-3.629 9.324,-3.629 3.797,0 6.906,1.211 9.324,3.629 2.418,2.59 3.625,5.781 3.625,9.582 v 108.25 c 0,3.801 -1.207,6.906 -3.625,9.324 -2.418,2.59 -5.527,3.887 -9.324,3.887 -3.797,0 -6.906,-1.297 -9.324,-3.887 -2.414,-2.418 -3.625,-5.523 -3.625,-9.324 z"/><path id="path4921" style="fill:#000000;fill-opacity:1;fill-rule:nonzero;stroke:none" d="m 271.406,279.496 c 0,6.219 1.035,11.742 3.106,16.574 2.246,4.836 5.179,8.981 8.804,12.434 3.629,3.453 7.77,6.043 12.434,7.77 4.832,1.898 9.84,2.847 15.02,2.847 5.179,0 10.101,-0.949 14.761,-2.847 4.836,-1.727 9.067,-4.317 12.692,-7.77 3.625,-3.453 6.472,-7.598 8.547,-12.434 2.242,-4.832 3.363,-10.355 3.363,-16.574 v -108.25 c 0,-6.219 -1.121,-11.742 -3.363,-16.574 -2.075,-4.836 -4.922,-8.98 -8.547,-12.434 -3.625,-3.453 -7.856,-6.128 -12.692,-8.027 -4.66,-1.726 -9.582,-2.59 -14.761,-2.59 -5.18,0 -10.188,0.864 -15.02,2.59 -4.664,1.899 -8.805,4.574 -12.434,8.027 -3.625,3.454 -6.558,7.598 -8.804,12.434 -2.071,4.832 -3.106,10.355 -3.106,16.574 z m 26.414,-108.25 c 0,-3.801 1.211,-6.992 3.625,-9.582 2.418,-2.418 5.528,-3.629 9.325,-3.629 3.796,0 6.906,1.211 9.324,3.629 2.418,2.59 3.625,5.781 3.625,9.582 v 108.25 c 0,3.801 -1.207,6.906 -3.625,9.324 -2.418,2.59 -5.528,3.887 -9.324,3.887 -3.797,0 -6.907,-1.297 -9.325,-3.887 -2.414,-2.418 -3.625,-5.523 -3.625,-9.324 z"/></g></g></svg>