<?xml version="1.0" encoding="UTF-8" standalone="no"?>
<!-- Created with Inkscape (http://www.inkscape.org/) -->
<svg version="1.1" id="svg31277" xml:space="preserve" width="601.00201" height="601.00195" viewBox="0 0 601.00201 601.00195" xmlns="http://www.w3.org/2000/svg" xmlns:svg="http://www.w3.org/2000/svg"><defs id="defs31281"/><g id="g31283" transform="matrix(1.3333333,0,0,1.3333333,0,1.1691715e-5)"><g id="g31285"><path d="m 450.375,225.375 c 0,124.266 -100.734,225 -225,225 -124.266,0 -225,-100.734 -225,-225 0,-124.266 100.734,-225 225,-225 124.266,0 225,100.734 225,225 z" style="fill:#ffffff;fill-opacity:1;fill-rule:nonzero;stroke:none" id="path31287"/><path d="M 225.375,0 C 100.906,0 0,100.906 0,225.375 0,349.84 100.906,450.75 225.375,450.75 349.84,450.75 450.75,349.84 450.75,225.375 450.75,100.906 349.84,0 225.375,0 Z m 0,0.375 c 124.266,0 225,100.734 225,225 0,124.266 -100.734,225 -225,225 -124.266,0 -225,-100.734 -225,-225 0,-124.266 100.734,-225 225,-225 z" style="fill:#000000;fill-opacity:1;fill-rule:nonzero;stroke:none" id="path31289"/><path d="m 106.828,336.453 h 31.828 v -222.16 h -31.828 l -31.824,23.402 v 33.7 l 31.824,-23.403 z" style="fill:#666666;fill-opacity:1;fill-rule:nonzero;stroke:none" id="path31291"/><path d="m 282.469,289.504 c 0,29.152 21.785,46.949 46.64,46.949 24.856,0 46.641,-17.797 46.641,-46.949 V 161.242 c 0,-29.152 -21.785,-46.949 -46.641,-46.949 -24.855,0 -46.64,17.797 -46.64,46.949 z M 313.77,161.242 c 0,-8.898 6.441,-15.648 15.339,-15.648 8.899,0 15.344,6.75 15.344,15.648 v 128.262 c 0,8.898 -6.445,15.648 -15.344,15.648 -8.898,0 -15.339,-6.75 -15.339,-15.648 z" style="fill:#666666;fill-opacity:1;fill-rule:nonzero;stroke:none" id="path31293"/><path d="m 198.715,235.816 c 20.25,0 24.859,3.672 24.859,20.547 v 31.297 c 0,10.75 -5.844,17.5 -15.344,17.5 -9.515,0 -15.343,-7.062 -15.343,-16.875 V 272.02 H 161.59 v 17.796 c 0,34.36 26.39,46.641 46.328,46.641 19.031,0 30.984,-8.594 38.656,-19.953 6.453,-9.5 8.297,-15.953 8.297,-44.797 0,-30.984 0,-38.047 -19.344,-50.016 17.797,-10.734 19.344,-15.64 19.344,-45.718 0,-27.922 -3.687,-36.516 -11.969,-46.328 -5.531,-6.75 -17.187,-15.344 -34.062,-15.344 -25.781,0 -47.25,20.562 -47.25,46.328 v 18.109 h 31.297 v -17.797 c 0,-6.453 4.297,-15.343 15.343,-15.343 9.5,0 15.344,6.437 15.344,15.343 v 28.235 c 0,16.25 -6.14,19.015 -24.859,19.015 z" style="fill:#666666;fill-opacity:1;fill-rule:nonzero;stroke:none" id="path31295"/><path d="M 225.375,7.926 C 105.352,7.926 7.93,105.352 7.93,225.375 c 0,120.023 97.422,217.445 217.445,217.445 120.023,0 217.449,-97.422 217.449,-217.445 0,-120.023 -97.426,-217.449 -217.449,-217.449 z m 0,11.25 c 43.414,0 83.672,13.402 116.883,36.285 L 55.457,342.258 C 32.578,309.047 19.176,268.789 19.176,225.375 19.176,111.43 111.43,19.176 225.375,19.176 Z m 123.676,41.156 c 2.265,1.703 4.492,3.453 6.687,5.246 l -290.16,290.16 c -1.793,-2.195 -3.543,-4.422 -5.246,-6.687 z m 12.988,10.609 c 2.109,1.868 4.184,3.774 6.215,5.723 L 76.664,368.25 c -1.949,-2.027 -3.855,-4.102 -5.723,-6.211 z M 374.086,82.5 c 1.949,2.027 3.855,4.102 5.723,6.211 L 88.711,379.809 c -2.109,-1.868 -4.184,-3.774 -6.211,-5.723 z m 11.086,12.508 c 1.793,2.195 3.543,4.422 5.246,6.687 L 101.699,390.418 c -2.265,-1.703 -4.496,-3.453 -6.687,-5.246 z m 10.121,13.484 c 22.879,33.215 36.285,73.469 36.285,116.883 0,113.945 -92.258,206.195 -206.203,206.195 -43.41,0 -83.672,-13.402 -116.883,-36.281 z" style="fill:#000000;fill-opacity:1;fill-rule:nonzero;stroke:none" id="path31297"/></g></g></svg>