<?xml version="1.0" encoding="UTF-8" standalone="no"?>
<svg
   viewBox="0 0 847.15851 743.62274"
   height="743.62274"
   width="847.15851"
   xml:space="preserve"
   version="1.1"
   id="svg4162"
   sodipodi:docname="Zeichen_110-17_-_Steigung,_StVO_2017.svg"
   inkscape:version="1.1 (c68e22c387, 2021-05-23)"
   xmlns:inkscape="http://www.inkscape.org/namespaces/inkscape"
   xmlns:sodipodi="http://sodipodi.sourceforge.net/DTD/sodipodi-0.dtd"
   xmlns="http://www.w3.org/2000/svg"
   xmlns:svg="http://www.w3.org/2000/svg"
   xmlns:rdf="http://www.w3.org/1999/02/22-rdf-syntax-ns#"
   xmlns:cc="http://creativecommons.org/ns#"
   xmlns:dc="http://purl.org/dc/elements/1.1/"><sodipodi:namedview
     id="namedview852"
     pagecolor="#ffffff"
     bordercolor="#666666"
     borderopacity="1.0"
     inkscape:pageshadow="2"
     inkscape:pageopacity="0.0"
     inkscape:pagecheckerboard="0"
     showgrid="false"
     inkscape:zoom="0.99647302"
     inkscape:cx="402.92109"
     inkscape:cy="327.15387"
     inkscape:window-width="1560"
     inkscape:window-height="984"
     inkscape:window-x="229"
     inkscape:window-y="23"
     inkscape:window-maximized="0"
     inkscape:current-layer="svg4162" /><metadata
     id="metadata4168"><rdf:RDF><cc:Work
         rdf:about=""><dc:format>image/svg+xml</dc:format><dc:type
           rdf:resource="http://purl.org/dc/dcmitype/StillImage" /></cc:Work></rdf:RDF></metadata><defs
     id="defs4166"><clipPath
       clipPathUnits="userSpaceOnUse"
       id="clipPath2489"><path
         d="m 436.069,369.652 h 27.967 v 32.775 h -27.967 z"
         id="path2487" /></clipPath><clipPath
       clipPathUnits="userSpaceOnUse"
       id="clipPath2521"><path
         d="m 464.037,369.652 h 27.967 v 32.775 h -27.967 z"
         id="path2519" /></clipPath><clipPath
       clipPathUnits="userSpaceOnUse"
       id="clipPath2553"><path
         d="m 492.006,369.652 h 27.968 v 32.775 h -27.968 z"
         id="path2551" /></clipPath><clipPath
       clipPathUnits="userSpaceOnUse"
       id="clipPath2585"><path
         d="m 519.975,369.652 h 27.968 v 32.775 h -27.968 z"
         id="path2583" /></clipPath><clipPath
       clipPathUnits="userSpaceOnUse"
       id="clipPath2713"><path
         d="m 380.137,348.677 h 27.967 v 20.975 h -27.967 z"
         id="path2711" /></clipPath><clipPath
       clipPathUnits="userSpaceOnUse"
       id="clipPath2745"><path
         d="m 408.105,348.677 h 27.968 v 20.975 h -27.968 z"
         id="path2743" /></clipPath><clipPath
       clipPathUnits="userSpaceOnUse"
       id="clipPath2777"><path
         d="m 436.072,348.677 h 27.968 v 20.975 h -27.968 z"
         id="path2775" /></clipPath><clipPath
       clipPathUnits="userSpaceOnUse"
       id="clipPath2617"><path
         d="m 464.038,348.677 h 27.967 v 20.975 h -27.967 z"
         id="path2615" /></clipPath><clipPath
       clipPathUnits="userSpaceOnUse"
       id="clipPath2681"><path
         d="m 519.975,348.677 h 27.968 v 20.975 h -27.968 z"
         id="path2679" /></clipPath><clipPath
       clipPathUnits="userSpaceOnUse"
       id="clipPath2905"><path
         d="m 380.135,322.456 h 27.967 v 20.977 h -27.967 z"
         id="path2903" /></clipPath><clipPath
       clipPathUnits="userSpaceOnUse"
       id="clipPath2937"><path
         d="m 408.103,322.456 h 27.968 v 20.977 h -27.968 z"
         id="path2935" /></clipPath><clipPath
       clipPathUnits="userSpaceOnUse"
       id="clipPath2969"><path
         d="m 436.075,322.456 h 27.968 v 20.977 h -27.968 z"
         id="path2967" /></clipPath><clipPath
       clipPathUnits="userSpaceOnUse"
       id="clipPath2809"><path
         d="m 464.042,322.456 h 27.967 v 20.977 h -27.967 z"
         id="path2807" /></clipPath></defs><path
     id="path4174"
     style="fill:#ffffff;fill-opacity:1;fill-rule:nonzero;stroke:none;stroke-width:1.25"
     d="m 423.58375,0.49774 c -9.39,0 -18.77875,3.58375 -25.9475,10.7475 -2.34875,2.34875 -4.30625,4.94125 -5.88375,7.69 l -19.0575,32.695 h -0.0875 L 6.23,686.68399 c -0.0675,0.1175 -0.12125,0.24 -0.19,0.3625 -1.855,2.9875 -3.32,6.3025 -4.2875,9.8875 -5.23875,19.57 6.3775,39.6925 25.9525,44.93625 3.2325,0.86875 6.485,1.265 9.6675,1.25 h 772.59375 c 20.26375,0 36.68875,-16.42625 36.68875,-36.695 0,-6.625 -1.7675,-12.85125 -4.84875,-18.2225 -0.0237,-0.0437 -0.0487,-0.0775 -0.0625,-0.12125 L 461.27875,27.56774 c -4.82375,-8.33 -7.06,-11.63 -11.7525,-16.3225 -7.1625,-7.16375 -16.5525,-10.7475 -25.9425,-10.7475 z" /><path
     id="path4176"
     style="fill:#c1121c;fill-opacity:1;fill-rule:nonzero;stroke:none;stroke-width:1.25"
     d="M 423.58375,9.69274 C 414.6775,9.62899 404.8975,14.18399 400.1075,22.69524 L 13.49125,692.56399 c -2.23125,4.56 -3.16875,8.525 -3.19875,13.06125 0,8.12 3.59375,15.825 9.81,21.055 5.48375,4.2375 10.66875,6.445 17.65125,6.445 h 772.3825 c 4.7125,0.0438 9.43375,-1.08875 13.72625,-3.91625 8.05625,-4.86875 12.9975,-13.60375 13.0075,-23.0325 -0.22875,-4.8675 -1.43,-10 -3.59875,-13.6125 L 446.88,22.58774 c -0.0337,-0.05875 -0.0738,-0.1175 -0.1125,-0.17625 -0.0387,-0.0575 -0.0775,-0.11125 -0.1175,-0.18 -1.36625,-2.1975 -3.085,-4.13125 -5.05375,-5.79125 -4.4825,-3.88625 -10.1025,-6.22 -16.025,-6.64 -0.66375,-0.06375 -1.3275,-0.1025 -1.9875,-0.1075 z m -385.83,723.4325 H 35.85 37.7925 Z m 385.43,-590.66375 294.62875,510.66375 H 128.14 Z" /><path
     id="path4178"
     style="fill:#000000;fill-opacity:1;fill-rule:nonzero;stroke:none;stroke-width:1.25"
     d="m 423.58375,2.4e-4 c -9.52125,0 -19.0375,3.6325 -26.29875,10.89875 -2.3825,2.3725 -4.365,5.00875 -5.96625,7.7875 L 372.4075,51.13274 h -0.0888 L 5.80125,686.43024 c -0.08375,0.1475 -0.1475,0.27375 -0.20125,0.37625 -1.87875,3.0275 -3.35375,6.3775 -4.325,9.995 -5.3125,19.83875 6.46375,40.235 26.29875,45.5525 3.27625,0.87875 6.57125,1.27875 9.79875,1.26875 h 772.59375 c 20.53125,0 37.1925,-16.66 37.1925,-37.1975 0,-6.71875 -1.7975,-13.0175 -4.9175,-18.46625 -0.02,-0.02 -0.0338,-0.0638 -0.0638,-0.1225 L 461.72375,27.31899 C 456.885,18.98399 454.605,15.61524 449.8875,10.89899 442.6275,3.63274 433.105,2.4e-4 423.58875,2.4e-4 Z m 0,0.4975 c 9.39,0 18.78,3.58375 25.9425,10.7475 4.6925,4.6925 6.92875,7.9925 11.7525,16.3225 l 380.46,660.51375 c 0.0188,0.0437 0.0438,0.0775 0.0675,0.12125 3.08125,5.37125 4.84875,11.5975 4.84875,18.2225 0,20.26875 -16.425,36.695 -36.68875,36.695 H 37.3725 c -3.1825,0.015 -6.435,-0.38125 -9.6675,-1.25 C 8.13,736.62649 -3.48625,716.50399 1.7525,696.93399 c 0.9625,-3.585 2.4325,-6.9 4.2875,-9.8875 0.06875,-0.1225 0.1225,-0.245 0.19,-0.3625 L 372.6075,51.63024 h 0.0875 l 19.0575,-32.695 c 1.5775,-2.74875 3.535,-5.34125 5.88375,-7.69 C 404.805,4.08149 414.19,0.49774 423.58375,0.49774 Z" /><path
     id="path4180"
     style="fill:#000000;fill-opacity:1;fill-rule:nonzero;stroke:none;stroke-width:1.25"
     d="M 700.4,642.98774 561.17625,401.99274 143.725,642.98774" /><g
     id="g2483"
     transform="matrix(42.947798,0,0,-42.947798,-18904.742,16952.943)"
     style="fill:#ff00ff"><g
       id="g2485"
       clip-path="url(#clipPath2489)"
       style="fill:#ff00ff"><g
         id="g2491"
         transform="translate(443.0692,379.4445)"
         style="fill:#ff00ff" /><g
         id="g2495"
         transform="translate(451.2094,385.4551)"
         style="fill:#ff00ff" /></g></g><g
     id="g2515"
     transform="matrix(42.947798,0,0,-42.947798,-20106.853,16949.349)"
     style="fill:#ff00ff"><g
       id="g2517"
       clip-path="url(#clipPath2521)"
       style="fill:#ff00ff"><g
         id="g2523"
         transform="translate(471.0388,379.3608)"
         style="fill:#ff00ff" /><g
         id="g2527"
         transform="translate(479.1184,385.3364)"
         style="fill:#ff00ff" /></g></g><g
     id="g2547"
     transform="matrix(42.947798,0,0,-42.947798,-21308.055,16949.347)"
     style="fill:#ff00ff"><g
       id="g2549"
       clip-path="url(#clipPath2553)"
       style="fill:#ff00ff"><g
         id="g2555"
         transform="translate(499.0075,379.3608)"
         style="fill:#ff00ff" /><g
         id="g2559"
         transform="translate(507.0706,385.3269)"
         style="fill:#ff00ff" /></g></g><g
     id="g2579"
     transform="matrix(42.947798,0,0,-42.947798,-22508.363,16949.347)"
     style="fill:#ff00ff"><g
       id="g2581"
       clip-path="url(#clipPath2585)"
       style="fill:#ff00ff"><g
         id="g2587"
         transform="translate(526.9762,379.3608)"
         style="fill:#ff00ff" /><g
         id="g2591"
         transform="translate(534.9814,385.2935)"
         style="fill:#ff00ff" /></g></g><g
     id="g2707"
     transform="matrix(42.902396,0,0,-42.902396,-16485.16,15778.422)"
     style="fill:#ff00ff"><g
       id="g2709"
       clip-path="url(#clipPath2713)"
       style="fill:#ff00ff"><g
         id="g2715"
         transform="translate(387.1379,352.4854)"
         style="fill:#ff00ff" /><g
         id="g2719"
         transform="translate(395.2396,358.4738)"
         style="fill:#ff00ff" /></g></g><g
     id="g2739"
     transform="matrix(42.598168,0,0,-42.598168,-17563.296,15666.448)"
     style="fill:#ff00ff"><g
       id="g2741"
       clip-path="url(#clipPath2745)"
       style="fill:#ff00ff"><g
         id="g2747"
         transform="translate(415.2153,352.3575)"
         style="fill:#ff00ff" /><g
         id="g2751"
         transform="translate(423.3257,358.3615)"
         style="fill:#ff00ff" /></g></g><g
     id="g2771"
     transform="matrix(42.597322,0,0,-42.597322,-18755.171,15666.151)"
     style="fill:#ff00ff"><g
       id="g2773"
       clip-path="url(#clipPath2777)"
       style="fill:#ff00ff"><g
         id="g2779"
         transform="translate(443.1822,352.3575)"
         style="fill:#ff00ff" /><g
         id="g2783"
         transform="translate(451.8755,358.6984)"
         style="fill:#ff00ff" /></g></g><g
     id="g2611"
     transform="matrix(42.947889,0,0,-42.947889,-20106.039,15795.15)"
     style="fill:#ff00ff"><g
       id="g2613"
       clip-path="url(#clipPath2617)"
       style="fill:#ff00ff"><g
         id="g2619"
         transform="translate(471.0393,352.4856)"
         style="fill:#ff00ff" /><g
         id="g2623"
         transform="translate(479.4107,358.6297)"
         style="fill:#ff00ff" /></g></g><g
     id="g2675"
     transform="matrix(42.947889,0,0,-42.947889,-22508.432,15795.15)"
     style="fill:#ff00ff"><g
       id="g2677"
       clip-path="url(#clipPath2681)"
       style="fill:#ff00ff"><g
         id="g2683"
         transform="translate(526.9767,352.4856)"
         style="fill:#ff00ff" /><g
         id="g2687"
         transform="translate(535.6157,358.7843)"
         style="fill:#ff00ff"><path
           d="m 0,0 0.156,-0.27 c 0.037,-0.064 0.118,-0.086 0.182,-0.049 0.064,0.037 0.086,0.119 0.049,0.183 L 0.231,0.134 C 0.194,0.197 0.113,0.219 0.049,0.182 -0.015,0.146 -0.037,0.064 0,0 0,0 -0.037,0.064 0,0 M -0.154,-0.089 C -0.24,0.06 -0.189,0.251 -0.04,0.337 0.109,0.423 0.3,0.372 0.386,0.222 L 0.541,-0.047 C 0.627,-0.196 0.576,-0.387 0.427,-0.473 0.278,-0.559 0.088,-0.508 0.002,-0.359 Z m -0.954,0.94 -0.156,0.27 C -1.301,1.185 -1.383,1.207 -1.446,1.17 -1.51,1.133 -1.532,1.051 -1.495,0.987 l 0.156,-0.27 c 0.036,-0.064 0.118,-0.085 0.182,-0.049 0.064,0.037 0.086,0.119 0.049,0.183 M -0.954,0.94 C -0.868,0.791 -0.919,0.6 -1.068,0.514 -1.217,0.428 -1.408,0.479 -1.494,0.628 -1.6410663,0.85671392 -1.7914544,1.1664122 -1.535,1.324 -1.386,1.41 -1.196,1.359 -1.11,1.21 Z m 0.406,-1.95 -0.225,2.749 0.213,0.122 0.224,-2.749 z"
           style="fill:#000000;fill-opacity:1;fill-rule:nonzero;stroke:none"
           id="path2689"
           sodipodi:nodetypes="ccsccccccsccsccccccccccsccccccccc" /></g></g></g><g
     id="g2899"
     transform="matrix(42.947704,0,0,-42.947704,-16502.498,14669.008)"
     style="fill:#ff00ff"><g
       id="g2901"
       clip-path="url(#clipPath2905)"
       style="fill:#ff00ff"><g
         id="g2907"
         transform="translate(387.136,326.2659)"
         style="fill:#ff00ff" /><g
         id="g2911"
         transform="translate(395.816,332.5882)"
         style="fill:#ff00ff" /></g></g><g
     id="g2931"
     transform="matrix(42.947704,0,0,-42.947704,-17703.69,14669.008)"
     style="fill:#ff00ff"><g
       id="g2933"
       clip-path="url(#clipPath2937)"
       style="fill:#ff00ff"><g
         id="g2939"
         transform="translate(415.1047,326.2659)"
         style="fill:#ff00ff" /><g
         id="g2943"
         transform="translate(423.7434,332.5643)"
         style="fill:#ff00ff" /></g></g><g
     id="g2963"
     transform="matrix(42.947794,0,0,-42.947794,-18905.08,14669.045)"
     style="fill:#ff00ff"><g
       id="g2965"
       clip-path="url(#clipPath2969)"
       style="fill:#ff00ff"><g
         id="g2971"
         transform="translate(443.0771,326.2661)"
         style="fill:#ff00ff" /><g
         id="g2975"
         transform="translate(451.6991,332.555)"
         style="fill:#ff00ff" /></g></g><g
     id="g2803"
     transform="matrix(42.947794,0,0,-42.947794,-20106.154,14669.045)"
     style="fill:#ff00ff"><g
       id="g2805"
       clip-path="url(#clipPath2809)"
       style="fill:#ff00ff"><g
         id="g2811"
         transform="translate(471.043,326.2661)"
         style="fill:#ff00ff" /><g
         id="g2815"
         transform="translate(479.6073,332.5216)"
         style="fill:#ff00ff"><path
           d="M -2.09,-1.901 -2.426,0.373 -3.004,0.039 -2.826,-0.269 -3.134,-0.447 -3.491,0.169 -2.257,0.882 -2.09,0.593 -1.743,-1.7 Z m -2.196,0.866 -0.189,0.327 0.175,0.41 0.308,0.178 1.247,-2.159 -0.309,-0.178 -1.057,1.831 z"
           style="fill:#000000;fill-opacity:1;fill-rule:nonzero;stroke:none"
           id="path2817"
           sodipodi:nodetypes="cccccccccccccccccc" /></g></g></g></svg>
