<?xml version="1.0" encoding="UTF-8" standalone="no"?>
<svg
   viewBox="0 0 847.15851 743.62274"
   height="743.62274"
   width="847.15851"
   xml:space="preserve"
   version="1.1"
   id="svg4600"
   sodipodi:docname="Zeichen_108-4_-_Gefälle,_StVO_2017.svg"
   inkscape:version="1.1 (c68e22c387, 2021-05-23)"
   xmlns:inkscape="http://www.inkscape.org/namespaces/inkscape"
   xmlns:sodipodi="http://sodipodi.sourceforge.net/DTD/sodipodi-0.dtd"
   xmlns="http://www.w3.org/2000/svg"
   xmlns:svg="http://www.w3.org/2000/svg"
   xmlns:rdf="http://www.w3.org/1999/02/22-rdf-syntax-ns#"
   xmlns:cc="http://creativecommons.org/ns#"
   xmlns:dc="http://purl.org/dc/elements/1.1/"><sodipodi:namedview
     id="namedview852"
     pagecolor="#ffffff"
     bordercolor="#666666"
     borderopacity="1.0"
     inkscape:pageshadow="2"
     inkscape:pageopacity="0.0"
     inkscape:pagecheckerboard="0"
     showgrid="false"
     inkscape:zoom="0.99647302"
     inkscape:cx="423.99542"
     inkscape:cy="371.81137"
     inkscape:window-width="1560"
     inkscape:window-height="1013"
     inkscape:window-x="292"
     inkscape:window-y="365"
     inkscape:window-maximized="0"
     inkscape:current-layer="svg4600" /><metadata
     id="metadata4606"><rdf:RDF><cc:Work
         rdf:about=""><dc:format>image/svg+xml</dc:format><dc:type
           rdf:resource="http://purl.org/dc/dcmitype/StillImage" /></cc:Work></rdf:RDF></metadata><defs
     id="defs4604"><clipPath
       clipPathUnits="userSpaceOnUse"
       id="clipPath2327"><path
         d="m 436.073,494.378 h 27.967 v 32.775 h -27.967 z"
         id="path2325" /></clipPath></defs><path
     id="path4612"
     style="fill:#ffffff;fill-opacity:1;fill-rule:nonzero;stroke:none;stroke-width:1.25"
     d="m 423.58375,0.49774 c -9.39,0 -18.77875,3.58375 -25.9475,10.7475 -2.34875,2.34875 -4.30625,4.94125 -5.88375,7.69 l -19.0575,32.695 h -0.0875 L 6.23,686.68399 c -0.0675,0.1175 -0.12125,0.24 -0.19,0.3625 -1.855,2.9875 -3.32,6.3025 -4.2875,9.8875 -5.23875,19.57 6.3775,39.6925 25.9525,44.93625 3.2325,0.86875 6.485,1.265 9.6675,1.25 h 772.59375 c 20.26375,0 36.68875,-16.42625 36.68875,-36.695 0,-6.625 -1.7675,-12.85125 -4.84875,-18.2225 -0.0237,-0.0437 -0.0487,-0.0775 -0.0625,-0.12125 L 461.27875,27.56774 c -4.82375,-8.33 -7.06,-11.63 -11.7525,-16.3225 -7.1625,-7.16375 -16.5525,-10.7475 -25.9425,-10.7475 z" /><path
     id="path4614"
     style="fill:#c1121c;fill-opacity:1;fill-rule:nonzero;stroke:none;stroke-width:1.25"
     d="M 423.58375,9.69274 C 414.6775,9.62899 404.8975,14.18399 400.1075,22.69524 L 13.49125,692.56399 c -2.23125,4.56 -3.16875,8.525 -3.19875,13.06125 0,8.12 3.59375,15.825 9.81,21.055 5.48375,4.2375 10.66875,6.445 17.65125,6.445 h 772.3825 c 4.7125,0.0438 9.43375,-1.08875 13.72625,-3.91625 8.05625,-4.86875 12.9975,-13.60375 13.0075,-23.0325 -0.22875,-4.8675 -1.43,-10 -3.59875,-13.6125 L 446.88,22.58774 c -0.0337,-0.05875 -0.0738,-0.1175 -0.1125,-0.17625 -0.0387,-0.0575 -0.0775,-0.11125 -0.1175,-0.18 -1.36625,-2.1975 -3.085,-4.13125 -5.05375,-5.79125 -4.4825,-3.88625 -10.1025,-6.22 -16.025,-6.64 -0.66375,-0.06375 -1.3275,-0.1025 -1.9875,-0.1075 z m -385.83,723.4325 H 35.85 37.7925 Z m 385.43,-590.66375 294.62875,510.66375 H 128.14 Z" /><path
     id="path4616"
     style="fill:#000000;fill-opacity:1;fill-rule:nonzero;stroke:none;stroke-width:1.25"
     d="m 423.58375,2.4e-4 c -9.52125,0 -19.0375,3.6325 -26.29875,10.89875 -2.3825,2.3725 -4.365,5.00875 -5.96625,7.7875 L 372.4075,51.13274 h -0.0888 L 5.80125,686.43024 c -0.08375,0.1475 -0.1475,0.27375 -0.20125,0.37625 -1.87875,3.0275 -3.35375,6.3775 -4.325,9.995 -5.3125,19.83875 6.46375,40.235 26.29875,45.5525 3.27625,0.87875 6.57125,1.27875 9.79875,1.26875 h 772.59375 c 20.53125,0 37.1925,-16.66 37.1925,-37.1975 0,-6.71875 -1.7975,-13.0175 -4.9175,-18.46625 -0.02,-0.02 -0.0338,-0.0638 -0.0638,-0.1225 L 461.72375,27.31899 C 456.885,18.98399 454.605,15.61524 449.8875,10.89899 442.6275,3.63274 433.105,2.4e-4 423.58875,2.4e-4 Z m 0,0.4975 c 9.39,0 18.78,3.58375 25.9425,10.7475 4.6925,4.6925 6.92875,7.9925 11.7525,16.3225 l 380.46,660.51375 c 0.0188,0.0437 0.0438,0.0775 0.0675,0.12125 3.08125,5.37125 4.84875,11.5975 4.84875,18.2225 0,20.26875 -16.425,36.695 -36.68875,36.695 H 37.3725 c -3.1825,0.015 -6.435,-0.38125 -9.6675,-1.25 C 8.13,736.62649 -3.48625,716.50399 1.7525,696.93399 c 0.9625,-3.585 2.4325,-6.9 4.2875,-9.8875 0.06875,-0.1225 0.1225,-0.245 0.19,-0.3625 L 372.6075,51.63024 h 0.0875 l 19.0575,-32.695 c 1.5775,-2.74875 3.535,-5.34125 5.88375,-7.69 C 404.805,4.08149 414.19,0.49774 423.58375,0.49774 Z" /><path
     id="path4618"
     style="fill:#000000;fill-opacity:1;fill-rule:nonzero;stroke:none;stroke-width:1.25"
     d="m 145.7275,642.98774 139.22375,-240.995 417.45125,240.995" /><g
     id="g2321"
     transform="matrix(42.947242,0,0,-42.947242,-18902.665,22305.748)"
     style="fill:#000000"><g
       id="g2323"
       clip-path="url(#clipPath2327)"
       style="fill:#000000"><g
         id="g2329"
         transform="translate(441.0183,502.3052)"
         style="fill:#000000" /><g
         id="g2333"
         transform="translate(443.4858,504.3234)"
         style="fill:#000000"><path
           d="M 0,0 3.286,5.692 13.144,0 Z M 4.918,5.803 5.074,6.073 6.708,7.212 7.055,7.011 5.432,5.892 5.991,5.569 6.348,6.186 6.656,6.008 6.3,5.391 6.473,5.291 6.306,5.002 6.133,5.102 5.944,4.774 5.635,4.952 5.824,5.28 Z M 6.695,4.34 8.964,5.909 9.176,5.787 6.908,4.218 Z M 8.181,5.667 C 8.095,5.518 7.905,5.467 7.756,5.553 7.607,5.639 7.555,5.83 7.641,5.979 l 0.156,0.27 c 0.086,0.149 0.277,0.2 0.426,0.114 0.149,-0.086 0.2,-0.277 0.114,-0.426 z M 8.027,5.756 8.183,6.026 C 8.22,6.09 8.198,6.172 8.134,6.209 8.07,6.245 7.988,6.223 7.952,6.16 L 7.796,5.89 C 7.759,5.826 7.781,5.744 7.845,5.707 7.909,5.671 7.99,5.692 8.027,5.756 M 7.69,4.46 7.534,4.19 C 7.448,4.041 7.499,3.85 7.648,3.765 7.797,3.678 7.988,3.73 8.074,3.879 L 8.23,4.148 C 8.316,4.297 8.265,4.488 8.116,4.574 7.967,4.66 7.776,4.609 7.69,4.46 M 7.844,4.371 C 7.881,4.435 7.963,4.457 8.027,4.42 8.091,4.383 8.112,4.301 8.076,4.237 L 7.92,3.968 C 7.883,3.904 7.801,3.882 7.737,3.919 7.673,3.955 7.652,4.037 7.688,4.101 l 0.156,0.27"
           style="fill:#000000;fill-opacity:1;fill-rule:nonzero;stroke:none"
           id="path2335" /></g></g></g></svg>
