<?xml version="1.0" encoding="UTF-8" standalone="no"?>
<svg
   viewBox="0 0 847.15851 743.62274"
   height="743.62274"
   width="847.15851"
   xml:space="preserve"
   version="1.1"
   id="svg4600"
   sodipodi:docname="Zeichen_108-18_-_Gefälle,_StVO_2017.svg"
   inkscape:version="1.1 (c68e22c387, 2021-05-23)"
   xmlns:inkscape="http://www.inkscape.org/namespaces/inkscape"
   xmlns:sodipodi="http://sodipodi.sourceforge.net/DTD/sodipodi-0.dtd"
   xmlns="http://www.w3.org/2000/svg"
   xmlns:svg="http://www.w3.org/2000/svg"
   xmlns:rdf="http://www.w3.org/1999/02/22-rdf-syntax-ns#"
   xmlns:cc="http://creativecommons.org/ns#"
   xmlns:dc="http://purl.org/dc/elements/1.1/"><sodipodi:namedview
     id="namedview6833"
     pagecolor="#ffffff"
     bordercolor="#666666"
     borderopacity="1.0"
     inkscape:pageshadow="2"
     inkscape:pageopacity="0.0"
     inkscape:pagecheckerboard="0"
     showgrid="false"
     inkscape:zoom="1.0126102"
     inkscape:cx="356.99818"
     inkscape:cy="364.89856"
     inkscape:window-width="1560"
     inkscape:window-height="1013"
     inkscape:window-x="183"
     inkscape:window-y="24"
     inkscape:window-maximized="0"
     inkscape:current-layer="svg4600"
     showguides="true"
     inkscape:guide-bbox="true" /><metadata
     id="metadata4606"><rdf:RDF><cc:Work
         rdf:about=""><dc:format>image/svg+xml</dc:format><dc:type
           rdf:resource="http://purl.org/dc/dcmitype/StillImage" /></cc:Work></rdf:RDF></metadata><defs
     id="defs4604"><clipPath
       clipPathUnits="userSpaceOnUse"
       id="clipPath2227"><path
         d="m 464.041,494.378 h 27.968 v 32.775 h -27.968 z"
         id="path2225" /></clipPath><clipPath
       clipPathUnits="userSpaceOnUse"
       id="clipPath2327"><path
         d="m 436.073,494.378 h 27.967 v 32.775 h -27.967 z"
         id="path2325" /></clipPath><clipPath
       clipPathUnits="userSpaceOnUse"
       id="clipPath2227-5"><path
         d="m 464.041,494.378 h 27.968 v 32.775 h -27.968 z"
         id="path2225-2" /></clipPath><clipPath
       clipPathUnits="userSpaceOnUse"
       id="clipPath2227-6"><path
         d="m 464.041,494.378 h 27.968 v 32.775 h -27.968 z"
         id="path2225-23" /></clipPath><clipPath
       clipPathUnits="userSpaceOnUse"
       id="clipPath2259"><path
         d="m 492.01,494.378 h 27.968 v 32.775 H 492.01 Z"
         id="path2257" /></clipPath><clipPath
       clipPathUnits="userSpaceOnUse"
       id="clipPath2291"><path
         d="m 519.979,494.378 h 27.968 v 32.775 h -27.968 z"
         id="path2289" /></clipPath><clipPath
       clipPathUnits="userSpaceOnUse"
       id="clipPath1735"><path
         d="m 380.134,473.401 h 27.968 v 20.977 h -27.968 z"
         id="path1733" /></clipPath><clipPath
       clipPathUnits="userSpaceOnUse"
       id="clipPath1767"><path
         d="m 408.103,473.401 h 27.969 v 20.977 h -27.969 z"
         id="path1765" /></clipPath><clipPath
       clipPathUnits="userSpaceOnUse"
       id="clipPath1799"><path
         d="m 436.076,473.401 h 27.968 v 20.977 h -27.968 z"
         id="path1797" /></clipPath><clipPath
       clipPathUnits="userSpaceOnUse"
       id="clipPath1639"><path
         d="m 464.043,473.401 h 27.967 v 20.977 h -27.967 z"
         id="path1637" /></clipPath><clipPath
       clipPathUnits="userSpaceOnUse"
       id="clipPath1671"><path
         d="m 492.011,473.401 h 27.968 v 20.977 h -27.968 z"
         id="path1669" /></clipPath><clipPath
       clipPathUnits="userSpaceOnUse"
       id="clipPath1703"><path
         d="m 519.98,473.401 h 27.968 v 20.977 H 519.98 Z"
         id="path1701" /></clipPath><clipPath
       clipPathUnits="userSpaceOnUse"
       id="clipPath1931"><path
         d="m 380.137,447.18 h 27.968 v 20.976 h -27.968 z"
         id="path1929" /></clipPath><clipPath
       clipPathUnits="userSpaceOnUse"
       id="clipPath1786"><path
         d="m 408.107,447.18 h 27.969 v 20.976 h -27.969 z"
         id="path1784" /></clipPath><clipPath
       clipPathUnits="userSpaceOnUse"
       id="clipPath1818"><path
         d="m 436.076,447.18 h 27.968 v 20.976 h -27.968 z"
         id="path1816" /></clipPath><clipPath
       clipPathUnits="userSpaceOnUse"
       id="clipPath1658"><path
         d="m 464.043,447.18 h 27.967 v 20.976 h -27.967 z"
         id="path1656" /></clipPath><clipPath
       clipPathUnits="userSpaceOnUse"
       id="clipPath1690"><path
         d="m 492.011,447.18 h 27.968 v 20.976 h -27.968 z"
         id="path1688" /></clipPath></defs><path
     id="path4612"
     style="fill:#ffffff;fill-opacity:1;fill-rule:nonzero;stroke:none;stroke-width:1.25"
     d="m 423.58375,0.49774 c -9.39,0 -18.77875,3.58375 -25.9475,10.7475 -2.34875,2.34875 -4.30625,4.94125 -5.88375,7.69 l -19.0575,32.695 h -0.0875 L 6.23,686.68399 c -0.0675,0.1175 -0.12125,0.24 -0.19,0.3625 -1.855,2.9875 -3.32,6.3025 -4.2875,9.8875 -5.23875,19.57 6.3775,39.6925 25.9525,44.93625 3.2325,0.86875 6.485,1.265 9.6675,1.25 h 772.59375 c 20.26375,0 36.68875,-16.42625 36.68875,-36.695 0,-6.625 -1.7675,-12.85125 -4.84875,-18.2225 -0.0237,-0.0437 -0.0487,-0.0775 -0.0625,-0.12125 L 461.27875,27.56774 c -4.82375,-8.33 -7.06,-11.63 -11.7525,-16.3225 -7.1625,-7.16375 -16.5525,-10.7475 -25.9425,-10.7475 z" /><path
     id="path4614"
     style="fill:#c1121c;fill-opacity:1;fill-rule:nonzero;stroke:none;stroke-width:1.25"
     d="m 423.58195,10.095053 c -8.90625,-0.06375 -18.68625,4.49125 -23.47625,13.0025 L 13.489454,692.9663 c -2.23125,4.56 -3.16875,8.525 -3.19875,13.06125 0,8.12 3.59375,15.825 9.81,21.055 5.48375,4.2375 10.66875,6.445 17.65125,6.445 H 810.13445 c 4.7125,0.0438 9.43375,-1.08875 13.72625,-3.91625 8.05625,-4.86875 12.9975,-13.60375 13.0075,-23.0325 -0.22875,-4.8675 -1.43,-10 -3.59875,-13.6125 L 446.8782,22.990053 c -0.0337,-0.05875 -0.0738,-0.1175 -0.1125,-0.17625 -0.0387,-0.0575 -0.0775,-0.11125 -0.1175,-0.18 -1.36625,-2.1975 -3.085,-4.13125 -5.05375,-5.79125 -4.4825,-3.88625 -10.1025,-6.22 -16.025,-6.64 -0.66375,-0.06375 -1.3275,-0.1025 -1.9875,-0.1075 z M 37.751954,733.52755 h -1.90375 1.9425 z M 423.18195,142.8638 717.8107,653.52755 H 128.1382 Z" /><path
     id="path4616"
     style="fill:#000000;fill-opacity:1;fill-rule:nonzero;stroke:none;stroke-width:1.25"
     d="m 423.58375,2.4e-4 c -9.52125,0 -19.0375,3.6325 -26.29875,10.89875 -2.3825,2.3725 -4.365,5.00875 -5.96625,7.7875 L 372.4075,51.13274 h -0.0888 L 5.80125,686.43024 c -0.08375,0.1475 -0.1475,0.27375 -0.20125,0.37625 -1.87875,3.0275 -3.35375,6.3775 -4.325,9.995 -5.3125,19.83875 6.46375,40.235 26.29875,45.5525 3.27625,0.87875 6.57125,1.27875 9.79875,1.26875 h 772.59375 c 20.53125,0 37.1925,-16.66 37.1925,-37.1975 0,-6.71875 -1.7975,-13.0175 -4.9175,-18.46625 -0.02,-0.02 -0.0338,-0.0638 -0.0638,-0.1225 L 461.72375,27.31899 C 456.885,18.98399 454.605,15.61524 449.8875,10.89899 442.6275,3.63274 433.105,2.4e-4 423.58875,2.4e-4 Z m 0,0.4975 c 9.39,0 18.78,3.58375 25.9425,10.7475 4.6925,4.6925 6.92875,7.9925 11.7525,16.3225 l 380.46,660.51375 c 0.0188,0.0437 0.0438,0.0775 0.0675,0.12125 3.08125,5.37125 4.84875,11.5975 4.84875,18.2225 0,20.26875 -16.425,36.695 -36.68875,36.695 H 37.3725 c -3.1825,0.015 -6.435,-0.38125 -9.6675,-1.25 C 8.13,736.62649 -3.48625,716.50399 1.7525,696.93399 c 0.9625,-3.585 2.4325,-6.9 4.2875,-9.8875 0.06875,-0.1225 0.1225,-0.245 0.19,-0.3625 L 372.6075,51.63024 h 0.0875 l 19.0575,-32.695 c 1.5775,-2.74875 3.535,-5.34125 5.88375,-7.69 C 404.805,4.08149 414.19,0.49774 423.58375,0.49774 Z" /><path
     id="path4618"
     style="fill:#000000;fill-opacity:1;fill-rule:nonzero;stroke:none;stroke-width:1.25"
     d="m 145.7275,642.98774 139.22375,-240.995 417.45125,240.995" /><g
     id="g2221"
     transform="matrix(42.947148,0,0,-42.947148,-20105.247,22305.131)"
     style="fill:#ff00ff"><g
       id="g2223"
       clip-path="url(#clipPath2227-6)"
       style="fill:#ff00ff"><g
         id="g2229"
         transform="translate(471.0425,504.0859)"
         style="fill:#ff00ff" /><g
         id="g2233"
         transform="translate(479.2373,508.7292)"
         style="fill:#ff00ff" /></g></g><g
     id="g2253"
     transform="matrix(42.947148,0,0,-42.947148,-21306.836,22304.312)"
     style="fill:#ff00ff"><g
       id="g2255"
       clip-path="url(#clipPath2259)"
       style="fill:#ff00ff"><g
         id="g2261"
         transform="translate(499.0117,504.086)"
         style="fill:#ff00ff" /><g
         id="g2265"
         transform="translate(507.1899,508.739)"
         style="fill:#ff00ff" /></g></g><g
     id="g2285"
     transform="matrix(42.947148,0,0,-42.947148,-22508.572,22304.431)"
     style="fill:#ff00ff"><g
       id="g2287"
       clip-path="url(#clipPath2291)"
       style="fill:#ff00ff"><g
         id="g2293"
         transform="translate(526.981,504.0861)"
         style="fill:#ff00ff" /><g
         id="g2297"
         transform="translate(535.1014,508.7722)"
         style="fill:#ff00ff" /></g></g><g
     id="g1729"
     transform="matrix(42.947148,0,0,-42.947148,-16502.217,21151.934)"
     style="fill:#ff00ff"><g
       id="g1731"
       clip-path="url(#clipPath1735)"
       style="fill:#ff00ff"><g
         id="g1737"
         transform="translate(387.1353,477.21)"
         style="fill:#ff00ff" /><g
         id="g1741"
         transform="translate(395.3521,481.8406)"
         style="fill:#ff00ff" /></g></g><g
     id="g1761"
     transform="matrix(42.947148,0,0,-42.947148,-17704.674,21149.879)"
     style="fill:#ff00ff"><g
       id="g1763"
       clip-path="url(#clipPath1767)"
       style="fill:#ff00ff"><g
         id="g1769"
         transform="translate(415.1045,477.21)"
         style="fill:#ff00ff"><path
           d="m 7.28,14.984 c -6.76080027,0.179297 -3.3804001,0.08965 0,0 z"
           style="fill:#ff00ff;fill-opacity:1;fill-rule:nonzero;stroke:none"
           id="path1771"
           sodipodi:nodetypes="cc" /></g><g
         id="g1773"
         transform="translate(423.2634,481.8741)"
         style="fill:#ff00ff" /></g></g><g
     id="g1793"
     transform="matrix(42.947148,0,0,-42.947148,-18905.375,21149.334)"
     style="fill:#000000"><g
       id="g1795"
       clip-path="url(#clipPath1799)"
       style="fill:#000000"><g
         id="g1801"
         transform="translate(443.0775,477.21)"
         style="fill:#000000" /><g
         id="g1805"
         transform="translate(451.8148,481.5402)"
         style="fill:#000000" /></g></g><g
     id="g1633"
     transform="matrix(42.947148,0,0,-42.947148,-20106.34,21148.909)"
     style="fill:#ff00ff"><g
       id="g1635"
       clip-path="url(#clipPath1639)"
       style="fill:#ff00ff"><g
         id="g1641"
         transform="translate(471.0439,477.2103)"
         style="fill:#ff00ff" /><g
         id="g1645"
         transform="translate(479.5306,481.685)"
         style="fill:#ff00ff" /></g></g><g
     id="g1665"
     transform="matrix(42.947148,0,0,-42.947148,-21307.322,21151.983)"
     style="fill:#ff00ff"><g
       id="g1667"
       clip-path="url(#clipPath1671)"
       style="fill:#ff00ff"><g
         id="g1673"
         transform="translate(499.0131,477.21)"
         style="fill:#ff00ff" /><g
         id="g1677"
         transform="translate(507.7503,481.5402)"
         style="fill:#ff00ff"><path
           d="M 0,0 C 0.037,0.064 0.119,0.086 0.183,0.049 0.246,0.012 0.268,-0.07 0.231,-0.134 l -0.155,-0.27 c -0.037,-0.063 -0.119,-0.085 -0.183,-0.048 -0.064,0.037 -0.086,0.118 -0.049,0.182 z m -0.154,0.089 -0.156,-0.27 c -0.086,-0.149 -0.035,-0.34 0.114,-0.426 0.149,-0.086 0.34,-0.035 0.426,0.114 l 0.156,0.27 c 0.086,0.149 0.035,0.34 -0.114,0.426 -0.149,0.086 -0.34,0.035 -0.426,-0.114 m 0.337,1.296 0.156,0.27 C 0.376,1.719 0.354,1.8 0.29,1.837 0.226,1.874 0.144,1.852 0.107,1.789 L -0.048,1.519 C -0.085,1.455 -0.063,1.373 0,1.336 0.064,1.299 0.146,1.321 0.183,1.385 M 0.337,1.296 C 0.251,1.147 0.061,1.096 -0.089,1.182 c -0.149,0.086 -0.2,0.277 -0.114,0.426 l 0.156,0.27 C 0.039,2.027 0.23,2.078 0.379,1.992 0.528,1.906 0.579,1.715 0.493,1.566 Z M -1.149,-0.031 -0.937,-0.153 1.332,1.416 1.12,1.538 Z"
           style="fill:#000000;fill-opacity:1;fill-rule:nonzero;stroke:none"
           id="path1679"
           sodipodi:nodetypes="ccccsccccsccscccsccccccccsccccccc" /></g></g></g><g
     id="g1697"
     transform="matrix(42.947148,0,0,-42.947148,-22509.163,21151.446)"
     style="fill:#ff00ff"><g
       id="g1699"
       clip-path="url(#clipPath1703)"
       style="fill:#ff00ff"><g
         id="g1705"
         transform="translate(526.9824,477.21)"
         style="fill:#ff00ff" /><g
         id="g1709"
         transform="translate(535.7366,481.5304)"
         style="fill:#ff00ff"><path
           d="M -3.189,3.281 -3,3.608 -2.558,3.662 -2.249,3.483 -3.496,1.324 -3.804,1.502 -2.747,3.334 Z"
           style="fill:#000000;fill-opacity:1;fill-rule:nonzero;stroke:none"
           id="path1711"
           sodipodi:nodetypes="cccccccc" /></g></g></g><g
     id="g1925"
     transform="matrix(42.947148,0,0,-42.947148,-16505.513,20025.329)"
     style="fill:#ff00ff"><g
       id="g1927"
       clip-path="url(#clipPath1931)"
       style="fill:#ff00ff"><g
         id="g1933"
         transform="translate(387.139,450.989)"
         style="fill:#ff00ff" /><g
         id="g1937"
         transform="translate(395.9341,455.2857)"
         style="fill:#ff00ff" /></g></g><g
     id="g1780"
     transform="matrix(42.947242,0,0,-42.947242,-17703.65,20025.372)"
     style="fill:#ff00ff"><g
       id="g1782"
       clip-path="url(#clipPath1786)"
       style="fill:#ff00ff"><g
         id="g1788"
         transform="translate(415.1082,450.989)"
         style="fill:#ff00ff"><path
           d="m -2.65,-1.187 c -0.1597639,10.9842778 -0.079882,5.4921389 0,0 z"
           style="fill:#ff00ff;fill-opacity:1;fill-rule:nonzero;stroke:none"
           id="path1790"
           sodipodi:nodetypes="cc" /></g><g
         id="g1792"
         transform="translate(423.8621,455.3096)"
         style="fill:#ff00ff" /></g></g><g
     id="g1812"
     transform="matrix(42.947242,0,0,-42.947242,-18906.265,20025.381)"
     style="fill:#ff00ff"><g
       id="g1814"
       clip-path="url(#clipPath1818)"
       style="fill:#ff00ff"><g
         id="g1820"
         transform="translate(443.0775,450.9892)"
         style="fill:#ff00ff" /><g
         id="g1824"
         transform="translate(451.8147,455.3194)"
         style="fill:#ff00ff" /></g></g><g
     id="g1664"
     transform="matrix(42.947242,0,0,-42.947242,492.75426,467.35254)"
     style="fill:#ff00ff" /><g
     id="g1684"
     transform="matrix(42.947148,0,0,-42.947148,-21310.7,20025.739)"
     style="fill:#ff00ff"><g
       id="g1686"
       clip-path="url(#clipPath1690)"
       style="fill:#ff00ff"><g
         id="g1692"
         transform="translate(499.0131,450.9892)"
         style="fill:#ff00ff" /><g
         id="g1696"
         transform="translate(507.7889,455.297)"
         style="fill:#ff00ff"><path
           d="m -1.789,2.421 c -0.099,-0.17 -0.04,-0.388 0.13,-0.486 0.17,-0.099 0.388,-0.04 0.487,0.13 0.098,0.17 0.039,0.388 -0.131,0.486 -0.17,0.099 -0.388,0.04 -0.486,-0.13 M -2.362,1.518 c -0.111,-0.192 -0.045,-0.437 0.147,-0.547 0.191,-0.111 0.436,-0.045 0.547,0.146 0.11,0.192 0.045,0.437 -0.147,0.548 -0.191,0.11 -0.436,0.045 -0.547,-0.147 m 0.223,0.52 c -0.073,0.183 -0.057,0.39 0.041,0.561 0.197,0.341 0.633,0.458 0.973,0.261 C -0.784,2.663 -0.667,2.228 -0.864,1.887 -0.963,1.716 -1.134,1.599 -1.33,1.571 -1.237,1.368 -1.248,1.133 -1.36,0.939 -1.569,0.577 -2.032,0.453 -2.394,0.662 -2.756,0.871 -2.88,1.334 -2.671,1.696 c 0.112,0.193 0.31,0.321 0.532,0.342"
           style="fill:#000000;fill-opacity:1;fill-rule:nonzero;stroke:none"
           id="path1698"
           sodipodi:nodetypes="ccccccccccccccccscc" /></g></g></g></svg>
