<?xml version="1.0" encoding="UTF-8" standalone="no"?>
<svg
   xmlns:dc="http://purl.org/dc/elements/1.1/"
   xmlns:cc="http://creativecommons.org/ns#"
   xmlns:rdf="http://www.w3.org/1999/02/22-rdf-syntax-ns#"
   xmlns:svg="http://www.w3.org/2000/svg"
   xmlns="http://www.w3.org/2000/svg"
   viewBox="0 0 601 601"
   height="601"
   width="601"
   xml:space="preserve"
   version="1.1"
   id="svg3541"><metadata
     id="metadata3547"><rdf:RDF><cc:Work
         rdf:about=""><dc:format>image/svg+xml</dc:format><dc:type
           rdf:resource="http://purl.org/dc/dcmitype/StillImage" /><dc:title></dc:title></cc:Work></rdf:RDF></metadata><defs
     id="defs3545" /><g
     transform="matrix(1.25,0,0,-1.25,0,600.99998)"
     id="g3549"><g
       id="g3551"><path
         id="path3553"
         style="fill:#000000;fill-opacity:1;fill-rule:evenodd;stroke:none"
         d="m 240.375,-0.001 c -44.234,0 -81.848,10.074 -120.16,32.192 C 81.875,54.335 54.336,81.874 32.191,120.214 10.074,158.527 0,196.163 0,240.425 c 0,44.234 10.074,81.852 32.191,120.187 22.145,38.313 49.684,65.879 88.024,87.997 38.312,22.117 75.926,32.191 120.16,32.191 44.262,0 81.898,-10.074 120.238,-32.191 38.313,-22.118 65.879,-49.684 87.996,-87.997 22.118,-38.335 32.192,-75.953 32.192,-120.187 0,-44.258 -10.074,-81.898 -32.192,-120.211 C 426.492,81.874 398.926,54.331 360.613,32.191 322.273,10.073 284.637,-0.001 240.375,-0.001 Z m 0,0.399 c 44.199,0 81.754,10.05 120.039,32.14 38.262,22.114 65.766,49.59 87.852,87.875 22.086,38.262 32.132,75.813 32.132,120.012 0,44.176 -10.046,81.703 -32.132,119.988 -22.086,38.258 -49.59,65.762 -87.852,87.848 -38.285,22.086 -75.84,32.137 -120.039,32.137 -44.172,0 -81.703,-10.051 -119.961,-32.137 C 82.129,426.175 54.652,398.671 32.539,360.413 10.449,322.128 0.398,284.601 0.398,240.425 c 0,-44.199 10.051,-81.75 32.141,-120.012 22.113,-38.285 49.59,-65.761 87.875,-87.875 38.258,-22.09 75.789,-32.14 119.961,-32.14 z" /><path
         id="path3555"
         style="fill:#ffffff;fill-opacity:1;fill-rule:evenodd;stroke:none"
         d="m 480.398,240.425 c 0,-44.199 -10.046,-81.75 -32.132,-120.012 C 426.18,82.128 398.676,54.652 360.414,32.538 322.125,10.448 284.574,0.398 240.375,0.398 c -44.176,0 -81.703,10.05 -119.961,32.14 -38.285,22.114 -65.766,49.59 -87.879,87.875 -22.086,38.262 -32.137,75.813 -32.137,120.012 0,44.176 10.051,81.703 32.137,119.984 22.113,38.262 49.594,65.766 87.879,87.852 38.258,22.086 75.785,32.137 119.961,32.137 44.199,0 81.75,-10.051 120.039,-32.137 38.262,-22.086 65.766,-49.59 87.852,-87.852 22.086,-38.281 32.132,-75.808 32.132,-119.984 z" /><path
         id="path3557"
         style="fill:#154889;fill-opacity:1;fill-rule:evenodd;stroke:none"
         d="m 469.199,240.398 c 0,-42.102 -9.582,-77.914 -30.66,-114.375 C 417.488,89.538 391.258,63.308 354.797,42.257 318.34,21.179 282.504,11.597 240.375,11.597 c -42.105,0 -77.891,9.609 -114.348,30.66 -36.488,21.078 -62.691,47.281 -83.769,83.766 -21.051,36.461 -30.66,72.273 -30.66,114.375 0,42.129 9.582,77.941 30.66,114.398 21.051,36.461 47.281,62.691 83.769,83.742 36.457,21.078 72.243,30.66 114.348,30.66 42.129,0 77.965,-9.582 114.422,-30.66 36.461,-21.051 62.691,-47.281 83.742,-83.742 21.078,-36.457 30.66,-72.269 30.66,-114.398 z" /><path
         id="path3559"
         style="fill:#ffffff;fill-opacity:1;fill-rule:nonzero;stroke:none"
         d="m 233.961,129.534 -85.66,85.766 272.976,0 0,50.152 -273.254,0 85.704,85.809 -63.204,0 -111.003,-110.789 11.015,0.148 -10.781,-0.297 111.027,-110.789 63.18,0 z" /></g></g></svg>