<?xml version="1.0" encoding="UTF-8" standalone="no"?>
<svg
   xmlns:dc="http://purl.org/dc/elements/1.1/"
   xmlns:cc="http://creativecommons.org/ns#"
   xmlns:rdf="http://www.w3.org/1999/02/22-rdf-syntax-ns#"
   xmlns:svg="http://www.w3.org/2000/svg"
   xmlns="http://www.w3.org/2000/svg"
   viewBox="0 0 601.00122 601.00122"
   height="601.00122"
   width="601.00122"
   xml:space="preserve"
   id="svg86"
   version="1.1"><metadata
     id="metadata92"><rdf:RDF><cc:Work
         rdf:about=""><dc:format>image/svg+xml</dc:format><dc:type
           rdf:resource="http://purl.org/dc/dcmitype/StillImage" /><dc:title></dc:title></cc:Work></rdf:RDF></metadata><defs
     id="defs90" /><g
     transform="matrix(1.3333333,0,0,-1.3333333,0,601.00122)"
     id="g94"><g
       id="g96"><path
         id="path98"
         style="fill:#ffffff;fill-opacity:1;fill-rule:nonzero;stroke:none"
         d="m 450.375,225.376 c 0,-124.266 -100.734,-225 -225,-225 -124.266,0 -225,100.734 -225,225 0,124.266 100.734,225 225,225 124.266,0 225,-100.734 225,-225 z" /><path
         id="path100"
         style="fill:#c1121c;fill-opacity:1;fill-rule:nonzero;stroke:none"
         d="m 225.375,7.876 c -119.766,0 -217.5,97.734 -217.5,217.5 0,119.766 97.734,217.5 217.5,217.5 119.766,0 217.5,-97.734 217.5,-217.5 0,-119.766 -97.734,-217.5 -217.5,-217.5 z m 0,60.297 c 87.176,0 157.203,70.027 157.203,157.203 0,87.176 -70.027,157.199 -157.203,157.199 -87.176,0 -157.199,-70.023 -157.199,-157.199 0,-87.176 70.023,-157.203 157.199,-157.203 z" /><path
         id="path102"
         style="fill:#000000;fill-opacity:1;fill-rule:nonzero;stroke:none"
         d="m 21.852,427.981 v -0.023 h -0.024 z" /><path
         id="path104"
         style="fill:#000000;fill-opacity:1;fill-rule:nonzero;stroke:none"
         d="m 21.828,427.981 h 0.023 v -0.02 h -0.023 z" /><path
         id="path106"
         style="fill:#000000;fill-opacity:1;fill-rule:nonzero;stroke:none"
         d="m 21.828,427.958 v 0.023 l 0.024,-0.023 z m 0.024,0 -0.024,0.023 v -0.023 z" /><path
         id="path108"
         style="fill:#000000;fill-opacity:1;fill-rule:nonzero;stroke:none"
         d="m 21.879,427.958 h -0.051 0.024 v 0.023 z" /><path
         id="path110"
         style="fill:#000000;fill-opacity:1;fill-rule:nonzero;stroke:none"
         d="m 21.828,427.958 v 0.023 -0.023 l 0.024,0.023 z" /><path
         id="path112"
         style="fill:#000000;fill-opacity:1;fill-rule:nonzero;stroke:none"
         d="m 21.828,427.981 h 0.023 v -0.02 h -0.023 z" /><path
         id="path114"
         style="fill:#000000;fill-opacity:1;fill-rule:nonzero;stroke:none"
         d="m 21.879,427.981 v -0.046 h -0.051 z" /><path
         id="path116"
         style="fill:#000000;fill-opacity:1;fill-rule:nonzero;stroke:none"
         d="m 21.828,427.981 h 0.051 v -0.047 h -0.051 z" /><path
         id="path118"
         style="fill:#000000;fill-opacity:1;fill-rule:nonzero;stroke:none"
         d="m 21.828,427.935 v 0.046 l 0.051,-0.046 z m 0.051,0 -0.051,0.046 v -0.046 z" /><path
         id="path120"
         style="fill:#000000;fill-opacity:1;fill-rule:nonzero;stroke:none"
         d="m 21.879,427.935 h -0.051 0.024 v 0.046 z" /><path
         id="path122"
         style="fill:#000000;fill-opacity:1;fill-rule:nonzero;stroke:none"
         d="m 21.828,427.935 v 0.046 -0.046 l 0.051,0.046 z" /><path
         id="path124"
         style="fill:#000000;fill-opacity:1;fill-rule:nonzero;stroke:none"
         d="m 21.828,427.981 h 0.051 v -0.047 h -0.051 z" /><path
         id="path126"
         style="fill:#000000;fill-opacity:1;fill-rule:nonzero;stroke:none"
         d="m 21.879,427.981 v -0.046 h -0.051 z" /><path
         id="path128"
         style="fill:#000000;fill-opacity:1;fill-rule:nonzero;stroke:none"
         d="m 21.828,427.981 h 0.051 v -0.047 h -0.051 z" /><path
         id="path130"
         style="fill:#000000;fill-opacity:1;fill-rule:nonzero;stroke:none"
         d="m 21.828,427.935 v 0.046 l 0.051,-0.046 z m 0.051,0 -0.051,0.046 v -0.046 z" /><path
         id="path132"
         style="fill:#000000;fill-opacity:1;fill-rule:nonzero;stroke:none"
         d="m 21.879,427.935 h -0.051 0.024 v 0.046 z" /><path
         id="path134"
         style="fill:#000000;fill-opacity:1;fill-rule:nonzero;stroke:none"
         d="m 21.828,427.935 v 0.046 -0.046 l 0.051,0.046 z" /><path
         id="path136"
         style="fill:#000000;fill-opacity:1;fill-rule:nonzero;stroke:none"
         d="m 21.828,427.981 h 0.051 v -0.047 h -0.051 z" /><path
         id="path138"
         style="fill:#000000;fill-opacity:1;fill-rule:nonzero;stroke:none"
         d="m 21.879,427.981 v -0.046 h -0.051 z" /><path
         id="path140"
         style="fill:#000000;fill-opacity:1;fill-rule:nonzero;stroke:none"
         d="m 21.828,427.981 h 0.051 v -0.047 h -0.051 z" /><path
         id="path142"
         style="fill:#000000;fill-opacity:1;fill-rule:nonzero;stroke:none"
         d="m 21.828,427.935 v 0.046 l 0.051,-0.046 z m 0.051,0 -0.051,0.046 v -0.046 z" /><path
         id="path144"
         style="fill:#000000;fill-opacity:1;fill-rule:nonzero;stroke:none"
         d="m 21.879,427.935 h -0.051 0.024 v 0.046 z" /><path
         id="path146"
         style="fill:#000000;fill-opacity:1;fill-rule:nonzero;stroke:none"
         d="m 21.828,427.935 v 0.046 -0.046 l 0.051,0.046 z" /><path
         id="path148"
         style="fill:#000000;fill-opacity:1;fill-rule:nonzero;stroke:none"
         d="m 21.828,427.981 h 0.051 v -0.047 h -0.051 z" /><path
         id="path150"
         style="fill:#000000;fill-opacity:1;fill-rule:nonzero;stroke:none"
         d="M 225.375,450.751 C 100.906,450.751 0,349.845 0,225.376 0,100.907 100.906,0.001 225.375,0.001 c 124.469,0 225.375,100.906 225.375,225.375 0,124.469 -100.906,225.375 -225.375,225.375 z m 0,-0.375 c 124.266,0 225,-100.734 225,-225 0,-124.266 -100.734,-225 -225,-225 -124.266,0 -225,100.734 -225,225 0,124.266 100.734,225 225,225 z" /><path
         id="path152"
         style="fill:#000000;fill-opacity:1;fill-rule:nonzero;stroke:none"
         d="M 121.188,335.349 V 225.13 h 26.914 v 13.254 c 0,0 -0.032,10.429 11.914,10.492 11.945,0.062 12.605,-11.094 12.605,-11.094 v -68.004 c 0,0 -0.66,-11.156 -12.605,-11.093 -11.946,0.058 -11.914,10.496 -11.914,10.496 v 16.961 h -26.914 v -16.786 c 0,0 -0.098,-36.519 39.394,-36.507 39.914,0.015 39.008,36.929 39.008,36.929 v 68.004 c 0,0 0.906,36.914 -39.008,36.93 -4.719,0 -8.863,-0.524 -12.519,-1.438 0,16.973 0.007,31.922 0.039,35.188 h 51.488 c 0,0 0.172,22.637 0,26.887 z" /><path
         id="path154"
         style="fill:#000000;fill-opacity:1;fill-rule:evenodd;stroke:none"
         d="m 344.289,282.849 -20.848,-21.993 v -23.593 h -9.324 v -19.965 h 9.324 v -84.453 h 20.805 v 84.453 h 9.442 v 19.965 h -9.442 z" /><path
         id="path156"
         style="fill:#000000;fill-opacity:1;fill-rule:evenodd;stroke:none"
         d="m 203.344,114.938 v 32.063 h 14.754 v -18.82 l -14.754,-13.243" /><path
         id="path158"
         style="fill:#000000;fill-opacity:1;fill-rule:nonzero;stroke:none"
         d="m 231.27,282.849 v -82.422 h 19.937 v 10.593 c 0,0 -0.027,7.727 8.82,7.778 8.852,0.047 9.34,-8.219 9.34,-8.219 v -50.371 c 0,0 -0.488,-8.27 -9.34,-8.223 -8.847,0.047 -8.82,7.778 -8.82,7.778 v 12.562 H 231.27 v -12.433 c 0,0 -0.075,-27.051 29.179,-27.043 29.567,0.011 28.895,27.359 28.895,27.359 v 50.371 c 0,0 0.672,27.34 -28.895,27.356 -3.492,0 -6.566,-0.387 -9.273,-1.067 0,12.574 0.004,23.649 0.031,26.063 h 38.137 c 0,0 0.129,16.769 0,19.918 z" /></g></g></svg>